<?xml version="1.0" encoding="UTF-8" standalone="no"?>
<!-- Created with Inkscape (http://www.inkscape.org/) -->

<svg
   xmlns:dc="http://purl.org/dc/elements/1.1/"
   xmlns:cc="http://creativecommons.org/ns#"
   xmlns:rdf="http://www.w3.org/1999/02/22-rdf-syntax-ns#"
   xmlns:svg="http://www.w3.org/2000/svg"
   xmlns="http://www.w3.org/2000/svg"
   xmlns:sodipodi="http://sodipodi.sourceforge.net/DTD/sodipodi-0.dtd"
   xmlns:inkscape="http://www.inkscape.org/namespaces/inkscape"
   width="1200"
   height="300"
   id="svg2"
   version="1.1"
   inkscape:version="0.48.4 r9939"
   sodipodi:docname="amis-boy.svg">
  <defs
     id="defs4">
    <clipPath
       clipPathUnits="userSpaceOnUse"
       id="clipPath3045">
      <rect
         style="color:#000000;fill:#4d4d4d;fill-opacity:1;fill-rule:nonzero;stroke:none;marker:none;visibility:visible;display:inline;overflow:visible;enable-background:accumulate"
         id="rect3047"
         width="87.162567"
         height="8.2228842"
         x="624.82947"
         y="-129.64398"
         rx="5.484386"
         ry="3.410974"
         transform="matrix(0.97715459,0.21252976,-0.21252976,0.97715459,0,0)" />
    </clipPath>
    <clipPath
       clipPathUnits="userSpaceOnUse"
       id="clipPath3025">
      <rect
         clip-path="none"
         rx="10.808165"
         ry="17.331581"
         transform="matrix(0.98634588,0.16468701,-0.27264631,0.96211433,0,0)"
         y="-28.89159"
         x="579.91028"
         height="176.47658"
         width="127.18106"
         id="rect3028"
         style="color:#000000;fill:#1a1a1a;fill-opacity:1;fill-rule:nonzero;stroke:none;marker:none;visibility:visible;display:inline;overflow:visible;enable-background:accumulate" />
    </clipPath>
    <clipPath
       clipPathUnits="userSpaceOnUse"
       id="clipPath3055">
      <path
         sodipodi:type="arc"
         style="color:#000000;fill:#999999;fill-opacity:1;fill-rule:nonzero;stroke:none;marker:none;visibility:visible;display:inline;overflow:visible;enable-background:accumulate"
         id="path3057"
         sodipodi:cx="-79.64286"
         sodipodi:cy="79.10714"
         sodipodi:rx="13.571428"
         sodipodi:ry="6.25"
         d="m -66.071432,79.10714 a 13.571428,6.25 0 1 1 -27.142857,0 13.571428,6.25 0 1 1 27.142857,0 z"
         transform="matrix(1.244106,0.19195082,-0.11518667,0.81913294,737.6548,62.886789)" />
    </clipPath>
    <clipPath
       clipPathUnits="userSpaceOnUse"
       id="clipPath3076">
      <path
         inkscape:connector-curvature="0"
         id="path3078"
         d="m 688.84234,82.568542 -8.90892,4.098282 -9.97328,19.969656 11.89358,5.32291 10.00889,-21.065457 z"
         style="fill:#4d4d4d;fill-opacity:1;stroke:none" />
    </clipPath>
    <clipPath
       clipPathUnits="userSpaceOnUse"
       id="clipPath3061">
      <g
         id="g3063">
        <path
           sodipodi:type="arc"
           style="color:#000000;fill:#4d4d4d;fill-opacity:1;fill-rule:nonzero;stroke:none;marker:none;visibility:visible;display:inline;overflow:visible;enable-background:accumulate"
           id="path3065"
           sodipodi:cx="32.142857"
           sodipodi:cy="180.71428"
           sodipodi:rx="6.4285712"
           sodipodi:ry="7.5"
           d="m 38.571428,180.71428 a 6.4285712,7.5 0 1 1 -12.857143,0 6.4285712,7.5 0 1 1 12.857143,0 z"
           transform="matrix(1.2575296,0,0,1.3172269,515.47248,30.26004)" />
        <path
           sodipodi:type="arc"
           style="color:#000000;fill:#4d4d4d;fill-opacity:1;fill-rule:nonzero;stroke:none;marker:none;visibility:visible;display:inline;overflow:visible;enable-background:accumulate"
           id="path3067"
           sodipodi:cx="32.142857"
           sodipodi:cy="180.71428"
           sodipodi:rx="6.4285712"
           sodipodi:ry="7.5"
           d="m 38.571428,180.71428 a 6.4285712,7.5 0 1 1 -12.857143,0 6.4285712,7.5 0 1 1 12.857143,0 z"
           transform="matrix(1.2575296,0,0,1.3172269,518.6163,29.31917)" />
        <path
           sodipodi:type="arc"
           style="color:#000000;fill:#4d4d4d;fill-opacity:1;fill-rule:nonzero;stroke:none;marker:none;visibility:visible;display:inline;overflow:visible;enable-background:accumulate"
           id="path3069"
           sodipodi:cx="32.142857"
           sodipodi:cy="180.71428"
           sodipodi:rx="6.4285712"
           sodipodi:ry="7.5"
           d="m 38.571428,180.71428 a 6.4285712,7.5 0 1 1 -12.857143,0 6.4285712,7.5 0 1 1 12.857143,0 z"
           transform="matrix(1.2575296,0,0,1.3172269,618.45517,47.007645)" />
        <path
           sodipodi:type="arc"
           style="color:#000000;fill:#4d4d4d;fill-opacity:1;fill-rule:nonzero;stroke:none;marker:none;visibility:visible;display:inline;overflow:visible;enable-background:accumulate"
           id="path3071"
           sodipodi:cx="32.142857"
           sodipodi:cy="180.71428"
           sodipodi:rx="6.4285712"
           sodipodi:ry="7.5"
           d="m 38.571428,180.71428 a 6.4285712,7.5 0 1 1 -12.857143,0 6.4285712,7.5 0 1 1 12.857143,0 z"
           transform="matrix(1.2575296,0,0,1.3172269,621.599,46.066775)" />
      </g>
    </clipPath>
    <clipPath
       clipPathUnits="userSpaceOnUse"
       id="clipPath3035">
      <g
         id="g3037">
        <path
           style="fill:#808080;fill-opacity:1;stroke:none"
           d="m 571.80088,94.290214 4.23237,-14.184616 c 0,0 5.44161,-14.184617 21.16183,-10.960838 15.72022,3.223775 15.72022,3.223775 15.72022,3.223775 z"
           id="path3039"
           inkscape:connector-curvature="0" />
        <path
           style="fill:#808080;fill-opacity:1;stroke:none"
           d="m 698.98147,114.02514 3.83734,-14.801194 c 0,0 3.28916,-10.963844 -10.96385,-13.704805 -14.25299,-2.740961 -21.92768,-3.289153 -21.92768,-3.289153 z"
           id="path3041"
           inkscape:connector-curvature="0" />
      </g>
    </clipPath>
    <clipPath
       clipPathUnits="userSpaceOnUse"
       id="clipPath3056">
      <g
         id="g3058">
        <rect
           style="color:#000000;fill:#cccccc;fill-opacity:1;fill-rule:nonzero;stroke:none;marker:none;visibility:visible;display:inline;overflow:visible;enable-background:accumulate"
           id="rect3060"
           width="3.8373456"
           height="84.969795"
           x="636.19049"
           y="-126.39048"
           rx="5.484386"
           ry="3.410974"
           transform="matrix(0.97715459,0.21252976,-0.21252976,0.97715459,0,0)" />
        <rect
           style="color:#000000;fill:#cccccc;fill-opacity:1;fill-rule:nonzero;stroke:none;marker:none;visibility:visible;display:inline;overflow:visible;enable-background:accumulate"
           id="rect3062"
           width="3.8373456"
           height="84.969795"
           x="695.66931"
           y="-125.56818"
           rx="5.484386"
           ry="3.410974"
           transform="matrix(0.97715459,0.21252976,-0.21252976,0.97715459,0,0)" />
      </g>
    </clipPath>
    <clipPath
       clipPathUnits="userSpaceOnUse"
       id="clipPath3139">
      <g
         id="g3141">
        <rect
           clip-path="none"
           rx="10.808165"
           ry="17.331581"
           transform="matrix(0.98634588,0.16468701,-0.27264631,0.96211433,0,0)"
           y="-8.8360214"
           x="600.94421"
           height="176.47658"
           width="127.18105"
           id="rect3143"
           style="color:#000000;fill:#666666;fill-opacity:1;fill-rule:nonzero;stroke:none;marker:none;visibility:visible;display:inline;overflow:visible;enable-background:accumulate" />
        <rect
           style="color:#000000;fill:#666666;fill-opacity:1;fill-rule:nonzero;stroke:none;marker:none;visibility:visible;display:inline;overflow:visible;enable-background:accumulate"
           id="rect3145"
           width="32.059956"
           height="20.429197"
           x="491.11072"
           y="-497.63272"
           transform="matrix(0.60992012,0.7924629,-0.79596199,0.6053466,0,0)" />
        <rect
           style="color:#000000;fill:#666666;fill-opacity:1;fill-rule:nonzero;stroke:none;marker:none;visibility:visible;display:inline;overflow:visible;enable-background:accumulate"
           id="rect3147"
           width="32.212074"
           height="20.333292"
           x="474.82855"
           y="-357.29144"
           transform="matrix(0.52110627,0.8534918,-0.85838651,0.51300351,0,0)" />
        <rect
           clip-path="none"
           rx="10.808165"
           ry="17.331581"
           transform="matrix(0.98634588,0.16468701,-0.27264631,0.96211433,0,0)"
           y="-28.891584"
           x="579.91028"
           height="176.47658"
           width="127.18106"
           id="rect3149"
           style="color:#000000;fill:#666666;fill-opacity:1;fill-rule:nonzero;stroke:none;marker:none;visibility:visible;display:inline;overflow:visible;enable-background:accumulate" />
      </g>
    </clipPath>
    <clipPath
       clipPathUnits="userSpaceOnUse"
       id="clipPath4050">
      <g
         id="g4052"
         transform="matrix(0.97108293,0,0,0.97108293,161.43735,1.5768565)">
        <path
           style="fill:#000000;fill-opacity:1;stroke:none;display:inline"
           d="m 279.28571,198.57143 c 0,0 4.28572,-46.42857 70.71429,-40 66.42857,6.42857 45,40.71428 45,40.71428 0,0 -7.85714,27.14286 -47.14286,37.14286 -39.28571,10 -60.76084,-4.48014 -65.71428,-15 C 276.76155,210 279.1371,198.57143 279.28571,198.57143 z"
           id="path4054"
           inkscape:connector-curvature="0"
           sodipodi:nodetypes="cscssc" />
        <path
           style="fill:#000000;fill-opacity:1;stroke:none;display:inline"
           d="m 552.7517,196.12368 c 0,0 -4.28572,-46.42857 -70.71429,-40 -66.42857,6.42857 -45,40.71428 -45,40.71428 0,0 7.85714,27.14286 47.14286,37.14286 39.28571,10 60.76084,-4.48014 65.71428,-15 5.38131,-11.42857 3.00576,-22.85714 2.85715,-22.85714 z"
           id="path4056"
           inkscape:connector-curvature="0"
           sodipodi:nodetypes="cscssc" />
      </g>
    </clipPath>
    <clipPath
       clipPathUnits="userSpaceOnUse"
       id="clipPath4060">
      <g
         id="g4062"
         transform="matrix(0.97108293,0,0,0.97108293,161.43735,1.5768565)">
        <path
           inkscape:connector-curvature="0"
           id="path4064"
           d="m 284.61049,185.09515 -11.61676,-2.02031 2.02031,15.65737 8.5863,-3.03046 z"
           style="fill:#b3b3b3;fill-opacity:1;stroke:none" />
        <path
           inkscape:connector-curvature="0"
           id="path4066"
           d="m 547.75522,183.07485 11.61676,-2.02031 -2.02031,15.65737 -8.5863,-3.03046 z"
           style="fill:#b3b3b3;fill-opacity:1;stroke:none" />
      </g>
    </clipPath>
    <clipPath
       clipPathUnits="userSpaceOnUse"
       id="clipPath4070">
      <path
         style="fill:#808080;fill-opacity:1;stroke:none;display:inline"
         d="m 534.19836,171.84861 0,11.79172 c 0,0 11.09808,-3.46816 29.82611,-3.46816 18.72803,0 31.90702,3.12135 31.90702,3.12135 l 0.1734,-10.92468 c 0,0 -14.04602,1.38725 -32.08042,1.38725 -18.0344,0 -29.82611,-1.90748 -29.82611,-1.90748 z"
         id="path4072"
         inkscape:connector-curvature="0"
         sodipodi:nodetypes="ccsccsc" />
    </clipPath>
    <clipPath
       clipPathUnits="userSpaceOnUse"
       id="clipPath4076">
      <g
         id="g4078"
         transform="matrix(0.97108293,0,0,0.97108293,161.43735,1.5768565)">
        <path
           sodipodi:nodetypes="ccsccscsc"
           inkscape:connector-curvature="0"
           id="path4080"
           d="M 555.94466,184.00106 670.09189,78.945192 c 0,0 13.63706,-14.647212 43.94164,-6.060915 30.30458,8.586296 -1.51523,7.071067 -1.51523,7.071067 L 695.34571,77.93504 c 0,0 -9.72275,-0.155268 -15.65736,1.515228 -13.80743,3.886565 -88.21298,93.129452 -119.70528,113.555892 -5.45995,3.24737 -8.99958,-0.97707 -9.21121,-4.12542 -0.17788,-2.64623 4.68858,-1.16736 5.1728,-4.87968 z"
           style="fill:#4d4d4d;fill-opacity:1;stroke:none" />
        <path
           sodipodi:nodetypes="ccsccscsc"
           inkscape:connector-curvature="0"
           id="path4082"
           d="M 279.94475,182.06612 394.09198,77.010254 c 0,0 13.63706,-14.647212 43.94164,-6.060915 30.30458,8.586296 -1.51523,7.071067 -1.51523,7.071067 L 419.3458,76.000102 c 0,0 -9.72275,-0.155268 -15.65736,1.515228 -13.80743,3.886565 -88.21298,93.12945 -119.70528,113.55589 -5.45995,3.24737 -8.99958,-0.97707 -9.21121,-4.12542 -0.17788,-2.64623 4.68858,-1.16736 5.1728,-4.87968 z"
           style="fill:#4d4d4d;fill-opacity:1;stroke:none" />
      </g>
    </clipPath>
    <clipPath
       clipPathUnits="userSpaceOnUse"
       id="clipPath3028">
      <path
         transform="translate(-394.96965,-19.192897)"
         d="m 783.87835,164.13448 a 85.862968,58.083771 0 1 1 -171.72594,0 85.862968,58.083771 0 1 1 171.72594,0 z"
         sodipodi:ry="58.083771"
         sodipodi:rx="85.862968"
         sodipodi:cy="164.13448"
         sodipodi:cx="698.01538"
         id="path3030"
         style="fill:#bdc3c7;fill-opacity:1;stroke:none"
         sodipodi:type="arc" />
    </clipPath>
    <clipPath
       clipPathUnits="userSpaceOnUse"
       id="clipPath4079">
      <g
         id="g4081">
        <path
           sodipodi:nodetypes="cscsc"
           inkscape:connector-curvature="0"
           id="path4083"
           d="m 457.05915,219.27401 c 0,0 -19.57219,-3.35465 -45.74453,-35.02549 -33.01452,-39.95047 -48.2059,-122.107871 -48.2059,-122.107871 0,0 48.6327,43.938201 70.14027,88.332941 21.50755,44.39474 23.81016,68.80042 23.81016,68.80042 z"
           style="fill:#666666;fill-opacity:1;stroke:none" />
        <path
           sodipodi:nodetypes="cscsc"
           inkscape:connector-curvature="0"
           id="path4085"
           d="m 496.54345,207.02379 c 0,0 -7.37123,-7.72369 4.24956,-65.82762 11.62078,-58.103915 40.71904,-73.515018 40.71904,-73.515018 0,0 0.68074,66.554648 -16.75044,102.579078 -17.43118,36.02443 -28.21816,36.76356 -28.21816,36.76356 z"
           style="fill:#666666;fill-opacity:1;stroke:none" />
        <path
           sodipodi:nodetypes="cscsc"
           inkscape:connector-curvature="0"
           id="path4087"
           d="m 430.5327,213.18664 c 0,0 -16.06977,-8.99738 -45.66143,-26.41163 -31.37611,-18.46436 -54.27732,-90.148671 -54.27732,-90.148671 0,0 53.51401,46.142781 75.5935,72.870591 22.07948,26.72779 24.34525,43.68971 24.34525,43.68971 z"
           style="fill:#666666;fill-opacity:1;stroke:none" />
        <path
           sodipodi:nodetypes="cscsc"
           inkscape:connector-curvature="0"
           id="path4089"
           d="m 509.27752,207.83424 c 0,0 -3.19905,-14.75848 26.14175,-69.20914 15.22382,-28.25238 57.88036,-61.894248 57.88036,-61.894248 0,0 -19.63716,57.273458 -33.372,80.487498 -17.81955,30.11783 -51.98911,52.62439 -50.65011,50.61589 z"
           style="fill:#666666;fill-opacity:1;stroke:none" />
      </g>
    </clipPath>
    <clipPath
       clipPathUnits="userSpaceOnUse"
       id="clipPath4101">
      <g
         id="g4103">
        <path
           sodipodi:nodetypes="cscsc"
           inkscape:connector-curvature="0"
           id="path4105"
           d="m 470.3583,214.06676 c 0,0 -23.08933,-1.23258 -40.5205,-58.17442 -17.43117,-56.94184 -11.62079,-118.532 -11.62079,-118.532 0,0 49.96938,67.40055 53.45562,113.88369 3.48622,46.48314 -1.31433,62.82273 -1.31433,62.82273 z"
           style="fill:#808080;fill-opacity:1;stroke:none;display:inline" />
        <path
           sodipodi:nodetypes="cscsc"
           inkscape:connector-curvature="0"
           id="path4107"
           d="m 478.64385,209.68831 c 0,0 -9.08515,-3.82659 -9.08515,-57.2822 0,-53.45561 26.72781,-115.04577 26.72781,-115.04577 0,0 11.64515,79.04443 7.6532,108.40157 -6.63212,48.77308 -25.29586,63.9264 -25.29586,63.9264 z"
           style="fill:#808080;fill-opacity:1;stroke:none;display:inline" />
      </g>
    </clipPath>
    <clipPath
       clipPathUnits="userSpaceOnUse"
       id="clipPath4129">
      <g
         id="g4131">
        <path
           inkscape:connector-curvature="0"
           id="path4133"
           d="m 421.12221,63.507103 5.81039,1.452597 4.06728,-3.776755 -2.61468,7.262991 z"
           style="fill:#999999;fill-opacity:1;stroke:none" />
        <path
           inkscape:connector-curvature="0"
           id="path4135"
           d="m 421.41273,74.256329 9.00611,2.905195 6.10091,-7.26299 -4.35779,11.620785 z"
           style="fill:#999999;fill-opacity:1;stroke:none" />
        <path
           inkscape:connector-curvature="0"
           id="path4137"
           d="m 422.57481,88.20127 13.07338,3.776755 8.42507,-9.296627 -5.81039,14.23546 z"
           style="fill:#999999;fill-opacity:1;stroke:none" />
        <path
           inkscape:connector-curvature="0"
           id="path4139"
           d="m 424.89897,105.63245 14.81649,2.90519 12.49235,-9.006105 -10.45871,13.363895 z"
           style="fill:#999999;fill-opacity:1;stroke:none" />
        <path
           inkscape:connector-curvature="0"
           id="path4141"
           d="m 428.96624,123.06363 16.2691,1.74312 13.3639,-12.49235 -11.9113,18.59326 z"
           style="fill:#999999;fill-opacity:1;stroke:none" />
        <path
           inkscape:connector-curvature="0"
           id="path4143"
           d="m 432.45248,144.27155 19.1743,3.77676 15.10701,-11.91131 -13.36391,19.46482 z"
           style="fill:#999999;fill-opacity:1;stroke:none" />
        <path
           inkscape:connector-curvature="0"
           id="path4145"
           d="m 440.00599,168.09417 14.8165,2.61467 14.23545,-10.16818 -11.33025,15.68806 z"
           style="fill:#999999;fill-opacity:1;stroke:none" />
        <path
           inkscape:connector-curvature="0"
           id="path4147"
           d="m 447.55949,188.14002 12.49235,2.61467 11.62079,-9.29663 -11.03975,14.52599 z"
           style="fill:#999999;fill-opacity:1;stroke:none" />
        <path
           inkscape:connector-curvature="0"
           id="path4149"
           d="m 491.71848,56.534631 2.32415,2.614677 3.48624,-1.452598 -4.64832,4.648314 z"
           style="fill:#999999;fill-opacity:1;stroke:none" />
        <path
           inkscape:connector-curvature="0"
           id="path4151"
           d="m 487.94172,67.283857 3.77676,4.357794 6.39143,-3.776754 -7.263,8.425069 z"
           style="fill:#999999;fill-opacity:1;stroke:none" />
        <path
           inkscape:connector-curvature="0"
           id="path4153"
           d="m 483.87445,81.809838 4.93883,3.776755 10.16819,-4.648313 -10.16819,8.715588 z"
           style="fill:#999999;fill-opacity:1;stroke:none" />
        <path
           inkscape:connector-curvature="0"
           id="path4155"
           d="m 481.25978,93.430623 5.22934,6.681947 13.36391,-5.810388 -13.36391,10.749228 z"
           style="fill:#999999;fill-opacity:1;stroke:none" />
        <path
           inkscape:connector-curvature="0"
           id="path4157"
           d="m 477.19249,110.57128 8.13456,6.10091 16.55961,-4.06728 -16.26909,9.58715 z"
           style="fill:#999999;fill-opacity:1;stroke:none" />
        <path
           inkscape:connector-curvature="0"
           id="path4159"
           d="m 476.32094,127.71194 7.26299,7.55351 18.01222,-7.26299 -18.01222,13.94494 z"
           style="fill:#999999;fill-opacity:1;stroke:none" />
        <path
           inkscape:connector-curvature="0"
           id="path4161"
           d="m 475.7399,148.33884 5.81039,6.39142 18.30274,-8.71559 -18.59325,15.10702 z"
           style="fill:#999999;fill-opacity:1;stroke:none" />
        <path
           inkscape:connector-curvature="0"
           id="path4163"
           d="m 473.70626,169.83728 5.22935,6.39144 16.55962,-8.13455 -16.55962,15.39753 z"
           style="fill:#999999;fill-opacity:1;stroke:none" />
      </g>
    </clipPath>
    <clipPath
       clipPathUnits="userSpaceOnUse"
       id="clipPath4174">
      <g
         id="g4176">
        <path
           sodipodi:nodetypes="csccscc"
           inkscape:connector-curvature="0"
           id="path4178"
           d="m 363.15322,213.72035 c 0,0 65.49934,10.55839 111.98249,8.23423 46.48313,-2.32415 93.05992,-15.07178 93.05992,-15.07178 l 0.78646,2.013 c 0,0 -48.10337,12.95684 -93.36503,15.85824 -45.32106,2.90521 -112.83945,-9.22614 -112.83945,-9.22614 z"
           style="fill:#b3b3b3;fill-opacity:1;stroke:none" />
        <path
           sodipodi:nodetypes="csccscc"
           inkscape:connector-curvature="0"
           id="path4180"
           d="m 360.11309,242.70787 c 0,0 72.38923,18.18239 112.48094,16.43927 40.0917,-1.74312 100.8662,-18.38783 100.8662,-18.38783 l -0.75122,-2.14792 c 0,0 -59.44223,16.26911 -100.11498,18.01222 -40.67275,1.74311 -112.55143,-16.2691 -112.55143,-16.2691 z"
           style="fill:#b3b3b3;fill-opacity:1;stroke:none" />
        <path
           transform="matrix(1.5183994,0,0,1.5183994,-67.553246,-91.18086)"
           d="m 362.1397,218.43018 a 8.3337584,8.3337584 0 1 1 -16.66752,0 8.3337584,8.3337584 0 1 1 16.66752,0 z"
           sodipodi:ry="8.3337584"
           sodipodi:rx="8.3337584"
           sodipodi:cy="218.43018"
           sodipodi:cx="353.80594"
           id="path4182"
           style="fill:#b3b3b3;fill-opacity:1;stroke:none"
           sodipodi:type="arc" />
        <path
           sodipodi:nodetypes="ccccc"
           inkscape:connector-curvature="0"
           id="path4184"
           d="m 392.55055,225.02391 c 18.62885,3.47666 37.2577,6.21933 55.88655,6.43273 l 0.21148,20.31927 c -20.2369,-2.52087 -40.62121,-4.30464 -60.34153,-9.40842 z"
           style="fill:#b3b3b3;fill-opacity:1;stroke:none" />
        <path
           sodipodi:nodetypes="ccccc"
           inkscape:connector-curvature="0"
           id="path4186"
           d="m 491.76831,229.5081 2.52961,19.80267 c 11.34736,-1.33132 17.92677,-1.02367 45.79738,-8.03486 l -6.19205,-19.90841 c -13.62931,3.1292 -27.4227,6.09432 -42.13494,8.1406 z"
           style="fill:#b3b3b3;fill-opacity:1;stroke:none" />
      </g>
    </clipPath>
    <clipPath
       clipPathUnits="userSpaceOnUse"
       id="clipPath4190">
      <path
         style="fill:#4d4d4d;fill-opacity:1;stroke:none;display:inline"
         d="m 361.48868,210.2622 -4.65021,34.49847 c 0,0 54.64011,17.74205 115.09301,16.75639 60.45289,-0.98568 105.79256,-18.72774 105.79256,-18.72774 l -6.97531,-40.41247 c 0,0 -36.03923,15.77073 -97.6547,16.75639 -61.61545,0.98566 -111.60535,-8.87104 -111.60535,-8.87104 z"
         id="path4192"
         inkscape:connector-curvature="0" />
    </clipPath>
  </defs>
  <sodipodi:namedview
     id="base"
     pagecolor="#ffffff"
     bordercolor="#666666"
     borderopacity="1.0"
     inkscape:pageopacity="0.0"
     inkscape:pageshadow="2"
     inkscape:zoom="2.8"
     inkscape:cx="446.67871"
     inkscape:cy="99.086847"
     inkscape:document-units="px"
     inkscape:current-layer="layer2"
     showgrid="false"
     inkscape:window-width="1360"
     inkscape:window-height="744"
     inkscape:window-x="0"
     inkscape:window-y="24"
     inkscape:window-maximized="1" />
  <metadata
     id="metadata7">
    <rdf:RDF>
      <cc:Work
         rdf:about="">
        <dc:format>image/svg+xml</dc:format>
        <dc:type
           rdf:resource="http://purl.org/dc/dcmitype/StillImage" />
        <dc:title />
      </cc:Work>
    </rdf:RDF>
  </metadata>
  <g
     inkscape:groupmode="layer"
     id="layer2"
     inkscape:label="belt">
    <rect
       style="fill:#c0392b;fill-opacity:1;stroke:none"
       id="rect4188"
       width="277.14285"
       height="119.64286"
       x="327.5"
       y="170.35715"
       rx="50.35714"
       ry="32.674694"
       clip-path="url(#clipPath4190)" />
  </g>
  <g
     inkscape:groupmode="layer"
     id="layer6"
     inkscape:label="white-blocks">
    <rect
       style="fill:#fbfcfc;fill-opacity:1;stroke:none"
       id="rect4172"
       width="256.42856"
       height="113.21429"
       x="331.78571"
       y="173.21428"
       rx="50.35714"
       ry="32.674694"
       clip-path="url(#clipPath4174)" />
  </g>
  <g
     inkscape:groupmode="layer"
     id="layer4"
     inkscape:label="white-feather"
     style="display:inline">
    <rect
       style="fill:#ecf0f1;fill-opacity:1;stroke:none"
       id="rect4077"
       width="336.3808"
       height="237.89093"
       x="283.85287"
       y="8.0659132"
       rx="50.35714"
       ry="32.674694"
       clip-path="url(#clipPath4079)" />
  </g>
  <g
     inkscape:groupmode="layer"
     id="layer1"
     inkscape:label="brown-feather">
    <rect
       style="fill:#a85913;fill-opacity:1;stroke:none"
       id="rect4091"
       width="299.00516"
       height="260.61935"
       x="316.17773"
       y="-3.0457647"
       rx="50.35714"
       ry="32.674694"
       clip-path="url(#clipPath4101)" />
  </g>
  <g
     inkscape:groupmode="layer"
     id="layer5"
     inkscape:label="stripes">
    <rect
       style="fill:#563a17;fill-opacity:1;stroke:none"
       id="rect4127"
       width="255.56859"
       height="233.34525"
       x="339.41125"
       y="16.147133"
       rx="50.35714"
       ry="32.674694"
       clip-path="url(#clipPath4129)" />
  </g>
</svg>
