<?xml version="1.0" encoding="UTF-8" standalone="no"?>
<!-- Created with Inkscape (http://www.inkscape.org/) -->

<svg
   xmlns:dc="http://purl.org/dc/elements/1.1/"
   xmlns:cc="http://creativecommons.org/ns#"
   xmlns:rdf="http://www.w3.org/1999/02/22-rdf-syntax-ns#"
   xmlns:svg="http://www.w3.org/2000/svg"
   xmlns="http://www.w3.org/2000/svg"
   xmlns:sodipodi="http://sodipodi.sourceforge.net/DTD/sodipodi-0.dtd"
   xmlns:inkscape="http://www.inkscape.org/namespaces/inkscape"
   width="1200"
   height="300"
   id="svg2"
   version="1.1"
   inkscape:version="0.48.4 r9939"
   sodipodi:docname="amis-girl.svg">
  <defs
     id="defs4">
    <clipPath
       clipPathUnits="userSpaceOnUse"
       id="clipPath3045">
      <rect
         style="color:#000000;fill:#4d4d4d;fill-opacity:1;fill-rule:nonzero;stroke:none;marker:none;visibility:visible;display:inline;overflow:visible;enable-background:accumulate"
         id="rect3047"
         width="87.162567"
         height="8.2228842"
         x="624.82947"
         y="-129.64398"
         rx="5.484386"
         ry="3.410974"
         transform="matrix(0.97715459,0.21252976,-0.21252976,0.97715459,0,0)" />
    </clipPath>
    <clipPath
       clipPathUnits="userSpaceOnUse"
       id="clipPath3025">
      <rect
         clip-path="none"
         rx="10.808165"
         ry="17.331581"
         transform="matrix(0.98634588,0.16468701,-0.27264631,0.96211433,0,0)"
         y="-28.89159"
         x="579.91028"
         height="176.47658"
         width="127.18106"
         id="rect3028"
         style="color:#000000;fill:#1a1a1a;fill-opacity:1;fill-rule:nonzero;stroke:none;marker:none;visibility:visible;display:inline;overflow:visible;enable-background:accumulate" />
    </clipPath>
    <clipPath
       clipPathUnits="userSpaceOnUse"
       id="clipPath3055">
      <path
         sodipodi:type="arc"
         style="color:#000000;fill:#999999;fill-opacity:1;fill-rule:nonzero;stroke:none;marker:none;visibility:visible;display:inline;overflow:visible;enable-background:accumulate"
         id="path3057"
         sodipodi:cx="-79.64286"
         sodipodi:cy="79.10714"
         sodipodi:rx="13.571428"
         sodipodi:ry="6.25"
         d="m -66.071432,79.10714 a 13.571428,6.25 0 1 1 -27.142857,0 13.571428,6.25 0 1 1 27.142857,0 z"
         transform="matrix(1.244106,0.19195082,-0.11518667,0.81913294,737.6548,62.886789)" />
    </clipPath>
    <clipPath
       clipPathUnits="userSpaceOnUse"
       id="clipPath3076">
      <path
         inkscape:connector-curvature="0"
         id="path3078"
         d="m 688.84234,82.568542 -8.90892,4.098282 -9.97328,19.969656 11.89358,5.32291 10.00889,-21.065457 z"
         style="fill:#4d4d4d;fill-opacity:1;stroke:none" />
    </clipPath>
    <clipPath
       clipPathUnits="userSpaceOnUse"
       id="clipPath3061">
      <g
         id="g3063">
        <path
           sodipodi:type="arc"
           style="color:#000000;fill:#4d4d4d;fill-opacity:1;fill-rule:nonzero;stroke:none;marker:none;visibility:visible;display:inline;overflow:visible;enable-background:accumulate"
           id="path3065"
           sodipodi:cx="32.142857"
           sodipodi:cy="180.71428"
           sodipodi:rx="6.4285712"
           sodipodi:ry="7.5"
           d="m 38.571428,180.71428 a 6.4285712,7.5 0 1 1 -12.857143,0 6.4285712,7.5 0 1 1 12.857143,0 z"
           transform="matrix(1.2575296,0,0,1.3172269,515.47248,30.26004)" />
        <path
           sodipodi:type="arc"
           style="color:#000000;fill:#4d4d4d;fill-opacity:1;fill-rule:nonzero;stroke:none;marker:none;visibility:visible;display:inline;overflow:visible;enable-background:accumulate"
           id="path3067"
           sodipodi:cx="32.142857"
           sodipodi:cy="180.71428"
           sodipodi:rx="6.4285712"
           sodipodi:ry="7.5"
           d="m 38.571428,180.71428 a 6.4285712,7.5 0 1 1 -12.857143,0 6.4285712,7.5 0 1 1 12.857143,0 z"
           transform="matrix(1.2575296,0,0,1.3172269,518.6163,29.31917)" />
        <path
           sodipodi:type="arc"
           style="color:#000000;fill:#4d4d4d;fill-opacity:1;fill-rule:nonzero;stroke:none;marker:none;visibility:visible;display:inline;overflow:visible;enable-background:accumulate"
           id="path3069"
           sodipodi:cx="32.142857"
           sodipodi:cy="180.71428"
           sodipodi:rx="6.4285712"
           sodipodi:ry="7.5"
           d="m 38.571428,180.71428 a 6.4285712,7.5 0 1 1 -12.857143,0 6.4285712,7.5 0 1 1 12.857143,0 z"
           transform="matrix(1.2575296,0,0,1.3172269,618.45517,47.007645)" />
        <path
           sodipodi:type="arc"
           style="color:#000000;fill:#4d4d4d;fill-opacity:1;fill-rule:nonzero;stroke:none;marker:none;visibility:visible;display:inline;overflow:visible;enable-background:accumulate"
           id="path3071"
           sodipodi:cx="32.142857"
           sodipodi:cy="180.71428"
           sodipodi:rx="6.4285712"
           sodipodi:ry="7.5"
           d="m 38.571428,180.71428 a 6.4285712,7.5 0 1 1 -12.857143,0 6.4285712,7.5 0 1 1 12.857143,0 z"
           transform="matrix(1.2575296,0,0,1.3172269,621.599,46.066775)" />
      </g>
    </clipPath>
    <clipPath
       clipPathUnits="userSpaceOnUse"
       id="clipPath3035">
      <g
         id="g3037">
        <path
           style="fill:#808080;fill-opacity:1;stroke:none"
           d="m 571.80088,94.290214 4.23237,-14.184616 c 0,0 5.44161,-14.184617 21.16183,-10.960838 15.72022,3.223775 15.72022,3.223775 15.72022,3.223775 z"
           id="path3039"
           inkscape:connector-curvature="0" />
        <path
           style="fill:#808080;fill-opacity:1;stroke:none"
           d="m 698.98147,114.02514 3.83734,-14.801194 c 0,0 3.28916,-10.963844 -10.96385,-13.704805 -14.25299,-2.740961 -21.92768,-3.289153 -21.92768,-3.289153 z"
           id="path3041"
           inkscape:connector-curvature="0" />
      </g>
    </clipPath>
    <clipPath
       clipPathUnits="userSpaceOnUse"
       id="clipPath3056">
      <g
         id="g3058">
        <rect
           style="color:#000000;fill:#cccccc;fill-opacity:1;fill-rule:nonzero;stroke:none;marker:none;visibility:visible;display:inline;overflow:visible;enable-background:accumulate"
           id="rect3060"
           width="3.8373456"
           height="84.969795"
           x="636.19049"
           y="-126.39048"
           rx="5.484386"
           ry="3.410974"
           transform="matrix(0.97715459,0.21252976,-0.21252976,0.97715459,0,0)" />
        <rect
           style="color:#000000;fill:#cccccc;fill-opacity:1;fill-rule:nonzero;stroke:none;marker:none;visibility:visible;display:inline;overflow:visible;enable-background:accumulate"
           id="rect3062"
           width="3.8373456"
           height="84.969795"
           x="695.66931"
           y="-125.56818"
           rx="5.484386"
           ry="3.410974"
           transform="matrix(0.97715459,0.21252976,-0.21252976,0.97715459,0,0)" />
      </g>
    </clipPath>
    <clipPath
       clipPathUnits="userSpaceOnUse"
       id="clipPath3139">
      <g
         id="g3141">
        <rect
           clip-path="none"
           rx="10.808165"
           ry="17.331581"
           transform="matrix(0.98634588,0.16468701,-0.27264631,0.96211433,0,0)"
           y="-8.8360214"
           x="600.94421"
           height="176.47658"
           width="127.18105"
           id="rect3143"
           style="color:#000000;fill:#666666;fill-opacity:1;fill-rule:nonzero;stroke:none;marker:none;visibility:visible;display:inline;overflow:visible;enable-background:accumulate" />
        <rect
           style="color:#000000;fill:#666666;fill-opacity:1;fill-rule:nonzero;stroke:none;marker:none;visibility:visible;display:inline;overflow:visible;enable-background:accumulate"
           id="rect3145"
           width="32.059956"
           height="20.429197"
           x="491.11072"
           y="-497.63272"
           transform="matrix(0.60992012,0.7924629,-0.79596199,0.6053466,0,0)" />
        <rect
           style="color:#000000;fill:#666666;fill-opacity:1;fill-rule:nonzero;stroke:none;marker:none;visibility:visible;display:inline;overflow:visible;enable-background:accumulate"
           id="rect3147"
           width="32.212074"
           height="20.333292"
           x="474.82855"
           y="-357.29144"
           transform="matrix(0.52110627,0.8534918,-0.85838651,0.51300351,0,0)" />
        <rect
           clip-path="none"
           rx="10.808165"
           ry="17.331581"
           transform="matrix(0.98634588,0.16468701,-0.27264631,0.96211433,0,0)"
           y="-28.891584"
           x="579.91028"
           height="176.47658"
           width="127.18106"
           id="rect3149"
           style="color:#000000;fill:#666666;fill-opacity:1;fill-rule:nonzero;stroke:none;marker:none;visibility:visible;display:inline;overflow:visible;enable-background:accumulate" />
      </g>
    </clipPath>
    <clipPath
       clipPathUnits="userSpaceOnUse"
       id="clipPath4050">
      <g
         id="g4052"
         transform="matrix(0.97108293,0,0,0.97108293,161.43735,1.5768565)">
        <path
           style="fill:#000000;fill-opacity:1;stroke:none;display:inline"
           d="m 279.28571,198.57143 c 0,0 4.28572,-46.42857 70.71429,-40 66.42857,6.42857 45,40.71428 45,40.71428 0,0 -7.85714,27.14286 -47.14286,37.14286 -39.28571,10 -60.76084,-4.48014 -65.71428,-15 C 276.76155,210 279.1371,198.57143 279.28571,198.57143 z"
           id="path4054"
           inkscape:connector-curvature="0"
           sodipodi:nodetypes="cscssc" />
        <path
           style="fill:#000000;fill-opacity:1;stroke:none;display:inline"
           d="m 552.7517,196.12368 c 0,0 -4.28572,-46.42857 -70.71429,-40 -66.42857,6.42857 -45,40.71428 -45,40.71428 0,0 7.85714,27.14286 47.14286,37.14286 39.28571,10 60.76084,-4.48014 65.71428,-15 5.38131,-11.42857 3.00576,-22.85714 2.85715,-22.85714 z"
           id="path4056"
           inkscape:connector-curvature="0"
           sodipodi:nodetypes="cscssc" />
      </g>
    </clipPath>
    <clipPath
       clipPathUnits="userSpaceOnUse"
       id="clipPath4060">
      <g
         id="g4062"
         transform="matrix(0.97108293,0,0,0.97108293,161.43735,1.5768565)">
        <path
           inkscape:connector-curvature="0"
           id="path4064"
           d="m 284.61049,185.09515 -11.61676,-2.02031 2.02031,15.65737 8.5863,-3.03046 z"
           style="fill:#b3b3b3;fill-opacity:1;stroke:none" />
        <path
           inkscape:connector-curvature="0"
           id="path4066"
           d="m 547.75522,183.07485 11.61676,-2.02031 -2.02031,15.65737 -8.5863,-3.03046 z"
           style="fill:#b3b3b3;fill-opacity:1;stroke:none" />
      </g>
    </clipPath>
    <clipPath
       clipPathUnits="userSpaceOnUse"
       id="clipPath4070">
      <path
         style="fill:#808080;fill-opacity:1;stroke:none;display:inline"
         d="m 534.19836,171.84861 0,11.79172 c 0,0 11.09808,-3.46816 29.82611,-3.46816 18.72803,0 31.90702,3.12135 31.90702,3.12135 l 0.1734,-10.92468 c 0,0 -14.04602,1.38725 -32.08042,1.38725 -18.0344,0 -29.82611,-1.90748 -29.82611,-1.90748 z"
         id="path4072"
         inkscape:connector-curvature="0"
         sodipodi:nodetypes="ccsccsc" />
    </clipPath>
    <clipPath
       clipPathUnits="userSpaceOnUse"
       id="clipPath4076">
      <g
         id="g4078"
         transform="matrix(0.97108293,0,0,0.97108293,161.43735,1.5768565)">
        <path
           sodipodi:nodetypes="ccsccscsc"
           inkscape:connector-curvature="0"
           id="path4080"
           d="M 555.94466,184.00106 670.09189,78.945192 c 0,0 13.63706,-14.647212 43.94164,-6.060915 30.30458,8.586296 -1.51523,7.071067 -1.51523,7.071067 L 695.34571,77.93504 c 0,0 -9.72275,-0.155268 -15.65736,1.515228 -13.80743,3.886565 -88.21298,93.129452 -119.70528,113.555892 -5.45995,3.24737 -8.99958,-0.97707 -9.21121,-4.12542 -0.17788,-2.64623 4.68858,-1.16736 5.1728,-4.87968 z"
           style="fill:#4d4d4d;fill-opacity:1;stroke:none" />
        <path
           sodipodi:nodetypes="ccsccscsc"
           inkscape:connector-curvature="0"
           id="path4082"
           d="M 279.94475,182.06612 394.09198,77.010254 c 0,0 13.63706,-14.647212 43.94164,-6.060915 30.30458,8.586296 -1.51523,7.071067 -1.51523,7.071067 L 419.3458,76.000102 c 0,0 -9.72275,-0.155268 -15.65736,1.515228 -13.80743,3.886565 -88.21298,93.12945 -119.70528,113.55589 -5.45995,3.24737 -8.99958,-0.97707 -9.21121,-4.12542 -0.17788,-2.64623 4.68858,-1.16736 5.1728,-4.87968 z"
           style="fill:#4d4d4d;fill-opacity:1;stroke:none" />
      </g>
    </clipPath>
    <clipPath
       clipPathUnits="userSpaceOnUse"
       id="clipPath3028">
      <path
         transform="translate(-394.96965,-19.192897)"
         d="m 783.87835,164.13448 a 85.862968,58.083771 0 1 1 -171.72594,0 85.862968,58.083771 0 1 1 171.72594,0 z"
         sodipodi:ry="58.083771"
         sodipodi:rx="85.862968"
         sodipodi:cy="164.13448"
         sodipodi:cx="698.01538"
         id="path3030"
         style="fill:#bdc3c7;fill-opacity:1;stroke:none"
         sodipodi:type="arc" />
    </clipPath>
    <clipPath
       clipPathUnits="userSpaceOnUse"
       id="clipPath3944">
      <g
         transform="translate(0,5e-6)"
         id="g3946">
        <path
           sodipodi:nodetypes="csccscc"
           inkscape:connector-curvature="0"
           id="path3948"
           d="m 653.40555,96.298585 c 0,0 -28.40555,23.701415 -38.40555,50.844275 -10,27.14286 -10.71428,51.42857 -10.71428,51.42857 l 27.06363,-7.30874 c 0,0 1.69595,-30.44946 13.05891,-54.32904 14.24696,-29.94038 19.56672,-34.38724 19.56672,-34.38724 z"
           style="fill:#666666;fill-opacity:1;stroke:none" />
        <path
           sodipodi:nodetypes="csccscc"
           inkscape:connector-curvature="0"
           id="path3950"
           d="m 857.85715,114.28571 c 0,0 11.42857,26.42858 10,45 -1.42858,18.57143 -5,50 -5,50 L 892.14286,220 c 0,0 2.67857,-27.67857 -2.32143,-59.10715 -5,-31.42857 -21.96428,-47.32142 -21.96428,-47.32142 z"
           style="fill:#666666;fill-opacity:1;stroke:none" />
      </g>
    </clipPath>
    <clipPath
       clipPathUnits="userSpaceOnUse"
       id="clipPath3954">
      <path
         style="fill:#808080;fill-opacity:1;stroke:none;display:inline"
         d="m 636.3961,179.79185 68.69037,8.08122 c 0,0 1e-5,-66.67007 58.58885,-62.62946 58.58885,4.04061 43.43656,68.69038 43.43656,68.69038 l 53.53809,8.08122 c 0,0 31.09484,-129.308251 -88.89343,-143.441666 C 653.06252,44.59258 636.3961,179.79185 636.3961,179.79185 z"
         id="path3956"
         inkscape:connector-curvature="0"
         sodipodi:nodetypes="ccsccsc" />
    </clipPath>
    <clipPath
       clipPathUnits="userSpaceOnUse"
       id="clipPath3978">
      <g
         id="g3980">
        <path
           inkscape:connector-curvature="0"
           id="path3982"
           d="m 637.40626,185.89337 -11.11168,58.58885 10.10153,1.01015 8.08122,-59.599 z"
           style="fill:#cccccc;fill-opacity:1;stroke:none" />
        <path
           inkscape:connector-curvature="0"
           id="path3984"
           d="m 652.55855,186.90352 -10.10153,58.58885 10.10153,0 7.07106,-58.58885 z"
           style="fill:#cccccc;fill-opacity:1;stroke:none" />
        <path
           inkscape:connector-curvature="0"
           id="path3986"
           d="m 666.70068,187.91368 -9.09137,59.599 7.07107,0 7.07106,-58.58885 z"
           style="fill:#cccccc;fill-opacity:1;stroke:none" />
        <path
           inkscape:connector-curvature="0"
           id="path3988"
           d="m 678.82251,189.93398 -8.08122,53.53809 9.09137,1.01015 6.06092,-52.52793 z"
           style="fill:#cccccc;fill-opacity:1;stroke:none" />
        <path
           inkscape:connector-curvature="0"
           id="path3990"
           d="m 691.9545,190.94413 -7.07107,56.56855 9.09137,-1.01015 4.04061,-54.54824 z"
           style="fill:#cccccc;fill-opacity:1;stroke:none" />
        <path
           inkscape:connector-curvature="0"
           id="path3992"
           d="m 805.09158,198.0152 -13.13198,57.5787 8.08122,0 10.10152,-55.55839 z"
           style="fill:#cccccc;fill-opacity:1;stroke:none" />
        <path
           inkscape:connector-curvature="0"
           id="path3994"
           d="m 816.20326,199.02536 -11.11168,57.57869 7.07107,1.01015 10.10152,-56.56854 z"
           style="fill:#cccccc;fill-opacity:1;stroke:none" />
        <path
           inkscape:connector-curvature="0"
           id="path3996"
           d="m 827.31494,200.03551 -9.09138,56.56854 9.09138,0 5.05076,-53.53808 z"
           style="fill:#cccccc;fill-opacity:1;stroke:none" />
        <path
           inkscape:connector-curvature="0"
           id="path3998"
           d="m 838.42662,202.05581 -7.07107,58.58885 8.08122,0 6.06091,-54.54824 z"
           style="fill:#cccccc;fill-opacity:1;stroke:none" />
        <path
           inkscape:connector-curvature="0"
           id="path4000"
           d="m 850.54845,204.07612 -5.05077,52.52793 7.07107,1.01015 4.04061,-52.52793 z"
           style="fill:#cccccc;fill-opacity:1;stroke:none" />
      </g>
    </clipPath>
    <clipPath
       clipPathUnits="userSpaceOnUse"
       id="clipPath4004">
      <path
         sodipodi:type="arc"
         style="fill:#cccccc;fill-opacity:1;stroke:none"
         id="path4006"
         sodipodi:cx="737.41138"
         sodipodi:cy="130.79945"
         sodipodi:rx="13.131983"
         sodipodi:ry="13.637059"
         d="m 750.54336,130.79945 a 13.131983,13.637059 0 1 1 -26.26397,0 13.131983,13.637059 0 1 1 26.26397,0 z"
         transform="translate(-31.314729,21.213204)" />
    </clipPath>
    <clipPath
       clipPathUnits="userSpaceOnUse"
       id="clipPath4010">
      <path
         sodipodi:type="arc"
         style="fill:#cccccc;fill-opacity:1;stroke:none"
         id="path4012"
         sodipodi:cx="770.7464"
         sodipodi:cy="117.16239"
         sodipodi:rx="13.131983"
         sodipodi:ry="13.131983"
         d="m 783.87838,117.16239 a 13.131983,13.131983 0 1 1 -26.26396,0 13.131983,13.131983 0 1 1 26.26396,0 z"
         transform="translate(-44.446712,7.0710679)" />
    </clipPath>
    <clipPath
       clipPathUnits="userSpaceOnUse"
       id="clipPath4016">
      <path
         sodipodi:type="arc"
         style="fill:#cccccc;fill-opacity:1;stroke:none"
         id="path4018"
         sodipodi:cx="801.55603"
         sodipodi:cy="129.78929"
         sodipodi:rx="12.626906"
         sodipodi:ry="12.626906"
         d="m 814.18294,129.78929 a 12.626906,12.626906 0 1 1 -25.25382,0 12.626906,12.626906 0 1 1 25.25382,0 z"
         transform="translate(-39.395949,-14.142136)" />
    </clipPath>
    <clipPath
       clipPathUnits="userSpaceOnUse"
       id="clipPath4024">
      <path
         sodipodi:type="arc"
         style="fill:#cccccc;fill-opacity:1;stroke:none"
         id="path4026"
         sodipodi:cx="815.19312"
         sodipodi:cy="158.57864"
         sodipodi:rx="12.121831"
         sodipodi:ry="12.121831"
         d="m 827.31495,158.57864 a 12.121831,12.121831 0 1 1 -24.24367,0 12.121831,12.121831 0 1 1 24.24367,0 z"
         transform="translate(-1.0101525,-3.0304576)" />
    </clipPath>
    <clipPath
       clipPathUnits="userSpaceOnUse"
       id="clipPath4032">
      <path
         sodipodi:type="arc"
         style="fill:#cccccc;fill-opacity:1;stroke:none"
         id="path4034"
         sodipodi:cx="930.85559"
         sodipodi:cy="121.70808"
         sodipodi:rx="12.626906"
         sodipodi:ry="12.626906"
         d="m 943.4825,121.70808 a 12.626906,12.626906 0 1 1 -25.25382,0 12.626906,12.626906 0 1 1 25.25382,0 z"
         transform="translate(-135.36044,7.0710678)" />
    </clipPath>
    <clipPath
       clipPathUnits="userSpaceOnUse"
       id="clipPath4038">
      <path
         sodipodi:type="arc"
         style="fill:#999999;fill-opacity:1;stroke:none"
         id="path4040"
         sodipodi:cx="771.75653"
         sodipodi:cy="179.79184"
         sodipodi:rx="7.0710678"
         sodipodi:ry="7.0710678"
         d="m 778.8276,179.79184 a 7.0710678,7.0710678 0 1 1 -14.14214,0 7.0710678,7.0710678 0 1 1 14.14214,0 z"
         transform="translate(-10.101528,-65.659916)" />
    </clipPath>
    <clipPath
       clipPathUnits="userSpaceOnUse"
       id="clipPath4044">
      <path
         sodipodi:type="arc"
         style="fill:#999999;fill-opacity:1;stroke:none"
         id="path4046"
         sodipodi:cx="751.55347"
         sodipodi:cy="173.73093"
         sodipodi:rx="7.0710678"
         sodipodi:ry="7.0710678"
         d="m 758.62453,173.73093 a 7.0710678,7.0710678 0 1 1 -14.14213,0 7.0710678,7.0710678 0 1 1 14.14213,0 z"
         transform="translate(-45.456865,-21.213203)" />
    </clipPath>
    <clipPath
       clipPathUnits="userSpaceOnUse"
       id="clipPath4051">
      <path
         sodipodi:type="arc"
         style="fill:#999999;fill-opacity:1;stroke:none"
         id="path4053"
         sodipodi:cx="943.48248"
         sodipodi:cy="142.4162"
         sodipodi:rx="8.0812206"
         sodipodi:ry="8.0812206"
         d="m 951.5637,142.4162 a 8.0812206,8.0812206 0 1 1 -16.16244,0 8.0812206,8.0812206 0 1 1 16.16244,0 z"
         transform="translate(-148.49242,-15.152288)" />
    </clipPath>
    <clipPath
       clipPathUnits="userSpaceOnUse"
       id="clipPath4057">
      <path
         sodipodi:type="arc"
         style="fill:#999999;fill-opacity:1;stroke:none"
         id="path4059"
         sodipodi:cx="760.13977"
         sodipodi:cy="170.1954"
         sodipodi:rx="7.5761442"
         sodipodi:ry="7.5761442"
         d="m 767.71591,170.1954 a 7.5761442,7.5761442 0 1 1 -15.15228,0 7.5761442,7.5761442 0 1 1 15.15228,0 z"
         transform="translate(-34.345188,-45.456866)" />
    </clipPath>
    <clipPath
       clipPathUnits="userSpaceOnUse"
       id="clipPath4063">
      <path
         sodipodi:type="arc"
         style="fill:#999999;fill-opacity:1;stroke:none"
         id="path4065"
         sodipodi:cx="933.38098"
         sodipodi:cy="131.30452"
         sodipodi:rx="7.0710678"
         sodipodi:ry="7.0710678"
         d="m 940.45205,131.30452 a 7.0710678,7.0710678 0 1 1 -14.14214,0 7.0710678,7.0710678 0 1 1 14.14214,0 z"
         transform="translate(-120.20815,24.243661)" />
    </clipPath>
    <clipPath
       clipPathUnits="userSpaceOnUse"
       id="clipPath3094">
      <path
         sodipodi:nodetypes="ccsccsc"
         inkscape:connector-curvature="0"
         id="path3096"
         d="m 656.59916,91.908577 10.93836,7.071068 c 0,0 32.20507,-48.232024 99.41336,-43.314008 66.45845,4.863146 88.10736,55.435833 88.10736,55.435833 l 11.65265,0 c 0,0 -11.99568,-60.018799 -96.14833,-65.364044 -80.47332,-5.11154 -113.9634,46.171151 -113.9634,46.171151 z"
         style="fill:#808080;fill-opacity:1;stroke:none" />
    </clipPath>
    <clipPath
       clipPathUnits="userSpaceOnUse"
       id="clipPath4063-3">
      <path
         sodipodi:type="arc"
         style="fill:#999999;fill-opacity:1;stroke:none"
         id="path4065-2"
         sodipodi:cx="933.38098"
         sodipodi:cy="131.30452"
         sodipodi:rx="7.0710678"
         sodipodi:ry="7.0710678"
         d="m 940.45205,131.30452 a 7.0710678,7.0710678 0 1 1 -14.14214,0 7.0710678,7.0710678 0 1 1 14.14214,0 z"
         transform="translate(-120.20815,24.243661)" />
    </clipPath>
  </defs>
  <sodipodi:namedview
     id="base"
     pagecolor="#ffffff"
     bordercolor="#666666"
     borderopacity="1.0"
     inkscape:pageopacity="0.0"
     inkscape:pageshadow="2"
     inkscape:zoom="1.4"
     inkscape:cx="756.12722"
     inkscape:cy="217.18741"
     inkscape:document-units="px"
     inkscape:current-layer="layer12"
     showgrid="false"
     inkscape:window-width="1360"
     inkscape:window-height="744"
     inkscape:window-x="0"
     inkscape:window-y="24"
     inkscape:window-maximized="1" />
  <metadata
     id="metadata7">
    <rdf:RDF>
      <cc:Work
         rdf:about="">
        <dc:format>image/svg+xml</dc:format>
        <dc:type
           rdf:resource="http://purl.org/dc/dcmitype/StillImage" />
        <dc:title />
      </cc:Work>
    </rdf:RDF>
  </metadata>
  <g
     inkscape:groupmode="layer"
     id="layer1"
     inkscape:label="body">
    <rect
       style="fill:#ecf0f1;fill-opacity:1;stroke:none"
       id="rect3952"
       width="393.9595"
       height="280.82242"
       x="574.77679"
       y="-5.0660696"
       rx="50.35714"
       ry="32.674694"
       clip-path="url(#clipPath3954)" />
  </g>
  <g
     inkscape:groupmode="layer"
     id="layer4"
     inkscape:label="tassels"
     style="display:inline">
    <rect
       style="fill:#9b59b6;fill-opacity:1;stroke:none"
       id="rect3976"
       width="393.9595"
       height="175.76654"
       x="575.78693"
       y="162.61925"
       rx="50.35714"
       ry="32.674694"
       clip-path="url(#clipPath3978)" />
  </g>
  <g
     inkscape:groupmode="layer"
     id="layer2"
     inkscape:label="flower-1-outer">
    <rect
       style="fill:#2ecc71;fill-opacity:1;stroke:none"
       id="rect4002"
       width="105.05586"
       height="81.569817"
       x="664.17529"
       y="117.66747"
       rx="50.35714"
       ry="32.674694"
       clip-path="url(#clipPath4004)" />
  </g>
  <g
     inkscape:groupmode="layer"
     id="layer3"
     inkscape:label="flower-2-outer">
    <rect
       style="fill:#3498db;fill-opacity:1;stroke:none"
       id="rect4008"
       width="126.26907"
       height="91.418808"
       x="684.12579"
       y="91.150963"
       rx="50.35714"
       ry="32.674694"
       clip-path="url(#clipPath4010)" />
  </g>
  <g
     inkscape:groupmode="layer"
     id="layer5"
     inkscape:label="flower-3-outer">
    <rect
       style="fill:#f39c12;fill-opacity:1;stroke:none"
       id="rect4014"
       width="84.600273"
       height="82.327431"
       x="733.62329"
       y="92.16111"
       rx="50.35714"
       ry="32.674694"
       clip-path="url(#clipPath4016)" />
  </g>
  <g
     inkscape:groupmode="layer"
     id="layer9"
     inkscape:label="flower-4-outer">
    <rect
       style="fill:#27ae60;fill-opacity:1;stroke:none"
       id="rect4030"
       width="88.640884"
       height="101.01525"
       x="751.30096"
       y="97.211876"
       rx="50.35714"
       ry="32.674694"
       clip-path="url(#clipPath4032)" />
  </g>
  <g
     inkscape:groupmode="layer"
     id="layer10"
     inkscape:label="flower-5-outer">
    <rect
       style="fill:#d35400;fill-opacity:1;stroke:none"
       id="rect4022"
       width="79.802048"
       height="82.579971"
       x="770.49384"
       y="125.74869"
       rx="50.35714"
       ry="32.674694"
       clip-path="url(#clipPath4024)" />
  </g>
  <g
     inkscape:groupmode="layer"
     id="layer6"
     inkscape:label="flower-1-inner">
    <rect
       style="fill:#abecc7;fill-opacity:1;stroke:none"
       id="rect4042"
       width="76.519058"
       height="69.953064"
       x="680.59027"
       y="125.74869"
       rx="50.35714"
       ry="32.674694"
       clip-path="url(#clipPath4044)" />
  </g>
  <g
     inkscape:groupmode="layer"
     id="layer7"
     inkscape:label="flower-2-inner">
    <rect
       style="fill:#77bae7;fill-opacity:1;stroke:none"
       id="rect4055"
       width="100.76272"
       height="84.852814"
       x="683.87329"
       y="103.02026"
       rx="50.35714"
       ry="32.674694"
       clip-path="url(#clipPath4057)" />
  </g>
  <g
     inkscape:groupmode="layer"
     id="layer8"
     inkscape:label="flower-3-inner">
    <rect
       style="fill:#f9e491;fill-opacity:1;stroke:none"
       id="rect4036"
       width="87.378197"
       height="81.317284"
       x="728.06744"
       y="91.908577"
       rx="50.35714"
       ry="32.674694"
       clip-path="url(#clipPath4038)" />
  </g>
  <g
     inkscape:groupmode="layer"
     id="layer11"
     inkscape:label="flower-4-inner">
    <rect
       style="fill:#7be1a6;fill-opacity:1;stroke:none"
       id="rect4048"
       width="85.862968"
       height="71.215752"
       x="758.87708"
       y="103.52533"
       rx="50.35714"
       ry="32.674694"
       clip-path="url(#clipPath4051)" />
  </g>
  <g
     inkscape:groupmode="layer"
     id="layer12"
     inkscape:label="flower-5-inner">
    <rect
       transform="translate(-3.6352538e-6,-2.8432617e-6)"
       style="fill:#f08c82;fill-opacity:1;stroke:none"
       id="rect4061"
       width="79.802048"
       height="69.19545"
       x="767.96851"
       y="130.79945"
       rx="50.35714"
       ry="32.674694"
       clip-path="url(#clipPath4063-3)" />
  </g>
  <g
     inkscape:groupmode="layer"
     id="layer14"
     inkscape:label="top">
    <rect
       style="fill:#f1c40f;fill-opacity:1;stroke:none"
       id="rect3958"
       width="332.34018"
       height="180.81731"
       x="606.09155"
       y="-16.177748"
       rx="50.35714"
       ry="32.674694"
       clip-path="url(#clipPath3094)" />
  </g>
  <g
     inkscape:groupmode="layer"
     id="layer13"
     inkscape:label="sides">
    <rect
       style="fill:#e74c3c;fill-opacity:1;stroke:none"
       id="rect3942"
       width="437.14285"
       height="217.14285"
       x="541.42859"
       y="51.42857"
       rx="50.35714"
       ry="32.674694"
       clip-path="url(#clipPath3944)" />
  </g>
</svg>
