<?xml version="1.0" encoding="UTF-8" standalone="no"?>
<!-- Created with Inkscape (http://www.inkscape.org/) -->

<svg
   xmlns:dc="http://purl.org/dc/elements/1.1/"
   xmlns:cc="http://creativecommons.org/ns#"
   xmlns:rdf="http://www.w3.org/1999/02/22-rdf-syntax-ns#"
   xmlns:svg="http://www.w3.org/2000/svg"
   xmlns="http://www.w3.org/2000/svg"
   xmlns:sodipodi="http://sodipodi.sourceforge.net/DTD/sodipodi-0.dtd"
   xmlns:inkscape="http://www.inkscape.org/namespaces/inkscape"
   width="1200"
   height="300"
   id="svg2"
   version="1.1"
   inkscape:version="0.48.4 r9939"
   sodipodi:docname="glasses.svg">
  <defs
     id="defs4">
    <clipPath
       clipPathUnits="userSpaceOnUse"
       id="clipPath3045">
      <rect
         style="color:#000000;fill:#4d4d4d;fill-opacity:1;fill-rule:nonzero;stroke:none;marker:none;visibility:visible;display:inline;overflow:visible;enable-background:accumulate"
         id="rect3047"
         width="87.162567"
         height="8.2228842"
         x="624.82947"
         y="-129.64398"
         rx="5.484386"
         ry="3.410974"
         transform="matrix(0.97715459,0.21252976,-0.21252976,0.97715459,0,0)" />
    </clipPath>
    <clipPath
       clipPathUnits="userSpaceOnUse"
       id="clipPath3025">
      <rect
         clip-path="none"
         rx="10.808165"
         ry="17.331581"
         transform="matrix(0.98634588,0.16468701,-0.27264631,0.96211433,0,0)"
         y="-28.89159"
         x="579.91028"
         height="176.47658"
         width="127.18106"
         id="rect3028"
         style="color:#000000;fill:#1a1a1a;fill-opacity:1;fill-rule:nonzero;stroke:none;marker:none;visibility:visible;display:inline;overflow:visible;enable-background:accumulate" />
    </clipPath>
    <clipPath
       clipPathUnits="userSpaceOnUse"
       id="clipPath3055">
      <path
         sodipodi:type="arc"
         style="color:#000000;fill:#999999;fill-opacity:1;fill-rule:nonzero;stroke:none;marker:none;visibility:visible;display:inline;overflow:visible;enable-background:accumulate"
         id="path3057"
         sodipodi:cx="-79.64286"
         sodipodi:cy="79.10714"
         sodipodi:rx="13.571428"
         sodipodi:ry="6.25"
         d="m -66.071432,79.10714 a 13.571428,6.25 0 1 1 -27.142857,0 13.571428,6.25 0 1 1 27.142857,0 z"
         transform="matrix(1.244106,0.19195082,-0.11518667,0.81913294,737.6548,62.886789)" />
    </clipPath>
    <clipPath
       clipPathUnits="userSpaceOnUse"
       id="clipPath3076">
      <path
         inkscape:connector-curvature="0"
         id="path3078"
         d="m 688.84234,82.568542 -8.90892,4.098282 -9.97328,19.969656 11.89358,5.32291 10.00889,-21.065457 z"
         style="fill:#4d4d4d;fill-opacity:1;stroke:none" />
    </clipPath>
    <clipPath
       clipPathUnits="userSpaceOnUse"
       id="clipPath3061">
      <g
         id="g3063">
        <path
           sodipodi:type="arc"
           style="color:#000000;fill:#4d4d4d;fill-opacity:1;fill-rule:nonzero;stroke:none;marker:none;visibility:visible;display:inline;overflow:visible;enable-background:accumulate"
           id="path3065"
           sodipodi:cx="32.142857"
           sodipodi:cy="180.71428"
           sodipodi:rx="6.4285712"
           sodipodi:ry="7.5"
           d="m 38.571428,180.71428 a 6.4285712,7.5 0 1 1 -12.857143,0 6.4285712,7.5 0 1 1 12.857143,0 z"
           transform="matrix(1.2575296,0,0,1.3172269,515.47248,30.26004)" />
        <path
           sodipodi:type="arc"
           style="color:#000000;fill:#4d4d4d;fill-opacity:1;fill-rule:nonzero;stroke:none;marker:none;visibility:visible;display:inline;overflow:visible;enable-background:accumulate"
           id="path3067"
           sodipodi:cx="32.142857"
           sodipodi:cy="180.71428"
           sodipodi:rx="6.4285712"
           sodipodi:ry="7.5"
           d="m 38.571428,180.71428 a 6.4285712,7.5 0 1 1 -12.857143,0 6.4285712,7.5 0 1 1 12.857143,0 z"
           transform="matrix(1.2575296,0,0,1.3172269,518.6163,29.31917)" />
        <path
           sodipodi:type="arc"
           style="color:#000000;fill:#4d4d4d;fill-opacity:1;fill-rule:nonzero;stroke:none;marker:none;visibility:visible;display:inline;overflow:visible;enable-background:accumulate"
           id="path3069"
           sodipodi:cx="32.142857"
           sodipodi:cy="180.71428"
           sodipodi:rx="6.4285712"
           sodipodi:ry="7.5"
           d="m 38.571428,180.71428 a 6.4285712,7.5 0 1 1 -12.857143,0 6.4285712,7.5 0 1 1 12.857143,0 z"
           transform="matrix(1.2575296,0,0,1.3172269,618.45517,47.007645)" />
        <path
           sodipodi:type="arc"
           style="color:#000000;fill:#4d4d4d;fill-opacity:1;fill-rule:nonzero;stroke:none;marker:none;visibility:visible;display:inline;overflow:visible;enable-background:accumulate"
           id="path3071"
           sodipodi:cx="32.142857"
           sodipodi:cy="180.71428"
           sodipodi:rx="6.4285712"
           sodipodi:ry="7.5"
           d="m 38.571428,180.71428 a 6.4285712,7.5 0 1 1 -12.857143,0 6.4285712,7.5 0 1 1 12.857143,0 z"
           transform="matrix(1.2575296,0,0,1.3172269,621.599,46.066775)" />
      </g>
    </clipPath>
    <clipPath
       clipPathUnits="userSpaceOnUse"
       id="clipPath3035">
      <g
         id="g3037">
        <path
           style="fill:#808080;fill-opacity:1;stroke:none"
           d="m 571.80088,94.290214 4.23237,-14.184616 c 0,0 5.44161,-14.184617 21.16183,-10.960838 15.72022,3.223775 15.72022,3.223775 15.72022,3.223775 z"
           id="path3039"
           inkscape:connector-curvature="0" />
        <path
           style="fill:#808080;fill-opacity:1;stroke:none"
           d="m 698.98147,114.02514 3.83734,-14.801194 c 0,0 3.28916,-10.963844 -10.96385,-13.704805 -14.25299,-2.740961 -21.92768,-3.289153 -21.92768,-3.289153 z"
           id="path3041"
           inkscape:connector-curvature="0" />
      </g>
    </clipPath>
    <clipPath
       clipPathUnits="userSpaceOnUse"
       id="clipPath3056">
      <g
         id="g3058">
        <rect
           style="color:#000000;fill:#cccccc;fill-opacity:1;fill-rule:nonzero;stroke:none;marker:none;visibility:visible;display:inline;overflow:visible;enable-background:accumulate"
           id="rect3060"
           width="3.8373456"
           height="84.969795"
           x="636.19049"
           y="-126.39048"
           rx="5.484386"
           ry="3.410974"
           transform="matrix(0.97715459,0.21252976,-0.21252976,0.97715459,0,0)" />
        <rect
           style="color:#000000;fill:#cccccc;fill-opacity:1;fill-rule:nonzero;stroke:none;marker:none;visibility:visible;display:inline;overflow:visible;enable-background:accumulate"
           id="rect3062"
           width="3.8373456"
           height="84.969795"
           x="695.66931"
           y="-125.56818"
           rx="5.484386"
           ry="3.410974"
           transform="matrix(0.97715459,0.21252976,-0.21252976,0.97715459,0,0)" />
      </g>
    </clipPath>
    <clipPath
       clipPathUnits="userSpaceOnUse"
       id="clipPath3139">
      <g
         id="g3141">
        <rect
           clip-path="none"
           rx="10.808165"
           ry="17.331581"
           transform="matrix(0.98634588,0.16468701,-0.27264631,0.96211433,0,0)"
           y="-8.8360214"
           x="600.94421"
           height="176.47658"
           width="127.18105"
           id="rect3143"
           style="color:#000000;fill:#666666;fill-opacity:1;fill-rule:nonzero;stroke:none;marker:none;visibility:visible;display:inline;overflow:visible;enable-background:accumulate" />
        <rect
           style="color:#000000;fill:#666666;fill-opacity:1;fill-rule:nonzero;stroke:none;marker:none;visibility:visible;display:inline;overflow:visible;enable-background:accumulate"
           id="rect3145"
           width="32.059956"
           height="20.429197"
           x="491.11072"
           y="-497.63272"
           transform="matrix(0.60992012,0.7924629,-0.79596199,0.6053466,0,0)" />
        <rect
           style="color:#000000;fill:#666666;fill-opacity:1;fill-rule:nonzero;stroke:none;marker:none;visibility:visible;display:inline;overflow:visible;enable-background:accumulate"
           id="rect3147"
           width="32.212074"
           height="20.333292"
           x="474.82855"
           y="-357.29144"
           transform="matrix(0.52110627,0.8534918,-0.85838651,0.51300351,0,0)" />
        <rect
           clip-path="none"
           rx="10.808165"
           ry="17.331581"
           transform="matrix(0.98634588,0.16468701,-0.27264631,0.96211433,0,0)"
           y="-28.891584"
           x="579.91028"
           height="176.47658"
           width="127.18106"
           id="rect3149"
           style="color:#000000;fill:#666666;fill-opacity:1;fill-rule:nonzero;stroke:none;marker:none;visibility:visible;display:inline;overflow:visible;enable-background:accumulate" />
      </g>
    </clipPath>
    <clipPath
       clipPathUnits="userSpaceOnUse"
       id="clipPath3983">
      <g
         id="g3985">
        <path
           style="fill:#000000;fill-opacity:1;stroke:none;display:inline"
           d="m 291.80176,242.19439 c 0,0 2.13397,-23.1179 35.21034,-19.91696 33.07638,3.20094 22.40658,20.27262 22.40658,20.27262 0,0 -3.91226,13.51508 -23.47356,18.49432 -19.56129,4.97924 -30.25428,-2.23077 -32.72071,-7.46886 -2.67949,-5.69056 -1.49664,-11.38112 -1.42265,-11.38112 z"
           id="path3987"
           inkscape:connector-curvature="0"
           sodipodi:nodetypes="cscssc" />
        <path
           style="fill:#000000;fill-opacity:1;stroke:none;display:inline"
           d="m 427.96703,240.9756 c 0,0 -2.13396,-23.1179 -35.21034,-19.91696 -33.07637,3.20094 -22.40658,20.27261 -22.40658,20.27261 0,0 3.91226,13.51508 23.47356,18.49432 19.5613,4.97924 30.25428,-2.23076 32.72072,-7.46886 2.67948,-5.69055 1.49664,-11.38111 1.42264,-11.38111 z"
           id="path3989"
           inkscape:connector-curvature="0"
           sodipodi:nodetypes="cscssc" />
      </g>
    </clipPath>
    <clipPath
       clipPathUnits="userSpaceOnUse"
       id="clipPath4002">
      <g
         id="g4004">
        <path
           style="fill:#b3b3b3;fill-opacity:1;stroke:none"
           d="m 294.4531,235.48423 -5.78426,-1.00596 1.00596,7.79618 4.27532,-1.50894 z"
           id="path4006"
           inkscape:connector-curvature="0" />
        <path
           style="fill:#b3b3b3;fill-opacity:1;stroke:none"
           d="m 425.47916,234.47827 5.78427,-1.00596 -1.00596,7.79618 -4.27533,-1.50894 z"
           id="path4008"
           inkscape:connector-curvature="0" />
      </g>
    </clipPath>
    <clipPath
       clipPathUnits="userSpaceOnUse"
       id="clipPath4013">
      <path
         sodipodi:nodetypes="ccsccsc"
         inkscape:connector-curvature="0"
         id="path4015"
         d="m 343.87238,230.62796 0,6.04622 c 0,0 5.69055,-1.7783 15.29337,-1.7783 9.60282,0 16.36036,1.60047 16.36036,1.60047 l 0.0889,-5.60164 c 0,0 -7.20211,0.71132 -16.44927,0.71132 -9.24716,0 -15.29337,-0.97807 -15.29337,-0.97807 z"
         style="fill:#808080;fill-opacity:1;stroke:none;display:inline" />
    </clipPath>
    <clipPath
       clipPathUnits="userSpaceOnUse"
       id="clipPath4044">
      <g
         id="g4046">
        <path
           style="fill:#4d4d4d;fill-opacity:1;stroke:none"
           d="m 429.55688,234.93945 56.83664,-52.30983 c 0,0 6.79022,-7.2932 21.8796,-3.01787 15.08937,4.27532 -0.75447,3.52085 -0.75447,3.52085 l -8.55065,-1.00596 c 0,0 -4.84119,-0.0773 -7.79617,0.75447 -6.87505,1.93522 -43.92336,46.37139 -59.60413,56.5422 -2.71864,1.61694 -4.4811,-0.48651 -4.58648,-2.05415 -0.0886,-1.31762 2.33456,-0.58125 2.57566,-2.42971 z"
           id="path4048"
           inkscape:connector-curvature="0"
           sodipodi:nodetypes="ccsccscsc" />
        <path
           style="fill:#4d4d4d;fill-opacity:1;stroke:none"
           d="m 292.12992,233.976 56.83664,-52.30983 c 0,0 6.79021,-7.2932 21.87959,-3.01787 15.08938,4.27532 -0.75447,3.52085 -0.75447,3.52085 l -8.55064,-1.00596 c 0,0 -4.84119,-0.0773 -7.79618,0.75447 -6.87505,1.93521 -43.92335,46.37138 -59.60412,56.5422 -2.71864,1.61694 -4.48111,-0.48651 -4.58649,-2.05415 -0.0886,-1.31762 2.33456,-0.58126 2.57567,-2.42971 z"
           id="path4050"
           inkscape:connector-curvature="0"
           sodipodi:nodetypes="ccsccscsc" />
      </g>
    </clipPath>
  </defs>
  <sodipodi:namedview
     id="base"
     pagecolor="#ffffff"
     bordercolor="#666666"
     borderopacity="1.0"
     inkscape:pageopacity="0.0"
     inkscape:pageshadow="2"
     inkscape:zoom="2.8"
     inkscape:cx="399.89789"
     inkscape:cy="101.34319"
     inkscape:document-units="px"
     inkscape:current-layer="layer4"
     showgrid="false"
     inkscape:window-width="1360"
     inkscape:window-height="744"
     inkscape:window-x="0"
     inkscape:window-y="24"
     inkscape:window-maximized="1" />
  <metadata
     id="metadata7">
    <rdf:RDF>
      <cc:Work
         rdf:about="">
        <dc:format>image/svg+xml</dc:format>
        <dc:type
           rdf:resource="http://purl.org/dc/dcmitype/StillImage" />
        <dc:title />
      </cc:Work>
    </rdf:RDF>
  </metadata>
  <g
     inkscape:groupmode="layer"
     id="layer4"
     inkscape:label="temples"
     style="display:inline">
    <rect
       style="fill:#34495e;fill-opacity:1;stroke:none;display:inline"
       id="rect4074"
       width="285.91223"
       height="128.97128"
       x="252.40103"
       y="135.15721"
       rx="25.820684"
       ry="16.753988"
       clip-path="url(#clipPath4044)" />
  </g>
  <g
     inkscape:groupmode="layer"
     id="layer1"
     inkscape:label="bridge"
     style="display:inline">
    <rect
       style="fill:#7f8c8d;fill-opacity:1;stroke:none"
       id="rect4011"
       width="73.214287"
       height="41.785713"
       x="327.85715"
       y="213.21428"
       rx="25.820684"
       ry="16.753988"
       clip-path="url(#clipPath4013)" />
  </g>
  <g
     inkscape:groupmode="layer"
     id="layer3"
     inkscape:label="hinge"
     style="display:inline">
    <rect
       style="fill:#bdc3c7;fill-opacity:1;stroke:none"
       id="rect4000"
       width="178.57143"
       height="58.57143"
       x="273.21429"
       y="208.92857"
       rx="25.820684"
       ry="16.753988"
       clip-path="url(#clipPath4002)" />
  </g>
  <g
     inkscape:groupmode="layer"
     id="layer2"
     inkscape:label="lens"
     style="display:inline">
    <rect
       style="fill:#2c3e50;fill-opacity:1;stroke:none"
       id="rect3981"
       width="167.85715"
       height="88.571426"
       x="278.92856"
       y="198.92857"
       rx="25.820684"
       ry="16.753988"
       clip-path="url(#clipPath3983)" />
  </g>
</svg>
