<?xml version="1.0" encoding="UTF-8" standalone="no"?>
<!-- Created with Inkscape (http://www.inkscape.org/) -->

<svg
   xmlns:dc="http://purl.org/dc/elements/1.1/"
   xmlns:cc="http://creativecommons.org/ns#"
   xmlns:rdf="http://www.w3.org/1999/02/22-rdf-syntax-ns#"
   xmlns:svg="http://www.w3.org/2000/svg"
   xmlns="http://www.w3.org/2000/svg"
   xmlns:sodipodi="http://sodipodi.sourceforge.net/DTD/sodipodi-0.dtd"
   xmlns:inkscape="http://www.inkscape.org/namespaces/inkscape"
   width="1200"
   height="300"
   id="svg2"
   version="1.1"
   inkscape:version="0.48.4 r9939"
   sodipodi:docname="hotel.svg">
  <defs
     id="defs4">
    <clipPath
       clipPathUnits="userSpaceOnUse"
       id="clipPath3045">
      <rect
         style="color:#000000;fill:#4d4d4d;fill-opacity:1;fill-rule:nonzero;stroke:none;marker:none;visibility:visible;display:inline;overflow:visible;enable-background:accumulate"
         id="rect3047"
         width="87.162567"
         height="8.2228842"
         x="624.82947"
         y="-129.64398"
         rx="5.484386"
         ry="3.410974"
         transform="matrix(0.97715459,0.21252976,-0.21252976,0.97715459,0,0)" />
    </clipPath>
    <clipPath
       clipPathUnits="userSpaceOnUse"
       id="clipPath3025">
      <rect
         clip-path="none"
         rx="10.808165"
         ry="17.331581"
         transform="matrix(0.98634588,0.16468701,-0.27264631,0.96211433,0,0)"
         y="-28.89159"
         x="579.91028"
         height="176.47658"
         width="127.18106"
         id="rect3028"
         style="color:#000000;fill:#1a1a1a;fill-opacity:1;fill-rule:nonzero;stroke:none;marker:none;visibility:visible;display:inline;overflow:visible;enable-background:accumulate" />
    </clipPath>
    <clipPath
       clipPathUnits="userSpaceOnUse"
       id="clipPath3055">
      <path
         sodipodi:type="arc"
         style="color:#000000;fill:#999999;fill-opacity:1;fill-rule:nonzero;stroke:none;marker:none;visibility:visible;display:inline;overflow:visible;enable-background:accumulate"
         id="path3057"
         sodipodi:cx="-79.64286"
         sodipodi:cy="79.10714"
         sodipodi:rx="13.571428"
         sodipodi:ry="6.25"
         d="m -66.071432,79.10714 a 13.571428,6.25 0 1 1 -27.142857,0 13.571428,6.25 0 1 1 27.142857,0 z"
         transform="matrix(1.244106,0.19195082,-0.11518667,0.81913294,737.6548,62.886789)" />
    </clipPath>
    <clipPath
       clipPathUnits="userSpaceOnUse"
       id="clipPath3076">
      <path
         inkscape:connector-curvature="0"
         id="path3078"
         d="m 688.84234,82.568542 -8.90892,4.098282 -9.97328,19.969656 11.89358,5.32291 10.00889,-21.065457 z"
         style="fill:#4d4d4d;fill-opacity:1;stroke:none" />
    </clipPath>
    <clipPath
       clipPathUnits="userSpaceOnUse"
       id="clipPath3061">
      <g
         id="g3063">
        <path
           sodipodi:type="arc"
           style="color:#000000;fill:#4d4d4d;fill-opacity:1;fill-rule:nonzero;stroke:none;marker:none;visibility:visible;display:inline;overflow:visible;enable-background:accumulate"
           id="path3065"
           sodipodi:cx="32.142857"
           sodipodi:cy="180.71428"
           sodipodi:rx="6.4285712"
           sodipodi:ry="7.5"
           d="m 38.571428,180.71428 a 6.4285712,7.5 0 1 1 -12.857143,0 6.4285712,7.5 0 1 1 12.857143,0 z"
           transform="matrix(1.2575296,0,0,1.3172269,515.47248,30.26004)" />
        <path
           sodipodi:type="arc"
           style="color:#000000;fill:#4d4d4d;fill-opacity:1;fill-rule:nonzero;stroke:none;marker:none;visibility:visible;display:inline;overflow:visible;enable-background:accumulate"
           id="path3067"
           sodipodi:cx="32.142857"
           sodipodi:cy="180.71428"
           sodipodi:rx="6.4285712"
           sodipodi:ry="7.5"
           d="m 38.571428,180.71428 a 6.4285712,7.5 0 1 1 -12.857143,0 6.4285712,7.5 0 1 1 12.857143,0 z"
           transform="matrix(1.2575296,0,0,1.3172269,518.6163,29.31917)" />
        <path
           sodipodi:type="arc"
           style="color:#000000;fill:#4d4d4d;fill-opacity:1;fill-rule:nonzero;stroke:none;marker:none;visibility:visible;display:inline;overflow:visible;enable-background:accumulate"
           id="path3069"
           sodipodi:cx="32.142857"
           sodipodi:cy="180.71428"
           sodipodi:rx="6.4285712"
           sodipodi:ry="7.5"
           d="m 38.571428,180.71428 a 6.4285712,7.5 0 1 1 -12.857143,0 6.4285712,7.5 0 1 1 12.857143,0 z"
           transform="matrix(1.2575296,0,0,1.3172269,618.45517,47.007645)" />
        <path
           sodipodi:type="arc"
           style="color:#000000;fill:#4d4d4d;fill-opacity:1;fill-rule:nonzero;stroke:none;marker:none;visibility:visible;display:inline;overflow:visible;enable-background:accumulate"
           id="path3071"
           sodipodi:cx="32.142857"
           sodipodi:cy="180.71428"
           sodipodi:rx="6.4285712"
           sodipodi:ry="7.5"
           d="m 38.571428,180.71428 a 6.4285712,7.5 0 1 1 -12.857143,0 6.4285712,7.5 0 1 1 12.857143,0 z"
           transform="matrix(1.2575296,0,0,1.3172269,621.599,46.066775)" />
      </g>
    </clipPath>
    <clipPath
       clipPathUnits="userSpaceOnUse"
       id="clipPath3035">
      <g
         id="g3037">
        <path
           style="fill:#808080;fill-opacity:1;stroke:none"
           d="m 571.80088,94.290214 4.23237,-14.184616 c 0,0 5.44161,-14.184617 21.16183,-10.960838 15.72022,3.223775 15.72022,3.223775 15.72022,3.223775 z"
           id="path3039"
           inkscape:connector-curvature="0" />
        <path
           style="fill:#808080;fill-opacity:1;stroke:none"
           d="m 698.98147,114.02514 3.83734,-14.801194 c 0,0 3.28916,-10.963844 -10.96385,-13.704805 -14.25299,-2.740961 -21.92768,-3.289153 -21.92768,-3.289153 z"
           id="path3041"
           inkscape:connector-curvature="0" />
      </g>
    </clipPath>
    <clipPath
       clipPathUnits="userSpaceOnUse"
       id="clipPath3056">
      <g
         id="g3058">
        <rect
           style="color:#000000;fill:#cccccc;fill-opacity:1;fill-rule:nonzero;stroke:none;marker:none;visibility:visible;display:inline;overflow:visible;enable-background:accumulate"
           id="rect3060"
           width="3.8373456"
           height="84.969795"
           x="636.19049"
           y="-126.39048"
           rx="5.484386"
           ry="3.410974"
           transform="matrix(0.97715459,0.21252976,-0.21252976,0.97715459,0,0)" />
        <rect
           style="color:#000000;fill:#cccccc;fill-opacity:1;fill-rule:nonzero;stroke:none;marker:none;visibility:visible;display:inline;overflow:visible;enable-background:accumulate"
           id="rect3062"
           width="3.8373456"
           height="84.969795"
           x="695.66931"
           y="-125.56818"
           rx="5.484386"
           ry="3.410974"
           transform="matrix(0.97715459,0.21252976,-0.21252976,0.97715459,0,0)" />
      </g>
    </clipPath>
    <clipPath
       clipPathUnits="userSpaceOnUse"
       id="clipPath3139">
      <g
         id="g3141">
        <rect
           clip-path="none"
           rx="10.808165"
           ry="17.331581"
           transform="matrix(0.98634588,0.16468701,-0.27264631,0.96211433,0,0)"
           y="-8.8360214"
           x="600.94421"
           height="176.47658"
           width="127.18105"
           id="rect3143"
           style="color:#000000;fill:#666666;fill-opacity:1;fill-rule:nonzero;stroke:none;marker:none;visibility:visible;display:inline;overflow:visible;enable-background:accumulate" />
        <rect
           style="color:#000000;fill:#666666;fill-opacity:1;fill-rule:nonzero;stroke:none;marker:none;visibility:visible;display:inline;overflow:visible;enable-background:accumulate"
           id="rect3145"
           width="32.059956"
           height="20.429197"
           x="491.11072"
           y="-497.63272"
           transform="matrix(0.60992012,0.7924629,-0.79596199,0.6053466,0,0)" />
        <rect
           style="color:#000000;fill:#666666;fill-opacity:1;fill-rule:nonzero;stroke:none;marker:none;visibility:visible;display:inline;overflow:visible;enable-background:accumulate"
           id="rect3147"
           width="32.212074"
           height="20.333292"
           x="474.82855"
           y="-357.29144"
           transform="matrix(0.52110627,0.8534918,-0.85838651,0.51300351,0,0)" />
        <rect
           clip-path="none"
           rx="10.808165"
           ry="17.331581"
           transform="matrix(0.98634588,0.16468701,-0.27264631,0.96211433,0,0)"
           y="-28.891584"
           x="579.91028"
           height="176.47658"
           width="127.18106"
           id="rect3149"
           style="color:#000000;fill:#666666;fill-opacity:1;fill-rule:nonzero;stroke:none;marker:none;visibility:visible;display:inline;overflow:visible;enable-background:accumulate" />
      </g>
    </clipPath>
    <clipPath
       clipPathUnits="userSpaceOnUse"
       id="clipPath4050">
      <g
         id="g4052"
         transform="matrix(0.97108293,0,0,0.97108293,161.43735,1.5768565)">
        <path
           style="fill:#000000;fill-opacity:1;stroke:none;display:inline"
           d="m 279.28571,198.57143 c 0,0 4.28572,-46.42857 70.71429,-40 66.42857,6.42857 45,40.71428 45,40.71428 0,0 -7.85714,27.14286 -47.14286,37.14286 -39.28571,10 -60.76084,-4.48014 -65.71428,-15 C 276.76155,210 279.1371,198.57143 279.28571,198.57143 z"
           id="path4054"
           inkscape:connector-curvature="0"
           sodipodi:nodetypes="cscssc" />
        <path
           style="fill:#000000;fill-opacity:1;stroke:none;display:inline"
           d="m 552.7517,196.12368 c 0,0 -4.28572,-46.42857 -70.71429,-40 -66.42857,6.42857 -45,40.71428 -45,40.71428 0,0 7.85714,27.14286 47.14286,37.14286 39.28571,10 60.76084,-4.48014 65.71428,-15 5.38131,-11.42857 3.00576,-22.85714 2.85715,-22.85714 z"
           id="path4056"
           inkscape:connector-curvature="0"
           sodipodi:nodetypes="cscssc" />
      </g>
    </clipPath>
    <clipPath
       clipPathUnits="userSpaceOnUse"
       id="clipPath4060">
      <g
         id="g4062"
         transform="matrix(0.97108293,0,0,0.97108293,161.43735,1.5768565)">
        <path
           inkscape:connector-curvature="0"
           id="path4064"
           d="m 284.61049,185.09515 -11.61676,-2.02031 2.02031,15.65737 8.5863,-3.03046 z"
           style="fill:#b3b3b3;fill-opacity:1;stroke:none" />
        <path
           inkscape:connector-curvature="0"
           id="path4066"
           d="m 547.75522,183.07485 11.61676,-2.02031 -2.02031,15.65737 -8.5863,-3.03046 z"
           style="fill:#b3b3b3;fill-opacity:1;stroke:none" />
      </g>
    </clipPath>
    <clipPath
       clipPathUnits="userSpaceOnUse"
       id="clipPath4070">
      <path
         style="fill:#808080;fill-opacity:1;stroke:none;display:inline"
         d="m 534.19836,171.84861 0,11.79172 c 0,0 11.09808,-3.46816 29.82611,-3.46816 18.72803,0 31.90702,3.12135 31.90702,3.12135 l 0.1734,-10.92468 c 0,0 -14.04602,1.38725 -32.08042,1.38725 -18.0344,0 -29.82611,-1.90748 -29.82611,-1.90748 z"
         id="path4072"
         inkscape:connector-curvature="0"
         sodipodi:nodetypes="ccsccsc" />
    </clipPath>
    <clipPath
       clipPathUnits="userSpaceOnUse"
       id="clipPath4076">
      <g
         id="g4078"
         transform="matrix(0.97108293,0,0,0.97108293,161.43735,1.5768565)">
        <path
           sodipodi:nodetypes="ccsccscsc"
           inkscape:connector-curvature="0"
           id="path4080"
           d="M 555.94466,184.00106 670.09189,78.945192 c 0,0 13.63706,-14.647212 43.94164,-6.060915 30.30458,8.586296 -1.51523,7.071067 -1.51523,7.071067 L 695.34571,77.93504 c 0,0 -9.72275,-0.155268 -15.65736,1.515228 -13.80743,3.886565 -88.21298,93.129452 -119.70528,113.555892 -5.45995,3.24737 -8.99958,-0.97707 -9.21121,-4.12542 -0.17788,-2.64623 4.68858,-1.16736 5.1728,-4.87968 z"
           style="fill:#4d4d4d;fill-opacity:1;stroke:none" />
        <path
           sodipodi:nodetypes="ccsccscsc"
           inkscape:connector-curvature="0"
           id="path4082"
           d="M 279.94475,182.06612 394.09198,77.010254 c 0,0 13.63706,-14.647212 43.94164,-6.060915 30.30458,8.586296 -1.51523,7.071067 -1.51523,7.071067 L 419.3458,76.000102 c 0,0 -9.72275,-0.155268 -15.65736,1.515228 -13.80743,3.886565 -88.21298,93.12945 -119.70528,113.55589 -5.45995,3.24737 -8.99958,-0.97707 -9.21121,-4.12542 -0.17788,-2.64623 4.68858,-1.16736 5.1728,-4.87968 z"
           style="fill:#4d4d4d;fill-opacity:1;stroke:none" />
      </g>
    </clipPath>
    <clipPath
       clipPathUnits="userSpaceOnUse"
       id="clipPath3036">
      <path
         sodipodi:type="arc"
         style="fill:#bdc3c7;fill-opacity:1;stroke:none"
         id="path3038"
         sodipodi:cx="698.01538"
         sodipodi:cy="164.13448"
         sodipodi:rx="85.862968"
         sodipodi:ry="58.083771"
         d="m 783.87835,164.13448 a 85.862968,58.083771 0 1 1 -171.72594,0 85.862968,58.083771 0 1 1 171.72594,0 z"
         transform="translate(-152.53304,-51.517779)" />
    </clipPath>
    <clipPath
       clipPathUnits="userSpaceOnUse"
       id="clipPath3073">
      <path
         sodipodi:nodetypes="csccscc"
         inkscape:connector-curvature="0"
         id="path3075"
         d="m 570.18997,157.012 c 0,0 -1.94106,-0.068 -1.94106,2.04222 0,2.11022 2.17023,2.24764 2.17023,2.24764 l 22.00094,1.19577 c 0,0 1.29404,6e-4 1.29404,-2.95371 0,-2.95431 -1.56372,-2.99767 -1.56372,-2.99767 z"
         style="fill:#808080;fill-opacity:1;stroke:none" />
    </clipPath>
    <clipPath
       clipPathUnits="userSpaceOnUse"
       id="clipPath3078">
      <path
         transform="matrix(0.86831389,0.02469115,0,0.86831389,205.82031,25.690801)"
         d="m 424.26407,141.15352 a 5.8083773,5.8083773 0 1 1 -11.61676,0 5.8083773,5.8083773 0 1 1 11.61676,0 z"
         sodipodi:ry="5.8083773"
         sodipodi:rx="5.8083773"
         sodipodi:cy="141.15352"
         sodipodi:cx="418.45569"
         id="path3080"
         style="fill:#4d4d4d;fill-opacity:1;stroke:none"
         sodipodi:type="arc" />
    </clipPath>
    <clipPath
       clipPathUnits="userSpaceOnUse"
       id="clipPath3083">
      <path
         transform="matrix(0.86831389,0.02469115,0,0.86831389,204.06605,-23.916897)"
         d="m 426.78947,178.02408 a 6.3134532,6.3134532 0 1 1 -12.62691,0 6.3134532,6.3134532 0 1 1 12.62691,0 z"
         sodipodi:ry="6.3134532"
         sodipodi:rx="6.3134532"
         sodipodi:cy="178.02408"
         sodipodi:cx="420.47601"
         id="path3085"
         style="fill:#4d4d4d;fill-opacity:1;stroke:none"
         sodipodi:type="arc" />
    </clipPath>
    <clipPath
       clipPathUnits="userSpaceOnUse"
       id="clipPath3122">
      <rect
         transform="matrix(0.99959595,0.02842425,0,1,0,0)"
         ry="6.9465113"
         rx="6.9493194"
         y="1.694512"
         x="554.26471"
         height="248.8403"
         width="150.7767"
         id="rect3124"
         style="fill:#9aa4a5;fill-opacity:1;stroke:none" />
    </clipPath>
    <clipPath
       clipPathUnits="userSpaceOnUse"
       id="clipPath3072">
      <g
         id="g3074">
        <rect
           transform="matrix(0.99959595,0.02842425,0,1,0,0)"
           ry="1.7366278"
           rx="1.7373297"
           y="40.882614"
           x="585.85413"
           height="175.42589"
           width="5.2119894"
           id="rect3076"
           style="fill:#b3b3b3;fill-opacity:1;stroke:none;display:inline" />
        <rect
           transform="matrix(0.99959595,0.02842425,0,1,0,0)"
           ry="1.7366278"
           rx="1.7373297"
           y="40.882614"
           x="669.15118"
           height="175.42589"
           width="5.2119894"
           id="rect3078"
           style="fill:#b3b3b3;fill-opacity:1;stroke:none;display:inline" />
        <rect
           transform="matrix(0,-1,0.99959595,0.02842425,0,0)"
           ry="1.7373297"
           rx="1.7366278"
           y="585.83624"
           x="-43.728615"
           height="88.543617"
           width="5.2098832"
           id="rect3080"
           style="fill:#b3b3b3;fill-opacity:1;stroke:none;display:inline" />
        <rect
           transform="matrix(0,-1,0.99959595,0.02842425,0,0)"
           ry="1.7373297"
           rx="1.7366278"
           y="585.83624"
           x="-216.79663"
           height="88.543617"
           width="5.2098832"
           id="rect3082"
           style="fill:#b3b3b3;fill-opacity:1;stroke:none;display:inline" />
      </g>
    </clipPath>
    <clipPath
       clipPathUnits="userSpaceOnUse"
       id="clipPath3099">
      <g
         id="g3101">
        <rect
           transform="matrix(0.99959595,0.02842425,0,1,0,0)"
           ry="1.7366278"
           rx="1.3029974"
           y="39.871498"
           x="587.34357"
           height="175.37717"
           width="2.6246026"
           id="rect3103"
           style="fill:#333333;fill-opacity:1;stroke:none;display:inline" />
        <rect
           transform="matrix(0.99959595,0.02842425,0,1,0,0)"
           ry="1.7366278"
           rx="1.0836264"
           y="40.26239"
           x="670.31464"
           height="174.96513"
           width="2.6305368"
           id="rect3105"
           style="fill:#333333;fill-opacity:1;stroke:none;display:inline" />
        <rect
           transform="matrix(0,-1,0.99959595,0.02842425,0,0)"
           ry="1.7373297"
           rx="1.3024708"
           y="587.5426"
           x="-42.410625"
           height="85.208794"
           width="2.6049416"
           id="rect3107"
           style="fill:#333333;fill-opacity:1;stroke:none;display:inline" />
        <rect
           transform="matrix(0,-1,0.99959595,0.02842425,0,0)"
           ry="1.7373297"
           rx="1.3024708"
           y="587.30988"
           x="-215.37009"
           height="85.441483"
           width="2.6049416"
           id="rect3109"
           style="fill:#333333;fill-opacity:1;stroke:none;display:inline" />
      </g>
    </clipPath>
  </defs>
  <sodipodi:namedview
     id="base"
     pagecolor="#ffffff"
     bordercolor="#666666"
     borderopacity="1.0"
     inkscape:pageopacity="0.0"
     inkscape:pageshadow="2"
     inkscape:zoom="1.979899"
     inkscape:cx="482.19952"
     inkscape:cy="150.51266"
     inkscape:document-units="px"
     inkscape:current-layer="layer2"
     showgrid="false"
     inkscape:window-width="1360"
     inkscape:window-height="744"
     inkscape:window-x="0"
     inkscape:window-y="24"
     inkscape:window-maximized="1"
     showguides="true"
     inkscape:guide-bbox="true" />
  <metadata
     id="metadata7">
    <rdf:RDF>
      <cc:Work
         rdf:about="">
        <dc:format>image/svg+xml</dc:format>
        <dc:type
           rdf:resource="http://purl.org/dc/dcmitype/StillImage" />
        <dc:title />
      </cc:Work>
    </rdf:RDF>
  </metadata>
  <g
     inkscape:groupmode="layer"
     id="layer4"
     inkscape:label="body"
     style="display:inline">
    <rect
       style="fill:#81261d;fill-opacity:1;stroke:none"
       id="rect3992"
       width="292.14285"
       height="320.71429"
       x="465.54642"
       y="-14.040611"
       rx="6.9493194"
       ry="6.9465113"
       clip-path="url(#clipPath3122)" />
  </g>
  <g
     inkscape:groupmode="layer"
     id="layer7"
     inkscape:label="hinge">
    <rect
       style="fill:#f5d659;fill-opacity:1;stroke:none"
       id="rect4032"
       width="84.285713"
       height="60.714287"
       x="531.67908"
       y="131.47498"
       rx="6.9493194"
       ry="6.9465113"
       clip-path="url(#clipPath3078)" />
  </g>
  <g
     inkscape:groupmode="layer"
     id="layer6"
     inkscape:label="lock">
    <rect
       style="fill:#f3cd34;fill-opacity:1;stroke:none"
       id="rect4026"
       width="57.5"
       height="41.785713"
       x="536.22479"
       y="123.41298"
       rx="6.9493194"
       ry="6.9465113"
       clip-path="url(#clipPath3083)" />
  </g>
  <g
     inkscape:groupmode="layer"
     id="layer1"
     inkscape:label="rim-outter"
     sodipodi:insensitive="true">
    <rect
       style="fill:#f1c40f;fill-opacity:1;stroke:none"
       id="rect3998"
       width="162.63457"
       height="212.13203"
       x="552.96967"
       y="35.340034"
       rx="6.9493194"
       ry="6.9465113"
       clip-path="url(#clipPath3072)" />
  </g>
  <g
     inkscape:groupmode="layer"
     id="layer2"
     inkscape:label="rim-inner"
     style="display:inline">
    <rect
       style="fill:#121414;fill-opacity:1;stroke:none"
       id="rect4012"
       width="126.78571"
       height="196.07143"
       x="564.99493"
       y="50.147934"
       rx="6.9493194"
       ry="6.9465113"
       clip-path="url(#clipPath3099)" />
  </g>
  <g
     inkscape:groupmode="layer"
     id="layer5"
     inkscape:label="handle"
     style="display:none">
    <rect
       style="fill:#ad9b53;fill-opacity:1;stroke:none"
       id="rect4040"
       width="104.64286"
       height="47.5"
       x="530.70923"
       y="128.11275"
       rx="6.9493194"
       ry="6.9465113"
       clip-path="url(#clipPath3073)" />
  </g>
</svg>
