<?xml version="1.0" encoding="UTF-8" standalone="no"?>
<!-- Created with Inkscape (http://www.inkscape.org/) -->

<svg
   xmlns:dc="http://purl.org/dc/elements/1.1/"
   xmlns:cc="http://creativecommons.org/ns#"
   xmlns:rdf="http://www.w3.org/1999/02/22-rdf-syntax-ns#"
   xmlns:svg="http://www.w3.org/2000/svg"
   xmlns="http://www.w3.org/2000/svg"
   xmlns:sodipodi="http://sodipodi.sourceforge.net/DTD/sodipodi-0.dtd"
   xmlns:inkscape="http://www.inkscape.org/namespaces/inkscape"
   width="1200"
   height="300"
   id="svg2"
   version="1.1"
   inkscape:version="0.48.4 r9939"
   sodipodi:docname="instant.svg"
   enable-background="new">
  <defs
     id="defs4">
    <clipPath
       clipPathUnits="userSpaceOnUse"
       id="clipPath3045">
      <rect
         style="color:#000000;fill:#4d4d4d;fill-opacity:1;fill-rule:nonzero;stroke:none;marker:none;visibility:visible;display:inline;overflow:visible;enable-background:accumulate"
         id="rect3047"
         width="87.162567"
         height="8.2228842"
         x="624.82947"
         y="-129.64398"
         rx="5.484386"
         ry="3.410974"
         transform="matrix(0.97715459,0.21252976,-0.21252976,0.97715459,0,0)" />
    </clipPath>
    <clipPath
       clipPathUnits="userSpaceOnUse"
       id="clipPath3025">
      <rect
         clip-path="none"
         rx="10.808165"
         ry="17.331581"
         transform="matrix(0.98634588,0.16468701,-0.27264631,0.96211433,0,0)"
         y="-28.89159"
         x="579.91028"
         height="176.47658"
         width="127.18106"
         id="rect3028"
         style="color:#000000;fill:#1a1a1a;fill-opacity:1;fill-rule:nonzero;stroke:none;marker:none;visibility:visible;display:inline;overflow:visible;enable-background:accumulate" />
    </clipPath>
    <clipPath
       clipPathUnits="userSpaceOnUse"
       id="clipPath3055">
      <path
         sodipodi:type="arc"
         style="color:#000000;fill:#999999;fill-opacity:1;fill-rule:nonzero;stroke:none;marker:none;visibility:visible;display:inline;overflow:visible;enable-background:accumulate"
         id="path3057"
         sodipodi:cx="-79.64286"
         sodipodi:cy="79.10714"
         sodipodi:rx="13.571428"
         sodipodi:ry="6.25"
         d="m -66.071432,79.10714 a 13.571428,6.25 0 1 1 -27.142857,0 13.571428,6.25 0 1 1 27.142857,0 z"
         transform="matrix(1.244106,0.19195082,-0.11518667,0.81913294,737.6548,62.886789)" />
    </clipPath>
    <clipPath
       clipPathUnits="userSpaceOnUse"
       id="clipPath3076">
      <path
         inkscape:connector-curvature="0"
         id="path3078"
         d="m 688.84234,82.568542 -8.90892,4.098282 -9.97328,19.969656 11.89358,5.32291 10.00889,-21.065457 z"
         style="fill:#4d4d4d;fill-opacity:1;stroke:none" />
    </clipPath>
    <clipPath
       clipPathUnits="userSpaceOnUse"
       id="clipPath3061">
      <g
         id="g3063">
        <path
           sodipodi:type="arc"
           style="color:#000000;fill:#4d4d4d;fill-opacity:1;fill-rule:nonzero;stroke:none;marker:none;visibility:visible;display:inline;overflow:visible;enable-background:accumulate"
           id="path3065"
           sodipodi:cx="32.142857"
           sodipodi:cy="180.71428"
           sodipodi:rx="6.4285712"
           sodipodi:ry="7.5"
           d="m 38.571428,180.71428 a 6.4285712,7.5 0 1 1 -12.857143,0 6.4285712,7.5 0 1 1 12.857143,0 z"
           transform="matrix(1.2575296,0,0,1.3172269,515.47248,30.26004)" />
        <path
           sodipodi:type="arc"
           style="color:#000000;fill:#4d4d4d;fill-opacity:1;fill-rule:nonzero;stroke:none;marker:none;visibility:visible;display:inline;overflow:visible;enable-background:accumulate"
           id="path3067"
           sodipodi:cx="32.142857"
           sodipodi:cy="180.71428"
           sodipodi:rx="6.4285712"
           sodipodi:ry="7.5"
           d="m 38.571428,180.71428 a 6.4285712,7.5 0 1 1 -12.857143,0 6.4285712,7.5 0 1 1 12.857143,0 z"
           transform="matrix(1.2575296,0,0,1.3172269,518.6163,29.31917)" />
        <path
           sodipodi:type="arc"
           style="color:#000000;fill:#4d4d4d;fill-opacity:1;fill-rule:nonzero;stroke:none;marker:none;visibility:visible;display:inline;overflow:visible;enable-background:accumulate"
           id="path3069"
           sodipodi:cx="32.142857"
           sodipodi:cy="180.71428"
           sodipodi:rx="6.4285712"
           sodipodi:ry="7.5"
           d="m 38.571428,180.71428 a 6.4285712,7.5 0 1 1 -12.857143,0 6.4285712,7.5 0 1 1 12.857143,0 z"
           transform="matrix(1.2575296,0,0,1.3172269,618.45517,47.007645)" />
        <path
           sodipodi:type="arc"
           style="color:#000000;fill:#4d4d4d;fill-opacity:1;fill-rule:nonzero;stroke:none;marker:none;visibility:visible;display:inline;overflow:visible;enable-background:accumulate"
           id="path3071"
           sodipodi:cx="32.142857"
           sodipodi:cy="180.71428"
           sodipodi:rx="6.4285712"
           sodipodi:ry="7.5"
           d="m 38.571428,180.71428 a 6.4285712,7.5 0 1 1 -12.857143,0 6.4285712,7.5 0 1 1 12.857143,0 z"
           transform="matrix(1.2575296,0,0,1.3172269,621.599,46.066775)" />
      </g>
    </clipPath>
    <clipPath
       clipPathUnits="userSpaceOnUse"
       id="clipPath3035">
      <g
         id="g3037">
        <path
           style="fill:#808080;fill-opacity:1;stroke:none"
           d="m 571.80088,94.290214 4.23237,-14.184616 c 0,0 5.44161,-14.184617 21.16183,-10.960838 15.72022,3.223775 15.72022,3.223775 15.72022,3.223775 z"
           id="path3039"
           inkscape:connector-curvature="0" />
        <path
           style="fill:#808080;fill-opacity:1;stroke:none"
           d="m 698.98147,114.02514 3.83734,-14.801194 c 0,0 3.28916,-10.963844 -10.96385,-13.704805 -14.25299,-2.740961 -21.92768,-3.289153 -21.92768,-3.289153 z"
           id="path3041"
           inkscape:connector-curvature="0" />
      </g>
    </clipPath>
    <clipPath
       clipPathUnits="userSpaceOnUse"
       id="clipPath3056">
      <g
         id="g3058">
        <rect
           style="color:#000000;fill:#cccccc;fill-opacity:1;fill-rule:nonzero;stroke:none;marker:none;visibility:visible;display:inline;overflow:visible;enable-background:accumulate"
           id="rect3060"
           width="3.8373456"
           height="84.969795"
           x="636.19049"
           y="-126.39048"
           rx="5.484386"
           ry="3.410974"
           transform="matrix(0.97715459,0.21252976,-0.21252976,0.97715459,0,0)" />
        <rect
           style="color:#000000;fill:#cccccc;fill-opacity:1;fill-rule:nonzero;stroke:none;marker:none;visibility:visible;display:inline;overflow:visible;enable-background:accumulate"
           id="rect3062"
           width="3.8373456"
           height="84.969795"
           x="695.66931"
           y="-125.56818"
           rx="5.484386"
           ry="3.410974"
           transform="matrix(0.97715459,0.21252976,-0.21252976,0.97715459,0,0)" />
      </g>
    </clipPath>
    <clipPath
       clipPathUnits="userSpaceOnUse"
       id="clipPath3139">
      <g
         id="g3141">
        <rect
           clip-path="none"
           rx="10.808165"
           ry="17.331581"
           transform="matrix(0.98634588,0.16468701,-0.27264631,0.96211433,0,0)"
           y="-8.8360214"
           x="600.94421"
           height="176.47658"
           width="127.18105"
           id="rect3143"
           style="color:#000000;fill:#666666;fill-opacity:1;fill-rule:nonzero;stroke:none;marker:none;visibility:visible;display:inline;overflow:visible;enable-background:accumulate" />
        <rect
           style="color:#000000;fill:#666666;fill-opacity:1;fill-rule:nonzero;stroke:none;marker:none;visibility:visible;display:inline;overflow:visible;enable-background:accumulate"
           id="rect3145"
           width="32.059956"
           height="20.429197"
           x="491.11072"
           y="-497.63272"
           transform="matrix(0.60992012,0.7924629,-0.79596199,0.6053466,0,0)" />
        <rect
           style="color:#000000;fill:#666666;fill-opacity:1;fill-rule:nonzero;stroke:none;marker:none;visibility:visible;display:inline;overflow:visible;enable-background:accumulate"
           id="rect3147"
           width="32.212074"
           height="20.333292"
           x="474.82855"
           y="-357.29144"
           transform="matrix(0.52110627,0.8534918,-0.85838651,0.51300351,0,0)" />
        <rect
           clip-path="none"
           rx="10.808165"
           ry="17.331581"
           transform="matrix(0.98634588,0.16468701,-0.27264631,0.96211433,0,0)"
           y="-28.891584"
           x="579.91028"
           height="176.47658"
           width="127.18106"
           id="rect3149"
           style="color:#000000;fill:#666666;fill-opacity:1;fill-rule:nonzero;stroke:none;marker:none;visibility:visible;display:inline;overflow:visible;enable-background:accumulate" />
      </g>
    </clipPath>
    <clipPath
       clipPathUnits="userSpaceOnUse"
       id="clipPath4050">
      <g
         id="g4052"
         transform="matrix(0.97108293,0,0,0.97108293,161.43735,1.5768565)">
        <path
           style="fill:#000000;fill-opacity:1;stroke:none;display:inline"
           d="m 279.28571,198.57143 c 0,0 4.28572,-46.42857 70.71429,-40 66.42857,6.42857 45,40.71428 45,40.71428 0,0 -7.85714,27.14286 -47.14286,37.14286 -39.28571,10 -60.76084,-4.48014 -65.71428,-15 C 276.76155,210 279.1371,198.57143 279.28571,198.57143 z"
           id="path4054"
           inkscape:connector-curvature="0"
           sodipodi:nodetypes="cscssc" />
        <path
           style="fill:#000000;fill-opacity:1;stroke:none;display:inline"
           d="m 552.7517,196.12368 c 0,0 -4.28572,-46.42857 -70.71429,-40 -66.42857,6.42857 -45,40.71428 -45,40.71428 0,0 7.85714,27.14286 47.14286,37.14286 39.28571,10 60.76084,-4.48014 65.71428,-15 5.38131,-11.42857 3.00576,-22.85714 2.85715,-22.85714 z"
           id="path4056"
           inkscape:connector-curvature="0"
           sodipodi:nodetypes="cscssc" />
      </g>
    </clipPath>
    <clipPath
       clipPathUnits="userSpaceOnUse"
       id="clipPath4060">
      <g
         id="g4062"
         transform="matrix(0.97108293,0,0,0.97108293,161.43735,1.5768565)">
        <path
           inkscape:connector-curvature="0"
           id="path4064"
           d="m 284.61049,185.09515 -11.61676,-2.02031 2.02031,15.65737 8.5863,-3.03046 z"
           style="fill:#b3b3b3;fill-opacity:1;stroke:none" />
        <path
           inkscape:connector-curvature="0"
           id="path4066"
           d="m 547.75522,183.07485 11.61676,-2.02031 -2.02031,15.65737 -8.5863,-3.03046 z"
           style="fill:#b3b3b3;fill-opacity:1;stroke:none" />
      </g>
    </clipPath>
    <clipPath
       clipPathUnits="userSpaceOnUse"
       id="clipPath4070">
      <path
         style="fill:#808080;fill-opacity:1;stroke:none;display:inline"
         d="m 534.19836,171.84861 0,11.79172 c 0,0 11.09808,-3.46816 29.82611,-3.46816 18.72803,0 31.90702,3.12135 31.90702,3.12135 l 0.1734,-10.92468 c 0,0 -14.04602,1.38725 -32.08042,1.38725 -18.0344,0 -29.82611,-1.90748 -29.82611,-1.90748 z"
         id="path4072"
         inkscape:connector-curvature="0"
         sodipodi:nodetypes="ccsccsc" />
    </clipPath>
    <clipPath
       clipPathUnits="userSpaceOnUse"
       id="clipPath4076">
      <g
         id="g4078"
         transform="matrix(0.97108293,0,0,0.97108293,161.43735,1.5768565)">
        <path
           sodipodi:nodetypes="ccsccscsc"
           inkscape:connector-curvature="0"
           id="path4080"
           d="M 555.94466,184.00106 670.09189,78.945192 c 0,0 13.63706,-14.647212 43.94164,-6.060915 30.30458,8.586296 -1.51523,7.071067 -1.51523,7.071067 L 695.34571,77.93504 c 0,0 -9.72275,-0.155268 -15.65736,1.515228 -13.80743,3.886565 -88.21298,93.129452 -119.70528,113.555892 -5.45995,3.24737 -8.99958,-0.97707 -9.21121,-4.12542 -0.17788,-2.64623 4.68858,-1.16736 5.1728,-4.87968 z"
           style="fill:#4d4d4d;fill-opacity:1;stroke:none" />
        <path
           sodipodi:nodetypes="ccsccscsc"
           inkscape:connector-curvature="0"
           id="path4082"
           d="M 279.94475,182.06612 394.09198,77.010254 c 0,0 13.63706,-14.647212 43.94164,-6.060915 30.30458,8.586296 -1.51523,7.071067 -1.51523,7.071067 L 419.3458,76.000102 c 0,0 -9.72275,-0.155268 -15.65736,1.515228 -13.80743,3.886565 -88.21298,93.12945 -119.70528,113.55589 -5.45995,3.24737 -8.99958,-0.97707 -9.21121,-4.12542 -0.17788,-2.64623 4.68858,-1.16736 5.1728,-4.87968 z"
           style="fill:#4d4d4d;fill-opacity:1;stroke:none" />
      </g>
    </clipPath>
    <clipPath
       clipPathUnits="userSpaceOnUse"
       id="clipPath3028">
      <path
         transform="translate(148.49242,8.0812213)"
         d="m 783.87835,164.13448 a 85.862968,58.083771 0 1 1 -171.72594,0 85.862968,58.083771 0 1 1 171.72594,0 z"
         sodipodi:ry="58.083771"
         sodipodi:rx="85.862968"
         sodipodi:cy="164.13448"
         sodipodi:cx="698.01538"
         id="path3030"
         style="fill:#bdc3c7;fill-opacity:1;stroke:none"
         sodipodi:type="arc" />
    </clipPath>
    <filter
       inkscape:collect="always"
       id="filter3847">
      <feBlend
         inkscape:collect="always"
         mode="darken"
         in2="BackgroundImage"
         id="feBlend3849" />
    </filter>
    <clipPath
       clipPathUnits="userSpaceOnUse"
       id="clipPath3877">
      <path
         sodipodi:nodetypes="cccsccsc"
         inkscape:connector-curvature="0"
         id="path3879"
         d="m 798.78739,127.40779 57.33142,2.79656 12.93815,4.5774 c 0,0 2.87216,5.76809 -0.43376,47.28015 -3.06072,38.43318 -11.71159,47.71391 -11.71159,47.71391 -29.76325,0.78885 -63.82053,-1.79619 -82.8487,-8.67526 0,0 -7.47619,-59.61026 9.10902,-82.41493 10.41031,-14.31417 15.61546,-11.27783 15.61546,-11.27783 z"
         style="fill:#666666;stroke:none" />
    </clipPath>
    <clipPath
       clipPathUnits="userSpaceOnUse"
       id="clipPath3908">
      <path
         sodipodi:nodetypes="ccccsc"
         inkscape:connector-curvature="0"
         id="path3910"
         d="m 798.78739,127.40779 57.33142,2.79656 c 5.98286,31.47796 5.35674,68.23619 -1.66996,94.91809 -29.98013,2.95766 -61.35777,2.85718 -80.38594,-4.02189 0,0 -7.47619,-59.61026 9.10902,-82.41493 10.41031,-14.31417 15.61546,-11.27783 15.61546,-11.27783 z"
         style="fill:#4d4d4d;stroke:none" />
    </clipPath>
    <clipPath
       clipPathUnits="userSpaceOnUse"
       id="clipPath3924">
      <path
         d="m 775.79718,151.50757 a 56.568542,52.527931 0 1 1 -113.13708,0 56.568542,52.527931 0 1 1 113.13708,0 z"
         sodipodi:ry="52.527931"
         sodipodi:rx="56.568542"
         sodipodi:cy="151.50757"
         sodipodi:cx="719.22864"
         id="path3926"
         style="fill:#1a1a1a;stroke:none;display:inline"
         sodipodi:type="arc"
         transform="matrix(0.47798471,0,0,0.50145203,476.14397,110.03057)" />
    </clipPath>
    <clipPath
       clipPathUnits="userSpaceOnUse"
       id="clipPath3934">
      <rect
         style="fill:#808080;fill-opacity:1;stroke:none"
         id="rect3936"
         width="9.07374"
         height="17.80876"
         x="829.39233"
         y="-117.40517"
         rx="2.1908643"
         ry="2.4150374"
         transform="matrix(0.9540581,0.29962168,-0.11217476,0.99368849,0,0)" />
    </clipPath>
    <clipPath
       clipPathUnits="userSpaceOnUse"
       id="clipPath3939">
      <path
         d="m 637.14285,120 a 12.857142,12.857142 0 1 1 -25.71429,0 12.857142,12.857142 0 1 1 25.71429,0 z"
         sodipodi:ry="12.857142"
         sodipodi:rx="12.857142"
         sodipodi:cy="120"
         sodipodi:cx="624.28571"
         id="path3941"
         style="fill:#333333;fill-opacity:1;stroke:none"
         sodipodi:type="arc"
         transform="matrix(0.42940327,0,0,0.42940327,517.27533,118.30534)" />
    </clipPath>
    <clipPath
       clipPathUnits="userSpaceOnUse"
       id="clipPath3944">
      <rect
         transform="matrix(0.96752191,0.25278717,0,1,0,0)"
         ry="0.71248645"
         rx="0.56464982"
         y="-59.43539"
         x="808.80579"
         height="9.6694593"
         width="6.4531398"
         id="rect3946"
         style="fill:#333333;fill-opacity:1;stroke:none;display:inline" />
    </clipPath>
    <clipPath
       clipPathUnits="userSpaceOnUse"
       id="clipPath3949">
      <path
         d="m 775.79718,151.50757 a 56.568542,52.527931 0 1 1 -113.13708,0 56.568542,52.527931 0 1 1 113.13708,0 z"
         sodipodi:ry="52.527931"
         sodipodi:rx="56.568542"
         sodipodi:cy="151.50757"
         sodipodi:cx="719.22864"
         id="path3951"
         style="fill:#808080;stroke:none;display:inline"
         sodipodi:type="arc"
         transform="matrix(0.36702397,0,0,0.3850435,555.9501,127.66734)" />
    </clipPath>
    <clipPath
       clipPathUnits="userSpaceOnUse"
       id="clipPath3954">
      <path
         d="m 775.79718,151.50757 a 56.568542,52.527931 0 1 1 -113.13708,0 56.568542,52.527931 0 1 1 113.13708,0 z"
         sodipodi:ry="52.527931"
         sodipodi:rx="56.568542"
         sodipodi:cy="151.50757"
         sodipodi:cx="719.22864"
         id="path3956"
         style="fill:#b3b3b3;stroke:none;display:inline"
         sodipodi:type="arc"
         transform="matrix(0.16217338,0,0,0.12949584,703.28452,166.38474)" />
    </clipPath>
    <clipPath
       clipPathUnits="userSpaceOnUse"
       id="clipPath3074">
      <g
         id="g3076">
        <path
           transform="matrix(0.47798471,0,0,0.50145203,482.42085,117.12217)"
           sodipodi:type="arc"
           style="fill:#4d4d4d;stroke:none;display:inline"
           id="path3079"
           sodipodi:cx="719.22864"
           sodipodi:cy="151.50757"
           sodipodi:rx="56.568542"
           sodipodi:ry="52.527931"
           d="m 775.79718,151.50757 a 56.568542,52.527931 0 1 1 -113.13708,0 56.568542,52.527931 0 1 1 113.13708,0 z" />
        <path
           transform="matrix(0.47798471,0,0,0.50145203,476.14396,110.03057)"
           sodipodi:type="arc"
           style="fill:#4d4d4d;stroke:none;display:inline"
           id="path3081"
           sodipodi:cx="719.22864"
           sodipodi:cy="151.50757"
           sodipodi:rx="56.568542"
           sodipodi:ry="52.527931"
           d="m 775.79718,151.50757 a 56.568542,52.527931 0 1 1 -113.13708,0 56.568542,52.527931 0 1 1 113.13708,0 z" />
      </g>
    </clipPath>
  </defs>
  <sodipodi:namedview
     id="base"
     pagecolor="#ffffff"
     bordercolor="#666666"
     borderopacity="1.0"
     inkscape:pageopacity="0.0"
     inkscape:pageshadow="2"
     inkscape:zoom="2.8"
     inkscape:cx="756.52604"
     inkscape:cy="102.06402"
     inkscape:document-units="px"
     inkscape:current-layer="layer5"
     showgrid="false"
     inkscape:window-width="1360"
     inkscape:window-height="744"
     inkscape:window-x="0"
     inkscape:window-y="24"
     inkscape:window-maximized="1"
     showguides="true"
     inkscape:guide-bbox="true" />
  <metadata
     id="metadata7">
    <rdf:RDF>
      <cc:Work
         rdf:about="">
        <dc:format>image/svg+xml</dc:format>
        <dc:type
           rdf:resource="http://purl.org/dc/dcmitype/StillImage" />
        <dc:title />
      </cc:Work>
    </rdf:RDF>
  </metadata>
  <g
     inkscape:groupmode="layer"
     id="layer4"
     inkscape:label="body"
     style="display:inline;filter:url(#filter3847)">
    <rect
       style="fill:#c0dde5;fill-opacity:1;stroke:none"
       id="rect3875"
       width="152.5"
       height="136.07143"
       x="741.78571"
       y="102.85714"
       rx="1.7728343"
       ry="2.5369844"
       clip-path="url(#clipPath3877)" />
  </g>
  <g
     style="display:inline;filter:url(#filter3847)"
     inkscape:label="face"
     id="g3972"
     inkscape:groupmode="layer">
    <rect
       style="fill:#aed3de;fill-opacity:1;stroke:none;display:inline;filter:url(#filter3847)"
       id="rect3820-6"
       width="148.14413"
       height="119.61949"
       x="743.42792"
       y="120.54739"
       rx="0.56464982"
       ry="0.71248645"
       clip-path="url(#clipPath3908)" />
  </g>
  <g
     inkscape:groupmode="layer"
     id="layer1"
     inkscape:label="focus-body"
     style="display:inline">
    <rect
       style="fill:#8ac0cf;fill-opacity:1;stroke:none"
       id="rect3826"
       width="122.07321"
       height="94.775436"
       x="764.97192"
       y="140.85526"
       rx="0.56464982"
       ry="0.71248645"
       clip-path="url(#clipPath3074)" />
  </g>
  <g
     inkscape:groupmode="layer"
     id="layer2"
     inkscape:label="outer-focus"
     style="display:inline">
    <rect
       style="fill:#7cacba;fill-opacity:1;stroke:none"
       id="rect3856"
       width="94.162003"
       height="74.532135"
       x="769.36676"
       y="147.54843"
       rx="0.56464982"
       ry="0.71248645"
       clip-path="url(#clipPath3924)" />
  </g>
  <g
     inkscape:groupmode="layer"
     id="layer3"
     inkscape:label="inner-focus"
     style="display:inline">
    <rect
       style="fill:#6e99a5;fill-opacity:1;stroke:none"
       id="rect3862"
       width="121.7665"
       height="75.452286"
       x="754.3418"
       y="147.7964"
       rx="0.56464982"
       ry="0.71248645"
       clip-path="url(#clipPath3949)" />
  </g>
  <g
     inkscape:groupmode="layer"
     id="layer5"
     inkscape:label="lens"
     style="display:inline">
    <rect
       style="fill:#333333;fill-opacity:1;stroke:none"
       id="rect3868"
       width="96.922447"
       height="53.061974"
       x="774.46765"
       y="159.86752"
       rx="0.56464982"
       ry="0.71248645"
       clip-path="url(#clipPath3954)" />
  </g>
  <g
     inkscape:groupmode="layer"
     id="layer6"
     inkscape:label="flash"
     style="display:inline">
    <rect
       style="fill:#e9ddaf;fill-opacity:1;stroke:none"
       id="rect3874"
       width="65.023926"
       height="47.541077"
       x="775.4845"
       y="118.76334"
       rx="2.1908643"
       ry="2.4150374"
       clip-path="url(#clipPath3934)" />
  </g>
  <g
     inkscape:groupmode="layer"
     id="layer7"
     inkscape:label="shutter"
     style="display:inline">
    <rect
       style="fill:#7cacba;fill-opacity:1;stroke:none"
       id="rect3905"
       width="81.893333"
       height="52.448544"
       x="743.90094"
       y="143.92242"
       rx="0.56464982"
       ry="0.71248645"
       clip-path="url(#clipPath3939)" />
  </g>
  <g
     inkscape:groupmode="layer"
     id="layer8"
     inkscape:label="view"
     style="display:inline">
    <rect
       style="fill:#808080;fill-opacity:1;stroke:none"
       id="rect3899"
       width="50.301529"
       height="39.566444"
       x="759.84192"
       y="133.47742"
       rx="0.56464982"
       ry="0.71248645"
       clip-path="url(#clipPath3944)" />
  </g>
</svg>
