<?xml version="1.0" encoding="UTF-8" standalone="no"?>
<!-- Created with Inkscape (http://www.inkscape.org/) -->

<svg
   xmlns:dc="http://purl.org/dc/elements/1.1/"
   xmlns:cc="http://creativecommons.org/ns#"
   xmlns:rdf="http://www.w3.org/1999/02/22-rdf-syntax-ns#"
   xmlns:svg="http://www.w3.org/2000/svg"
   xmlns="http://www.w3.org/2000/svg"
   xmlns:inkscape="http://www.inkscape.org/namespaces/inkscape"
   version="1.1"
   width="328.09"
   height="613"
   id="svg2">
  <defs
     id="defs4">
    <inkscape:path-effect
       effect="spiro"
       id="path-effect3803" />
    <inkscape:path-effect
       effect="spiro"
       id="path-effect3791" />
    <inkscape:path-effect
       effect="spiro"
       id="path-effect3787" />
    <inkscape:path-effect
       effect="spiro"
       id="path-effect3015" />
    <inkscape:path-effect
       effect="spiro"
       id="path-effect3011" />
    <inkscape:path-effect
       effect="spiro"
       id="path-effect3007" />
    <inkscape:path-effect
       effect="spiro"
       id="path-effect3003" />
  </defs>
  <metadata
     id="metadata7">
    <rdf:RDF>
      <cc:Work
         rdf:about="">
        <dc:format>image/svg+xml</dc:format>
        <dc:type
           rdf:resource="http://purl.org/dc/dcmitype/StillImage" />
        <dc:title></dc:title>
      </cc:Work>
    </rdf:RDF>
  </metadata>
  <g
     transform="translate(0,-439.3619)"
     id="layer1">
    <path
       d="m 70,663.79075 c -0.47619,3.33334 -0.95238,6.66667 -1.42857,10 0,0.95238 0.0948,1.90949 0,2.85715 -0.38201,3.82011 -1.13412,7.60071 -1.42857,11.42857 -0.18261,2.37394 0.53538,4.82288 0,7.14286 C 58.37861,733.19774 66.75372,682.8793 60,716.6479 c -6.00731,30.03654 2.18791,-5.69505 -1.42857,21.42857 -0.51898,3.89232 -2.30182,7.54127 -2.85714,11.42857 -0.40407,2.82843 0.46971,5.75316 0,8.57143 -0.49512,2.97071 -2.22611,5.62659 -2.85715,8.57143 -3.2594,6.4461 -0.32978,13.40728 -1.42857,20 -0.49512,2.97071 -2.36202,5.60071 -2.85714,8.57143 -0.46971,2.81826 0.43445,5.7475 0,8.57142 -0.52714,3.42641 -2.36688,6.56813 -2.85714,10 -0.47141,3.29984 0.50685,6.70543 0,10 -0.45795,2.97668 -2.36203,5.60072 -2.85715,8.57143 -0.46971,2.81827 0.43445,5.74751 0,8.57143 -0.52714,3.42641 -2.1051,6.61583 -2.85714,10 -0.2066,0.9297 0.18678,1.92326 0,2.85714 -0.29532,1.47661 -1.01488,2.83781 -1.42857,4.28572 -4.29439,1.817 -0.76152,4.80817 -1.42857,7.14286 -1.86302,6.52057 -3.68704,9.12881 -4.28572,15.71428 -0.25867,2.84541 0.5111,5.76037 0,8.57143 C 28.93888,911.05546 30,880.98669 30,905.21933 c 0,15.23809 0,30.47619 0,45.71428 0,4.28572 0,8.57143 0,12.85714 0,1.42858 0,2.85715 0,4.28572 0,0.95238 -0.30117,1.95363 0,2.85714 0.66474,1.99422 3.30767,5.83879 4.28571,7.14286 0.40407,0.53875 1.12741,0.82623 1.42858,1.42857 0.21295,0.42592 -0.21296,1.00265 0,1.42857 1.40515,2.81031 1.00979,0.68963 2.85714,1.42857 1.97727,0.79091 3.80952,1.90476 5.71428,2.85715 0.95239,0.47619 1.82415,1.17032 2.85715,1.42857 0.92394,0.23098 1.91772,-0.15657 2.85714,0 1.93667,0.32278 3.89133,0.69939 5.71429,1.42857 0.62526,0.25011 0.95238,0.95238 1.42857,1.42857 1.42857,0.47619 2.82483,1.06335 4.28571,1.42857 0.92395,0.23099 2.00531,-0.42592 2.85714,0 0.60234,0.30117 0.77525,1.26524 1.42858,1.42857 2.74019,0.68505 12.28148,-0.80169 14.28571,0 0.98864,0.39546 0.54261,2.2665 1.42857,2.85715 0.94707,0.63137 5.99974,-0.57156 7.14286,0 0.42592,0.21295 -0.33672,1.09185 0,1.42857 0.33672,0.33671 0.95717,-0.0674 1.42857,0 2.85714,0.47619 5.71429,0.95238 8.57143,1.42857 1.42857,0 2.86588,-0.15776 4.28571,0 2.87884,0.31987 5.71895,0.92519 8.57143,1.42857 27.20982,4.80176 4.36626,0.83166 30,5.71426 5.22994,0.9962 10.53184,1.6378 15.71429,2.8572 2.93163,0.6898 5.61822,2.2665 8.57143,2.8571 1.86777,0.3736 3.80952,0 5.71428,0 5.71429,0 11.42857,0 17.14286,0 2.38095,0 4.77647,-0.2629 7.14286,0 1.95137,0.2168 3.76291,1.2118 5.71428,1.4286 2.36639,0.2629 4.80031,-0.4259 7.14286,0 2.96311,0.5387 5.59476,2.3992 8.57143,2.8571 3.29457,0.5069 6.66666,0 10,0 0.95238,0 1.90476,0 2.85714,0 0.95238,0 1.9332,0.231 2.85714,0 2.70788,-0.6769 3.81684,-2.3882 5.71429,-4.2857 2.38095,-2.3809 4.7619,-4.7619 7.14286,-7.1429 0.47619,-0.4761 0.86824,-1.055 1.42857,-1.4285 11.42857,-7.61907 -5.2381,5.2381 4.28571,-4.28573 0.75292,-0.75293 2.10422,-0.67565 2.85714,-1.42857 0.75293,-0.75293 0.95239,-1.90477 1.42858,-2.85715 0.95238,-1.90476 1.90476,-3.80952 2.85714,-5.71428 1.42857,-2.85714 3.09935,-5.60552 4.28571,-8.57143 0.17686,-0.44213 -0.15058,-0.97682 0,-1.42857 0.33672,-1.01015 1.09186,-1.84699 1.42857,-2.85714 0.15059,-0.45176 -0.15058,-0.97682 0,-1.42858 0.33672,-1.01015 1.09186,-1.84699 1.42858,-2.85714 0.15058,-0.45175 -0.15059,-0.97682 0,-1.42857 0.33671,-1.01015 1.09185,-1.84699 1.42857,-2.85714 0.15058,-0.45176 0,-0.95238 0,-1.42857 0,-0.95239 0,-1.90477 0,-2.85715 0,-0.95238 -0.23099,-1.9332 0,-2.85714 0.25825,-1.033 1.17032,-1.82414 1.42857,-2.85714 0.34648,-1.38592 -0.45176,-2.93046 0,-4.28572 0.33672,-1.01015 1.17032,-1.82414 1.42857,-2.85714 0.23099,-0.92395 0,-1.90476 0,-2.85714 0,-1.90477 0,-3.80953 0,-5.71429 0,-0.95238 -0.15657,-1.91772 0,-2.85714 0.32278,-1.93667 1.04352,-3.78903 1.42857,-5.71429 0.28017,-1.40083 0,-2.85714 0,-4.28571 0,-2.38095 0,-4.76191 0,-7.14286 0,-0.47619 -0.15058,-0.97682 0,-1.42857 0.33672,-1.01015 1.09186,-1.84699 1.42857,-2.85714 0.15059,-0.45176 0,-0.95238 0,-1.42857 0,-1.90477 0,-3.80953 0,-5.71429 0,-3.33333 0,-6.66667 0,-10 0,-1.42857 0,-2.85714 0,-4.28571 0,-0.95239 -0.18677,-1.92326 0,-2.85715 0.29532,-1.4766 1.13325,-2.80911 1.42857,-4.28571 0.18678,-0.93389 0,-1.90476 0,-2.85714 0,-3.80953 0,-7.61905 0,-11.42858 0,-2.38095 0,-4.7619 0,-7.14285 0,-0.95238 -0.23098,-1.9332 0,-2.85715 0.36523,-1.46088 1.06335,-2.82482 1.42858,-4.28571 0.11549,-0.46197 0,-0.95238 0,-1.42857 0,-0.79469 -0.29676,-5.65908 0,-7.14286 0.38505,-1.92526 1.04352,-3.78903 1.42857,-5.71428 0.71428,-3.57143 -1.42857,1.42857 0,-4.28572 0.25825,-1.033 1.21975,-1.81303 1.42857,-2.85714 0.37355,-1.86777 0,-3.80953 0,-5.71429 0,-3.80952 0,-7.61905 0,-11.42857 0,-3.80952 0,-7.61905 0,-11.42857 0,-1.2095 -0.256,-4.94628 0,-5.71429 0.21296,-0.63887 1.2965,-0.76821 1.42857,-1.42857 0.37355,-1.86777 0,-3.80952 0,-5.71428 0,-6.19048 0,-12.38096 0,-18.57143 0,-2.85714 -0.56033,-5.76977 0,-8.57143 0.13207,-0.66036 1.26524,-0.77524 1.42857,-1.42857 0.34648,-1.38592 0,-2.85714 0,-4.28572 0,-2.85714 0,-5.71428 0,-8.57142 0,-1.42858 -0.28016,-2.88489 0,-4.28572 0.29532,-1.4766 1.18101,-2.80036 1.42857,-4.28571 0.23486,-1.40914 -0.34648,-2.8998 0,-4.28572 0.16334,-0.65333 1.21562,-0.78969 1.42857,-1.42857 0.26252,-0.78754 0,-7.35908 0,-8.57143 0,-7.61905 0,-15.23809 0,-22.85714 0,-3.80952 0,-7.61905 0,-11.42857 0,-0.47619 0,-0.95238 0,-1.42857 0,-0.47619 -0.47619,-1.42857 0,-1.42857 0.47619,0 0.33672,1.76528 0,1.42857 -1.21405,-1.21406 -1.82698,-2.91217 -2.85714,-4.28572 -0.40406,-0.53875 -1.02451,-0.88982 -1.42857,-1.42857 -1.03016,-1.37354 -1.82699,-2.91217 -2.85714,-4.28571 -1.76989,-2.35986 -4.74997,-4.27855 -7.14286,-5.71429 -0.91305,-0.54783 -2.00531,-0.78969 -2.85714,-1.42857 -7.50894,-5.63171 2.6458,-0.12076 -7.14286,-5.71429 -8.18289,-4.67593 -2.99139,-1.47332 -11.42857,-4.28571 -2.43277,-0.81092 -4.68664,-2.12028 -7.14286,-2.85714 -2.3257,-0.69771 -4.81715,-0.73086 -7.14286,-1.42857 -2.45621,-0.73687 -4.71008,-2.04622 -7.14285,-2.85715 -7.96741,-2.6558 -16.08405,-4.07395 -24.28572,-5.71428 -4.7619,-0.95238 -9.47831,-2.17037 -14.28571,-2.85715 -46.03414,-6.5763 12.70219,2.84165 -30,-1.42857 -37.91029,-3.79103 9.15754,-2.85714 -28.57143,-2.85714 -4.7619,0 -9.54997,0.4985 -14.28571,0 -4.36614,-0.45959 -8.55214,-1.99614 -12.85715,-2.85714 -0.46694,-0.0934 -1.00265,-0.21296 -1.42857,0 -1.79531,0.89765 -5.03125,6.23214 -5.71428,7.14285 -0.40407,0.53875 -1.12741,0.82624 -1.42858,1.42858 -0.21295,0.42591 0.21296,1.00265 0,1.42857 -0.30116,0.60234 -0.95238,0.95238 -1.42857,1.42857 -0.95238,0.95238 -1.90476,1.90476 -2.85714,2.85714 -0.95238,0.95238 -2.04902,1.77965 -2.85714,2.85714 -1.27776,1.70367 -1.3513,4.20844 -2.85715,5.71429 -0.75292,0.75292 -2.10422,0.67565 -2.85714,1.42857 -0.75292,0.75292 -0.83793,1.97118 -1.42857,2.85714 -1.32071,1.98108 -2.79835,3.85508 -4.28571,5.71429 -0.84139,1.05173 -2.25481,1.65247 -2.85715,2.85714 -0.21296,0.42592 0.21296,1.00266 0,1.42857 -0.58451,1.16904 -3.38847,3.08939 -4.28571,4.28572 -1.03016,1.37354 -1.64309,3.07166 -2.85714,4.28571 -0.75293,0.75293 -2.10422,0.67565 -2.85715,1.42857 -1.21405,1.21406 -2.08931,2.75005 -2.85714,4.28572 -1.75925,3.5185 4.14676,-1.28962 -1.42857,4.28571 -0.33672,0.33672 -1.09186,-0.33672 -1.42857,0 -0.33672,0.33672 0.15058,0.97682 0,1.42857 -0.67344,2.02031 -2.34064,3.64829 -2.85715,5.71429 -0.23098,0.92394 0.30117,1.95363 0,2.85714 -0.21295,0.63888 -1.1274,0.82624 -1.42857,1.42857 -3.34096,0.74346 -0.87144,4.04289 -1.42857,5.71429 -0.33672,1.01015 -1.17032,1.82414 -1.42857,2.85714 -0.27159,1.08638 0,5.94659 0,7.14286 0,0.95238 0.30117,1.95363 0,2.85714 -0.21296,0.63888 -1.21561,0.7897 -1.42857,1.42857 -0.45176,1.35527 0,2.85715 0,4.28572 0,3.33333 0,6.66666 0,10 0,2.38095 0,4.7619 0,7.14286 0,0.95238 0,1.90476 0,2.85714 0,0.47619 0.21296,1.00265 0,1.42857 -0.30117,0.60234 -1.21561,0.78969 -1.42857,1.42857 -0.30117,0.90351 0,1.90476 0,2.85714 0,3.80953 0,7.61905 0,11.42858 0,0.95238 0,1.90476 0,2.85714 0,0.47619 0.11549,0.9666 0,1.42857 -0.36522,1.46089 -1.13325,2.80911 -1.42857,4.28571 -0.18678,0.93389 0,1.90477 0,2.85715 0,2.85714 0.46971,5.75316 0,8.57143 -0.11072,0.66427 -1.31786,0.76429 -1.42858,1.42857 -0.39142,2.34855 0,4.7619 0,7.14285 0,0.47619 0.1155,0.9666 0,1.42858 -0.36522,1.46088 -1.13325,2.80911 -1.42857,4.28571 -0.45232,2.26161 0.53465,6.43286 0,8.57143 -0.25825,1.033 -1.09185,1.84699 -1.42857,2.85714 -0.15058,0.45175 0,0.95238 0,1.42857 0,1.72985 0.32185,4.10502 0,5.71429 -0.38505,1.92525 -1.04352,3.78903 -1.42857,5.71428 -0.18678,0.93389 0,1.90477 0,2.85715 0,2.1404 0.36917,6.35638 0,8.57143 -0.39918,2.39506 -1.1274,4.7335 -1.42857,7.14285 -0.33862,2.70895 0,5.80776 0,8.57143 0,0.95238 0.23098,1.9332 0,2.85714 -0.25825,1.03301 -1.25352,1.80684 -1.42857,2.85715 -0.55556,3.33333 0.41666,6.66666 0,10 -0.30117,2.40935 -1.1274,4.7335 -1.42857,7.14285 -0.1772,1.41754 0.23485,2.87658 0,4.28572 -0.24756,1.48536 -1.21562,2.795 -1.42858,4.28571 -0.26937,1.88562 0,3.80953 0,5.71429 0,0.47619 0.1155,0.9666 0,1.42857 -0.36522,1.46089 -1.13325,2.80911 -1.42857,4.28571 -0.18677,0.93389 0.30117,1.95364 0,2.85715 -0.21296,0.63887 -1.21561,0.78969 -1.42857,1.42857 -0.5914,1.77421 0.46958,5.26455 0,7.14286 -0.25825,1.033 -1.17032,1.82414 -1.42857,2.85714 -1.42857,5.71428 0.71429,0.71428 0,4.28571 -0.38505,1.92526 -1.04352,3.78903 -1.42857,5.71429 -0.0934,0.46694 0.15058,0.97682 0,1.42857 -0.33672,1.01015 -1.09186,1.84699 -1.42857,2.85714 -0.30117,0.90351 0.23098,1.9332 0,2.85715 -0.36522,1.46088 -1.18101,2.80035 -1.42857,4.28571 -0.23486,1.40913 0,2.85714 0,4.28571 0,0.47619 0.21295,1.00266 0,1.42858 -0.30117,0.60233 -1.12741,0.82623 -1.42858,1.42857 -0.0942,0.18835 -0.0243,11.3313 0,11.42857 0.16334,0.65333 1.21562,0.78969 1.42858,1.42857 0.30117,0.90351 -0.23099,1.9332 0,2.85714 1.03579,4.14319 1.11453,1.67181 2.85714,4.28572 6.6474,9.97109 -6.33908,-7.02354 4.28571,7.14285 1.2,1.6 3.08572,2.68572 4.28572,4.28572 0.63887,0.85183 0.67565,2.10422 1.42857,2.85714 0.75292,0.75292 2.00531,0.7897 2.85714,1.42857 3.84201,2.88151 3.28419,4.71277 7.14286,8.57143 0.75292,0.75292 1.97118,0.83793 2.85714,1.42857 0.56033,0.37356 0.86824,1.05502 1.42857,1.42857 0.88597,0.59065 1.97118,0.83793 2.85715,1.42858 0.56033,0.37355 1.1274,0.82623 1.42857,1.42857 0.21296,0.42591 -0.42592,1.21561 0,1.42857 0.85183,0.42592 1.90476,0 2.85714,0 1.90476,0 3.80952,0 5.71429,0 2.38095,0 4.7619,0 7.14285,0 0.47619,0 1.00266,0.21296 1.42857,0 5.67016,-2.83508 -6.31382,-0.45152 5.71429,-2.85714 0.93389,-0.18678 1.90476,0 2.85714,0 2.38096,0 4.76191,0 7.14286,0 10,0 20,0 30,0 4.28571,0 8.57143,0 12.85714,0 0.47619,0 1.09186,0.33671 1.42857,0 0.33672,-0.33672 -0.46971,-1.35029 0,-1.42858 2.81827,-0.46971 5.71429,0 8.57143,0 2.85715,0 5.73635,-0.35438 8.57143,0 43.5773,8.71545 -12.71218,-1.57119 27.14286,2.85715 25.32043,2.81338 0.87903,2.59339 24.28571,5.7143 3.3041,0.4405 6.68036,-0.3018 10,0 2.41814,0.2198 4.78725,2.0175 7.14286,1.4285 14.43373,-3.6084 -1.0317,0.5159 5.71429,-2.8571 0.42591,-0.213 0.95238,0 1.42857,0 1.42857,-0.4762 2.99446,-0.6538 4.28571,-1.42856 1.15493,-0.69296 1.65247,-2.2548 2.85714,-2.85714 0.85184,-0.42592 2.00531,0.42591 2.85715,0 0.42592,-0.21296 -0.33672,-1.09186 0,-1.42857 0.75292,-0.75293 1.94409,-0.88074 2.85714,-1.42858 1.47225,-0.88335 3.07166,-1.64309 4.28571,-2.85714 0.0915,-0.0915 2.67975,-5.44818 2.85715,-5.71428 1.7426,-2.61391 1.82134,-0.14253 2.85714,-4.28572 0.23099,-0.92394 -0.23099,-1.9332 0,-2.85714 0.25825,-1.033 1.03312,-1.86851 1.42857,-2.85714 0.55926,-1.39815 1.06335,-2.82483 1.42857,-4.28572 0.1155,-0.46197 -0.21296,-1.00265 0,-1.42857 0.76784,-1.53567 2.21949,-2.69159 2.85715,-4.28571 0.3537,-0.88427 -0.30117,-1.95364 0,-2.85715 0.21295,-0.63887 1.1274,-0.82623 1.42857,-1.42857 1.57915,-3.15831 1.42857,-3.27924 1.42857,-5.71428 0,-0.4762 -0.11549,-0.9666 0,-1.42858 0.36522,-1.46088 1.13325,-2.80911 1.42857,-4.28571 0.18678,-0.93389 -0.23099,-1.9332 0,-2.85714 0.25825,-1.03301 1.21975,-1.81303 1.42857,-2.85715 0.47919,-2.39593 -0.47918,-6.17549 0,-8.57142 0.38505,-1.92526 1.04352,-3.78903 1.42857,-5.71429 0.0934,-0.46694 0,-0.95238 0,-1.42857 0,-3.33334 0,-6.66667 0,-10 0,-7.14286 0,-14.28572 0,-21.42857 0,-0.47619 0,-0.95238 0,-1.42857 0,-0.4762 -0.21296,-1.00266 0,-1.42858 0.30117,-0.60233 1.21562,-0.78969 1.42857,-1.42857 0.45176,-1.35526 0,-2.85714 0,-4.28571 0,-2.38095 0,-4.76191 0,-7.14286 0,-9.52381 0,-19.04762 0,-28.57143 0,-0.37313 -0.2394,-7.85321 0,-8.57143 0.33672,-1.01015 1.21975,-1.81302 1.42858,-2.85714 0.45787,-2.28938 -0.45788,-4.85348 0,-7.14286 0.38505,-1.92525 1.10579,-3.77761 1.42857,-5.71428 0.23485,-1.40914 -0.34648,-2.8998 0,-4.28572 0.36522,-1.46088 1.06335,-2.82482 1.42857,-4.28571 0.23099,-0.92395 0,-1.90476 0,-2.85714 0,-2.85715 0,-5.71429 0,-8.57143 0,-6.19048 0,-12.38095 0,-18.57143 0,-2.38095 0,-4.76191 0,-7.14286 0,-0.47619 -0.11549,-0.9666 0,-1.42857 0.36522,-1.46088 1.06335,-2.82483 1.42857,-4.28571 0.11549,-0.46198 0,-0.95238 0,-1.42857 0,-1.90477 -0.31314,-3.83544 0,-5.71429 0.17505,-1.05031 1.09185,-1.84699 1.42857,-2.85714 0.15059,-0.45176 0,-0.95238 0,-1.42857 0,-1.90477 0,-3.80953 0,-5.71429 0,-6.66667 0,-13.33333 0,-20 0,-6.66667 0,-13.33333 0,-20 0,-2.38095 0,-4.76191 0,-7.14286 0,-0.95238 0.18678,-1.92325 0,-2.85714 -1.48634,-7.43172 -0.95238,-1.42857 -2.85714,-7.14286 -0.15059,-0.45175 0,-0.95238 0,-1.42857 -0.47619,-1.42857 -0.75514,-2.93884 -1.42857,-4.28571 -0.30117,-0.60234 -1.05502,-0.86824 -1.42857,-1.42857 -0.59065,-0.88597 -0.83793,-1.97119 -1.42858,-2.85715 -0.37355,-0.56033 -1.02451,-0.88982 -1.42857,-1.42857 -1.03015,-1.37354 -1.64309,-3.07166 -2.85714,-4.28571 -1.73998,-1.73998 -3.19173,-0.66918 -4.28571,-2.85715 -0.21296,-0.42591 0.33671,-1.09185 0,-1.42857 -0.33672,-0.33672 -1.09186,0.33672 -1.42858,0 -0.33671,-0.33672 0.33672,-1.09185 0,-1.42857 -0.33671,-0.33672 -0.97681,0.15059 -1.42857,0 -10.34773,-3.44925 2.2523,0.41186 -4.28571,-2.85714 -0.42592,-0.21296 -1.09186,0.33672 -1.42857,0 -0.33672,-0.33672 0.33671,-1.09186 0,-1.42857 -0.75293,-0.75293 -1.97118,-0.83793 -2.85715,-1.42857 -1.64835,-1.09891 -2.63736,-3.18682 -4.28571,-4.28572 -8.67295,-5.78197 4.47305,4.1124 -7.14286,-2.85714 -0.95238,-0.95238 -1.90476,-1.90476 -2.85714,-2.85714 -0.47619,0 -1.00265,0.21295 -1.42857,0 -0.60234,-0.30117 -0.95238,-0.95239 -1.42857,-1.42858 -0.47619,-0.47619 -0.95238,-0.95238 -1.42857,-1.42857 -4.73798,-4.73797 1.34687,0.67344 -2.85715,-1.42857 -3.26577,-1.63288 0.88816,-1.99483 -4.28571,-2.85714 -1.87885,-0.31314 -3.84651,0.37355 -5.71429,0 -0.66035,-0.13207 -0.78969,-1.21561 -1.42857,-1.42857 -0.90351,-0.30117 -1.90476,0 -2.85714,0 -1.90476,0 -3.80953,0 -5.71429,0 -0.91929,0 -9.03322,-0.2417 -10,0 -2.066,0.5165 -3.69398,2.1837 -5.71428,2.85714 -0.45176,0.15058 -0.95238,0 -1.42857,0 -2.53589,0 -6.16809,-0.34333 -8.57143,0 -1.94365,0.27766 -3.77762,1.10579 -5.71429,1.42857 -0.93942,0.15657 -1.90476,0 -2.85714,0 -4.28572,0 -8.6145,-0.60609 -12.85714,0 -2.5386,0.36266 -4.61986,2.39842 -7.14286,2.85714 -2.81106,0.5111 -5.75316,-0.46971 -8.57143,0 -2.97072,0.49512 -5.60831,2.3184 -8.57143,2.85715 -2.34255,0.42591 -4.7619,0 -7.14286,0 -2.85714,0 -5.71428,0 -8.57142,0 -0.47619,0 -0.95717,-0.0673 -1.42858,0 -18.34485,2.62069 -1.51475,0.0215 -12.85714,2.85714 -2.35561,0.5889 -4.74779,1.02939 -7.14286,1.42857 -3.80952,0.63492 1.90477,-1.90476 -5.71428,0 -0.65333,0.16333 -0.82623,1.1274 -1.42857,1.42857 -0.42592,0.21296 -0.96163,-0.0934 -1.42857,0 -1.92526,0.38505 -3.85166,0.8077 -5.71429,1.42857 -1.01015,0.33672 -1.84699,1.09186 -2.85714,1.42858 -0.45176,0.15058 -1.09186,-0.33672 -1.42857,0 -0.33672,0.33671 0.21295,1.00265 0,1.42857 -0.43308,0.86614 -5.25542,5.10246 -5.71429,5.71428 -0.63888,0.85184 -0.83793,1.97118 -1.42857,2.85715 -1.12066,1.68099 -3.02364,2.70812 -4.28572,4.28571 -1.07255,1.3407 -1.82698,2.91217 -2.85714,4.28571 -0.40406,0.53875 -1.05502,0.86824 -1.42857,1.42858 -0.59064,0.88596 -0.83793,1.97118 -1.42857,2.85714 -0.74711,1.12066 -2.43123,1.57939 -2.85714,2.85714 -0.30117,0.90351 0.23098,1.9332 0,2.85714 -0.57658,2.30632 -1.40498,2.83355 -2.85715,4.28572"
       id="path3805"
       style="fill:none;stroke:#8d1990;stroke-width:1px;stroke-linecap:butt;stroke-linejoin:miter;stroke-opacity:1" />
    <path
       d="m 55.71429,769.50504 c 4.51754,-2.12405 -0.90351,-5.86091 0,-8.57143 0.33671,-1.01015 1.17032,-1.82414 1.42857,-2.85714 0.23098,-0.92395 -0.23099,-1.9332 0,-2.85714 0.5165,-2.06601 2.34064,-3.64829 2.85714,-5.71429 0.23099,-0.92395 -0.30117,-1.95364 0,-2.85714 0.21296,-0.63888 1.17846,-0.80331 1.42857,-1.42857 0.72918,-1.82296 0.69939,-3.89133 1.42857,-5.71429 0.25011,-0.62527 1.21562,-0.7897 1.42857,-1.42857 0.30117,-0.90351 -0.23098,-1.9332 0,-2.85714 -0.86104,-2.58563 2.31421,-2.6569 2.85715,-4.28572 0.30117,-0.90351 -0.23099,-1.9332 0,-2.85714 0.25825,-1.033 0.95238,-1.90476 1.42857,-2.85714 0.47619,-0.95239 0.83793,-1.97119 1.42857,-2.85715 0.37355,-0.56033 1.21561,-0.78969 1.42857,-1.42857 0.30117,-0.90351 0,-1.90476 0,-2.85714 0.95238,-1.42857 2.21949,-2.69159 2.85714,-4.28572 0.35371,-0.88426 -0.42591,-2.0053 0,-2.85714 0.60234,-1.20468 2.11004,-1.73648 2.85715,-2.85714 0.52828,-0.79243 -0.42592,-2.00531 0,-2.85714 3.49595,-6.99191 1.72805,-1.82788 5.71428,-7.14286 0.63888,-0.85184 0.88074,-1.94409 1.42857,-2.85714 1.76671,-2.94451 3.65398,-5.82435 5.71429,-8.57143 0.80812,-1.0775 2.2548,-1.65247 2.85714,-2.85715 0.21296,-0.42591 -0.26414,-1.03235 0,-1.42857 0.74711,-1.12066 1.90476,-1.90476 2.85715,-2.85714 1.42857,-1.42857 2.85714,-2.85714 4.28571,-4.28571 0.47619,-0.4762 1.1274,-0.82624 1.42857,-1.42858 0.21296,-0.42591 -0.21296,-1.00265 0,-1.42857 0.30117,-0.60234 1.05502,-0.86824 1.42857,-1.42857 4.06182,-6.09273 -1.89327,0.4647 4.28572,-5.71428 0.33947,-0.33948 5.234,-5.5542 5.71428,-5.71429 3.4629,-3.29136 7.70403,-0.49744 11.42857,-1.42857 0.65333,-0.16333 0.77525,-1.26524 1.42858,-1.42857 1.38591,-0.34648 2.88488,0.28016 4.28571,0 1.04412,-0.20883 1.82414,-1.17032 2.85714,-1.42857 3.61968,-0.90492 2.34325,0.58581 5.71429,1.42857 0.92394,0.23098 1.91212,-0.11813 2.85714,0 2.87419,0.35927 5.73113,0.86051 8.57143,1.42857 0.46694,0.0934 -0.95238,0 -1.42857,0 3.80952,0.95238 7.56155,2.17473 11.42857,2.85714 9.88318,1.74409 12.39711,1.42857 21.42857,1.42857 2.38095,0 4.9322,-0.88426 7.14286,0 0.88426,0.35371 -0.42592,2.00531 0,2.85715 0.21296,0.42591 0.9666,-0.1155 1.42857,0 1.46089,0.36522 2.87575,0.89983 4.28571,1.42857 6.4668,2.42505 8.78815,3.86731 15.71429,5.71428 4.24202,1.13121 8.58359,1.8516 12.85714,2.85715 3.82239,0.89938 7.57806,2.08704 11.42857,2.85714 0.93389,0.18678 1.95364,-0.30117 2.85715,0 0.63887,0.21296 0.82623,1.1274 1.42857,1.42857 0.42592,0.21296 1.00265,-0.21296 1.42857,0 0.60234,0.30117 0.90271,1.00788 1.42857,1.42857 1.85921,1.48737 3.69524,3.02381 5.71429,4.28572 12.68893,7.93058 -1.96756,-3.23444 12.85714,7.14285 6.16421,4.31495 7.70971,6.28114 12.85714,11.42857 1.90476,1.90477 3.47296,4.22007 5.71429,5.71429 0.79243,0.52829 2.00531,-0.42592 2.85714,0 0.85184,0.42592 -0.42592,2.00531 0,2.85714 0.30117,0.60234 1.21561,0.7897 1.42857,1.42857 0.25601,0.76801 0,4.50479 0,5.71429 0,7.14286 0,14.28571 0,21.42857 0,15.2381 0,30.47619 0,45.71429 0,4.28571 0,8.57143 0,12.85714 0,1.16957 0.30853,6.21726 0,7.14286 -2.46562,7.39687 -0.87713,-3.30863 -2.85714,8.57143 -0.15657,0.93942 0.18678,1.92325 0,2.85714 -0.29532,1.4766 -1.21561,2.795 -1.42857,4.28571 -0.26938,1.88562 0.37355,3.84652 0,5.71429 -0.13207,0.66036 -1.2965,0.76821 -1.42857,1.42857 -0.37356,1.86777 0.21034,3.82117 0,5.71429 -0.26814,2.41325 -1.1274,4.7335 -1.42857,7.14285 -0.1772,1.41754 0.20203,2.8715 0,4.28572 -0.27767,1.94365 -1.15091,3.77063 -1.42858,5.71428 -2.52513,17.67592 3.11348,-9.59676 -1.42857,8.57143 -0.11549,0.46197 0,0.95238 0,1.42857 0,2.38095 0,4.76191 0,7.14286 0,0.47619 0.15059,0.97682 0,1.42857 -0.33671,1.01015 -1.17032,1.82414 -1.42857,2.85714 -0.56164,2.24655 0.45491,4.86834 0,7.14286 -0.38505,1.92526 -1.10579,3.77762 -1.42857,5.71429 -0.15657,0.93942 0,1.90476 0,2.85714 0,2.85714 0,5.71429 0,8.57143 0,1.42857 0.17719,2.86817 0,4.28571 -0.30117,2.40936 -1.1274,4.73351 -1.42857,7.14286 -0.17719,1.41754 0,2.85714 0,4.28571 0,2.85715 0,5.71429 0,8.57143 0,3.80953 0,7.61905 0,11.42857 0,1.42858 0.45175,2.93046 0,4.28572 -0.21296,0.63887 -1.21561,0.78969 -1.42857,1.42857 -0.30117,0.90351 0,1.90476 0,2.85714 0,2.38095 0,4.76191 0,7.14286 0,0.95238 0.23098,1.9332 0,2.85714 -0.25825,1.033 -1.09186,1.84699 -1.42857,2.85715 -0.45176,1.35526 0.34648,2.89979 0,4.28571 -0.25825,1.033 -1.25352,1.80684 -1.42858,2.85714 0,14.93771 0.85184,-0.5502 -1.42857,8.57143 -0.28093,1.12374 0,7.08582 0,8.57143 0,0.47619 0.21296,1.00265 0,1.42857 -0.30117,0.60234 -1.1274,0.82623 -1.42857,1.42857 -0.41005,0.8201 0.30401,5.92684 0,7.14286 -0.25825,1.033 -1.17032,1.82414 -1.42857,2.85714 -0.23099,0.92395 0,1.90476 0,2.85715 0,1.42857 0,2.85714 0,4.28571 0,0.47619 0.15058,0.97686 0,1.42856 -0.33672,1.0102 -1.17032,1.8241 -1.42857,2.8571 -0.23695,0.9479 0,7.3595 0,8.5715 0,0.4762 0.21296,1.0026 0,1.4285 -0.9802,1.9604 -7.00601,4.2076 -7.14286,4.2858 -1.49071,0.8518 -2.91217,1.8269 -4.28571,2.8571 -0.53875,0.4041 -0.7897,1.2156 -1.42857,1.4286 -0.90351,0.3011 -1.95364,-0.3012 -2.85715,0 -0.63887,0.2129 -0.82623,1.1274 -1.42857,1.4285 -0.42592,0.213 -0.97682,-0.1505 -1.42857,0 -1.01015,0.3368 -1.82414,1.1704 -2.85714,1.4286 -2.81007,0.7025 -5.69259,1.1087 -8.57143,1.4286 -1.41984,0.1578 -2.8998,-0.3465 -4.28572,0 -0.65332,0.1633 -0.76821,1.2965 -1.42857,1.4286 -1.57909,0.3158 -13.83239,0 -15.71428,0 -0.56474,0 -6.53274,0.305 -7.14286,0 -0.60234,-0.3012 -0.88982,-1.0245 -1.42857,-1.4286 -1.37354,-1.0302 -2.94502,-1.7846 -4.28572,-2.8572 -1.05172,-0.8413 -1.77964,-2.049 -2.85714,-2.8571 -0.92775,-0.6958 -7.41864,-3.9014 -8.57143,-4.2857 -0.45175,-0.1506 -0.97681,0.1506 -1.42857,0 -2.0203,-0.6734 -3.69398,-2.1837 -5.71428,-2.8572 -0.45176,-0.1505 -1.00266,0.213 -1.42858,0 -6.53801,-3.269 6.06203,0.5922 -4.28571,-2.8571 -0.45175,-0.1506 -0.96163,0.093 -1.42857,0 -1.92526,-0.385 -3.85166,-0.8077 -5.71429,-1.4286 -11.52388,-3.8413 -3.37598,-3.2003 -18.57143,-4.2857 -23.3517,0 1.13534,0.9035 -12.85714,-1.4286 -2.12434,-0.354 -6.15225,0 -8.57143,0 -0.47619,0 -1.09185,0.3368 -1.42857,0 -1.90476,-1.9047 2.38095,-1.4285 -1.42857,-1.4285 -0.47619,0 -1.90476,0 -1.42857,0 0.95238,0 3.70898,0.4259 2.85714,0 -1.7561,-0.8781 -3.87591,-0.7392 -5.71428,-1.4286 -1.994,-0.7477 -3.69398,-2.1837 -5.71429,-2.85713 -0.90351,-0.30117 -1.91772,0.15657 -2.85714,0 -21.30308,-3.55052 6.98395,0.53965 -10,-2.85714 -0.93389,-0.18678 -1.9332,0.23098 -2.85715,0 -1.033,-0.25826 -1.84699,-1.09186 -2.85714,-1.42858 -4.25262,-1.41754 2.93115,3.38268 -4.28571,-1.42857 -0.56033,-0.37355 -0.86824,-1.05501 -1.42857,-1.42857 -0.88597,-0.59064 -1.97118,-0.83793 -2.85715,-1.42857 -0.56033,-0.37355 -0.95238,-0.95238 -1.42857,-1.42857 -0.47619,-0.47619 -1.1274,-0.82623 -1.42857,-1.42857 -0.21296,-0.42592 0.21296,-1.00266 0,-1.42857 -2.304,-4.608 -0.55314,1.75085 -2.85714,-2.85715 -0.21296,-0.42592 0.21296,-1.00265 0,-1.42857 -0.30117,-0.60234 -1.21562,-0.78969 -1.42857,-1.42857 -0.30117,-0.90351 0.42591,-2.00531 0,-2.85714 -0.60234,-1.20468 -2.25481,-1.65247 -2.85715,-2.85715 -0.63887,-1.27775 0.63888,-3.00796 0,-4.28571 -0.30117,-0.60234 -1.1274,-0.82623 -1.42857,-1.42857 C 69.84942,964.91816 70,964.79723 70,962.36218 c 0,-0.95238 0.23099,-1.9332 0,-2.85714 -0.25825,-1.033 -1.09185,-1.84699 -1.42857,-2.85714 -0.15059,-0.45176 0,-0.95238 0,-1.42857 0,-0.95239 0,-1.90477 0,-2.85715 0,-2.38095 0,-4.7619 0,-7.14285 0,-0.95239 0.30117,-1.95364 0,-2.85715 -0.21296,-0.63887 -1.1274,-0.82623 -1.42857,-1.42857 -0.21296,-0.42592 0,-0.95238 0,-1.42857 0,-1.42857 0,-2.85714 0,-4.28571 0,-1.90477 0,-3.80953 0,-5.71429 0,-0.47619 0.33671,-1.09185 0,-1.42857 -0.33672,-0.33672 -1.09186,0.33672 -1.42857,0 -0.33672,-0.33672 0,-0.95238 0,-1.42857 0,-3.80953 0,-7.61905 0,-11.42857 0,-1.42858 0.28016,-2.88489 0,-4.28572 -0.20883,-1.04412 -1.27799,-1.80305 -1.42858,-2.85714 -0.33671,-2.35702 0.21557,-4.77168 0,-7.14286 -0.26224,-2.88466 -1.16633,-5.68677 -1.42857,-8.57143 -0.21556,-2.37117 0.26294,-4.77646 0,-7.14285 -1.47629,-13.28663 -1.0512,0.83561 -2.85714,-10 -0.31314,-1.87885 0,-3.80953 0,-5.71429 0,-0.47619 0.33672,-1.09185 0,-1.42857 -0.33672,-0.33672 -1.31308,0.46197 -1.42857,0 -0.46197,-1.84789 0.26937,-3.82867 0,-5.71429 -2.45677,-17.1974 -0.71342,14.29608 -2.85714,-11.42857 -0.27682,-3.32182 0.50685,-6.70543 0,-10 -0.45795,-2.97667 -2.36203,-5.60071 -2.85715,-8.57143 -0.46971,-2.81827 0.46971,-5.75316 0,-8.57143 C 49.84942,805.74439 50,819.65771 50,813.79075 c 0,-6.19047 0,-12.38095 0,-18.57142 0,-0.95239 -0.23099,-1.9332 0,-2.85715 0.8408,-3.36321 2.01634,-6.63679 2.85714,-10 0.1155,-0.46197 0,-0.95238 0,-1.42857 0.95238,-3.80952 1.77838,-7.65289 2.85715,-11.42857 0.82737,-2.89582 2.02976,-5.67561 2.85714,-8.57143 0.26164,-0.91574 -0.18678,-1.92326 0,-2.85714 0.38505,-1.92526 0.80769,-3.85166 1.42857,-5.71429 0.33672,-1.01015 1.21975,-1.81302 1.42857,-2.85714 0,-10.89805 -0.63888,1.12693 1.42857,-7.14286 0.48648,-1.94591 -0.57609,-6.84316 0,-8.57143 0.21296,-0.63887 1.12741,-0.82623 1.42857,-1.42857 0.21296,-0.42592 -0.0673,-0.95716 0,-1.42857 0.40964,-2.86744 1.0693,-5.69724 1.42858,-8.57143 0.11812,-0.94502 0,-1.90476 0,-2.85714 0,-2.38095 0,-4.76191 0,-7.14286 0,-0.47619 -0.1155,-0.9666 0,-1.42857 1.72974,-6.91896 1.42857,-1.68588 1.42857,-7.14286"
       id="path3807"
       style="fill:none;stroke:#8d1990;stroke-width:1px;stroke-linecap:butt;stroke-linejoin:miter;stroke-opacity:1" />
    <path
       d="m 144.28571,762.36218 c 3.33334,0 6.66667,0 10,0 0.47619,0 1.00266,-0.21296 1.42858,0 0.60233,0.30117 0.77524,1.26524 1.42857,1.42857 1.38592,0.34648 2.87658,-0.23485 4.28571,0 1.48536,0.24756 2.80911,1.13325 4.28572,1.42858 1.40083,0.28016 2.93045,-0.45176 4.28571,0 1.01015,0.33671 1.84699,1.09185 2.85714,1.42857 0.45176,0.15058 1.09186,-0.33672 1.42857,0 0.33672,0.33671 -0.42591,1.21561 0,1.42857 0.85184,0.42592 1.91772,-0.15657 2.85715,0 1.93667,0.32278 3.77761,1.10579 5.71428,1.42857 0.93943,0.15657 1.90476,0 2.85715,0 4.7619,0 9.52381,0 14.28571,0 3.33333,0 6.66667,0 10,0 1.42857,0 2.85714,0 4.28571,0 0.47619,0 0.95239,0 1.42858,0 0.47619,0 1.00265,0.21296 1.42857,0 0.37193,-0.18596 1.74039,-2.54532 2.85714,-1.42857 0.33672,0.33672 -0.21296,1.00265 0,1.42857 0.30117,0.60234 0.95238,0.95238 1.42857,1.42857 0.47619,0.47619 0.86824,1.05502 1.42857,1.42857 1.30499,0.86999 3.46685,1.21941 4.28572,2.85715 0.21296,0.42591 -0.21296,1.00265 0,1.42857 0.60234,1.20467 2.2548,1.65246 2.85714,2.85714 0.21296,0.42592 -0.33672,1.09185 0,1.42857 0.33672,0.33672 1.09185,-0.33672 1.42857,0 0.33672,0.33672 0,0.95238 0,1.42857 0,2.66656 -1.06842,3.92556 -2.85714,5.71429 -0.47619,0.47619 -0.95238,0.95238 -1.42857,1.42857 -0.47619,0.47619 -0.77525,1.26524 -1.42857,1.42857 -1.38592,0.34648 -2.85715,0 -4.28572,0 -0.95238,0 -1.95363,-0.30117 -2.85714,0 -0.63888,0.21296 -0.82623,1.1274 -1.42857,1.42857 -0.42592,0.21296 -0.95238,0 -1.42857,0 -1.42858,0 -2.85715,0 -4.28572,0 -6.89487,0 -2.01227,0.34648 -10,-1.42857 -3.531,-2.98846 -7.66395,-0.67565 -11.42857,-1.42857 -1.04412,-0.20882 -1.84699,-1.09185 -2.85714,-1.42857 -0.90351,-0.30117 -1.92326,0.18678 -2.85715,0 -1.92525,-0.38505 -3.80952,-0.95238 -5.71428,-1.42857 -1.90476,-0.47619 -3.80953,-0.95238 -5.71429,-1.42857 -1.90476,-0.4762 -3.76606,-1.18505 -5.71428,-1.42858 -1.89006,-0.23625 -3.83544,0.31314 -5.71429,0 -1.05031,-0.17505 -1.84699,-1.09185 -2.85714,-1.42857 -0.90351,-0.30117 -1.9332,0.23099 -2.85714,0 -1.46089,-0.36522 -2.80911,-1.13325 -4.28572,-1.42857 -1.86777,-0.37355 -3.86639,0.46197 -5.71428,0 -1.03301,-0.25825 -1.84699,-1.09185 -2.85715,-1.42857 -2.14285,-0.71429 -1.42857,1.42857 -4.28571,0 -0.42592,-0.21296 0.33672,-1.09185 0,-1.42857 -0.33672,-0.33672 -1.00265,0.21296 -1.42857,0 -0.60234,-0.30117 -0.86824,-1.05502 -1.42857,-1.42857 -2.1561,-1.4374 -7.63226,-3.81217 -10,-4.28572 -0.93389,-0.18677 -2.00531,0.42592 -2.85715,0 -0.42591,-0.21296 0.33672,-1.09185 0,-1.42857 -0.33671,-0.33672 -0.97681,0.15059 -1.42857,0 -1.01015,-0.33672 -1.97118,-0.83793 -2.85714,-1.42857 -4.73798,-4.73798 1.34687,0.67343 -2.85714,-1.42857 -0.60234,-0.30117 -0.7897,-1.21561 -1.42858,-1.42857 -5.40637,-1.80213 -7.54216,-1.42857 -12.85714,-1.42857 -18.93506,0 -2.67072,1.49071 -15.71428,-2.85715 -0.90351,-0.30117 -1.9332,0.23099 -2.85715,0 -0.99427,-0.24857 -3.66335,-1.61242 -4.28571,-2.85714 -0.14652,-0.29304 -0.20147,-4.08425 0,-4.28571 0.75292,-0.75293 2.00531,-0.7897 2.85714,-1.42858 1.0775,-0.80812 1.90476,-1.90476 2.85714,-2.85714 0.95239,-0.95238 1.90477,-1.90476 2.85715,-2.85714 0.47619,-0.47619 0.86824,-1.05502 1.42857,-1.42857 0.88596,-0.59064 1.97118,-0.83793 2.85714,-1.42857 0.56033,-0.37356 0.7897,-1.21562 1.42857,-1.42858 0.90351,-0.30117 1.90476,0 2.85715,0 1.42857,0 2.85714,0 4.28571,0 4.7619,0 9.52381,0 14.28571,0 1.42858,0 2.85715,0 4.28572,0 0.47619,0 1.09185,-0.33671 1.42857,0 0.33672,0.33672 -0.42592,1.21562 0,1.42858 4.05188,2.02593 8.5523,1.42857 12.85714,1.42857 0.95238,0 1.9332,-0.23099 2.85715,0 1.033,0.25825 1.81302,1.21974 2.85714,1.42857 1.40083,0.28016 2.85714,0 4.28571,0 2.85715,0 5.71429,0 8.57143,0 0.95238,0 1.9332,-0.23099 2.85714,0 1.46089,0.36522 2.80911,1.13325 4.28572,1.42857 0.93389,0.18678 1.95363,-0.30117 2.85714,0 0.63888,0.21296 0.86824,1.05502 1.42857,1.42857 0.88597,0.59064 1.84699,1.09185 2.85715,1.42857 1.86263,0.62088 3.85165,0.8077 5.71428,1.42857 6.42857,2.14286 -1.42857,1.42858 8.57143,4.28572 1.37361,0.39246 2.88488,-0.28017 4.28571,0 1.04412,0.20882 1.81303,1.21975 2.85715,1.42857 2.33471,0.46694 4.80814,-0.46694 7.14285,0 1.42858,0.47619 2.85715,0.95238 4.28572,1.42857 0.47619,0.47619 0.78969,1.21561 1.42857,1.42857 0.90351,0.30117 1.9332,-0.23098 2.85714,0 1.03301,0.25825 1.84699,1.09186 2.85715,1.42857 0.45175,0.15059 1.00265,-0.21296 1.42857,0 5.94537,2.97269 -1.5272,-0.0986 1.42857,2.85715 0.75292,0.75292 1.97118,0.83793 2.85714,1.42857 0.56033,0.37355 0.82623,1.1274 1.42857,1.42857 0.42592,0.21296 0.97682,-0.15059 1.42857,0 2.02031,0.67343 3.64829,2.34064 5.71429,2.85714 0.92395,0.23099 1.90476,0 2.85714,0 0.95238,0 1.90476,0 2.85715,0 0.47619,0 0.97681,-0.15058 1.42857,0 1.01015,0.33672 1.80683,1.25352 2.85714,1.42857 1.87885,0.31314 3.80952,0 5.71429,0 3.80952,0 7.61904,0 11.42857,0 1.42857,0 2.85714,0 4.28571,0 0.47619,0 1.09186,-0.33671 1.42857,0 0.33672,0.33672 -0.33671,1.09186 0,1.42858 0.33672,0.33671 1.09186,-0.33672 1.42857,0 0.33672,0.33671 0,0.95238 0,1.42857 0,0.47619 0,0.95238 0,1.42857 0,1.42857 0.63888,3.00796 0,4.28571 -0.21295,0.42592 -1.09185,-0.33672 -1.42857,0 -0.33671,0.33672 0.21296,1.00266 0,1.42857 -0.30117,0.60234 -0.95238,0.95238 -1.42857,1.42858 -0.47619,0.47619 -0.82623,1.1274 -1.42857,1.42857 -0.42592,0.21296 -0.97682,-0.15059 -1.42857,0 -1.01015,0.33671 -1.84699,1.09185 -2.85714,1.42857 -0.45176,0.15058 -1.00266,-0.21296 -1.42858,0 -0.60233,0.30117 -0.82623,1.1274 -1.42857,1.42857 -0.42591,0.21296 -0.95238,0 -1.42857,0 -1.42857,0 -2.85714,0 -4.28571,0 -2.11451,0 -5.05056,-0.2989 -7.14286,0 -4.24024,-0.77678 -7.55523,2.21159 -11.42857,2.85714 -1.69051,0.28175 -9.55424,0 -11.42857,0 -3.80953,0 0.47619,-0.47619 -1.42857,1.42857 -0.33672,0.33672 -0.95239,0 -1.42858,0 -6.55095,0 1.50585,0.30117 -7.14285,-1.42857 -0.79532,-0.15906 -5.57517,0.13912 -5.71429,0 -0.33672,-0.33672 0.44213,-1.25172 0,-1.42857 -2.25444,-0.90177 -4.78725,-0.83967 -7.14286,-1.42857 -1.46088,-0.36522 -2.8378,-1.01488 -4.28571,-1.42857 -1.88784,-0.53938 -3.83371,-0.8644 -5.71429,-1.42857 -2.88467,-0.86541 -5.67561,-2.02977 -8.57142,-2.85715 -0.45787,-0.13082 -1.00266,0.21296 -1.42858,0 -0.60233,-0.30117 -0.82623,-1.1274 -1.42857,-1.42857 -0.42591,-0.21296 -0.97681,0.15059 -1.42857,0 -1.01015,-0.33672 -1.80683,-1.25352 -2.85714,-1.42857 -1.87885,-0.31314 -3.82867,0.26937 -5.71429,0 -1.49071,-0.21296 -2.795,-1.21561 -4.28571,-1.42857 -9.78905,0 -1.87636,0.60234 -10,-1.42857 -0.46197,-0.1155 -0.95238,0 -1.42857,0 -2.38096,0 -4.76191,0 -7.14286,0 -0.47619,0 -0.97682,0.15058 -1.42857,0 -1.01015,-0.33672 -1.84699,-1.09186 -2.85714,-1.42857 -0.98262,-0.32754 -3.44283,0.42144 -4.28572,0 -1.20468,-0.60234 -1.73648,-2.11004 -2.85714,-2.85715 -2.63736,-1.75824 -5.93407,-2.52747 -8.57143,-4.28571 -0.56033,-0.37356 -0.95238,-0.95238 -1.42857,-1.42857 -0.47619,-0.47619 -1.1274,-0.82623 -1.42857,-1.42857 -0.42592,-0.85184 0.42591,-2.00531 0,-2.85715 -0.30117,-0.60233 -1.1274,-0.82623 -1.42857,-1.42857 -0.21296,-0.42592 0.15058,-0.97682 0,-1.42857 -0.67344,-2.0203 -2.34065,-3.64828 -2.85715,-5.71428 -0.34648,-1.38592 0,-2.85715 0,-4.28572 0,-0.47619 -0.42591,-1.21561 0,-1.42857 0.85184,-0.42592 1.90476,0 2.85715,0 1.90476,0 3.80952,0 5.71428,0 1.42857,0 2.85714,0 4.28572,0 0.47619,0 0.97681,-0.15059 1.42857,0 1.01015,0.33672 1.84699,1.09185 2.85714,1.42857 0.90351,0.30117 2.00531,-0.42592 2.85714,0 0.60234,0.30117 0.86824,1.05502 1.42857,1.42857 0.88597,0.59064 1.90477,0.95238 2.85715,1.42857 0.95238,0.47619 1.84699,1.09186 2.85714,1.42858 0.90351,0.30116 2.00531,-0.42592 2.85714,0 0.60234,0.30116 0.82624,1.1274 1.42857,1.42857 0.42592,0.21296 0.95239,0 1.42858,0 0.95238,0.47619 1.97118,0.83793 2.85714,1.42857 1.98107,1.32071 3.39003,3.76921 5.71428,4.28571 2.37029,0.52673 4.71476,-1.42857 7.14286,-1.42857 1.0648,0 1.81303,1.21975 2.85714,1.42857 1.40083,0.28017 2.85715,0 4.28572,0 1.90476,0 3.80952,0 5.71428,0"
       id="path3809"
       style="fill:none;stroke:#8d1990;stroke-width:1px;stroke-linecap:butt;stroke-linejoin:miter;stroke-opacity:1" />
    <path
       d="m 97.83984,829.70711 c 3.28828,0.72459 6.57656,1.44918 9.86486,2.17377 1.38888,0.58189 2.70399,1.3875 4.16663,1.74565 1.38758,0.33978 2.95606,-0.23092 4.27368,0.3211 0.43919,0.18401 -0.5158,1.18028 -0.10704,1.42455 0.81753,0.48855 1.93184,-0.0421 2.84911,0.21407 6.85376,1.91447 13.03513,4.48158 19.51566,7.19667 1.38888,0.58188 2.81433,1.08321 4.16664,1.74565 0.95623,0.46841 1.90286,0.98326 2.74209,1.63862 3.09653,2.41813 -0.9755,1.0607 4.0596,3.1702 1.81087,0.75869 3.78032,1.09401 5.59119,1.85269 0.98209,0.41145 1.70784,1.38537 2.74208,1.63862 1.8501,0.45303 3.79882,0.28542 5.69822,0.42813 0.94972,0.0713 1.94507,-0.0855 2.84912,0.21406 1.01075,0.33492 1.76,1.22716 2.74208,1.63862 0.87841,0.36802 2.22803,-0.50794 2.84911,0.21406 0.31055,0.361 -0.56566,1.29645 -0.10703,1.42456 2.29317,0.64055 4.74852,0.35677 7.12278,0.53516 3.32396,0.24974 6.64793,0.49948 9.9719,0.74922 1.42455,0.10703 2.84911,0.21406 4.27366,0.32109 0.47485,0.0357 0.98536,-0.077 1.42457,0.10703 0.98208,0.41146 1.75999,1.22717 2.74207,1.63862 0.4392,0.18401 1.01579,-0.13724 1.42456,0.10703 0.57808,0.34545 0.73944,1.18614 1.31752,1.53159 3.53309,2.11131 5.93019,1.87815 9.86486,2.17378 1.42456,0.10703 2.84911,0.21406 4.27368,0.32109 0.47485,0.0357 0.96278,0.22335 1.42455,0.10703 1.03254,-0.26008 1.9067,-1.03036 2.95614,-1.21049 0.70707,-0.12136 4.91667,0.74817 5.69823,0.42813 0.62321,-0.2552 1.02106,-0.87835 1.53159,-1.31753 0.51053,-0.43917 1.1171,-0.78675 1.53159,-1.31752 0.65535,-0.83922 1.02392,-1.87264 1.63861,-2.74208 0.99118,-1.40194 2.17904,-2.65767 3.17021,-4.05961 0.7471,-1.0567 2.37138,-3.43925 1.74565,-4.16663 -0.31054,-0.361 -1.01579,0.13724 -1.42456,-0.10703 -0.57808,-0.34546 -0.87834,-1.02106 -1.31752,-1.53159 -0.87835,-1.02106 -1.62113,-2.1766 -2.63505,-3.06318 -1.60315,-1.4018 -3.74527,-2.04783 -5.48416,-3.27724 -1.40193,-0.99117 -2.51773,-2.41491 -4.0596,-3.1702 -6.48499,-0.48724 -0.13193,0.66541 -4.16665,-1.74565 -0.81752,-0.48855 -2.03157,0.27447 -2.84911,-0.21407 -0.57808,-0.34545 -0.66891,-1.35041 -1.31752,-1.53158 -1.83453,-0.51245 -3.79881,-0.28542 -5.69823,-0.42813 -0.9497,-0.0713 -1.9707,0.15394 -2.84911,-0.21406 -0.62112,-0.26023 -0.69639,-1.27137 -1.31752,-1.5316 -0.87841,-0.36802 -1.89941,-0.14271 -2.84911,-0.21406 -1.89941,-0.14271 -3.79882,-0.28542 -5.69823,-0.42813 -0.9497,-0.0714 -1.9006,-0.29981 -2.84911,-0.21406 -1.95541,0.17677 -3.88231,0.6 -5.80526,0.99644 -1.47483,0.30403 -2.88096,0.96788 -4.3807,1.10346 -1.7616,0.15924 -6.47337,-0.48637 -8.54734,-0.64219 -0.64156,-0.0482 -3.85641,-0.0718 -4.27366,-0.3211 -0.57808,-0.34545 -0.6964,-1.27137 -1.31753,-1.53159 -0.8784,-0.36801 -1.93184,0.0422 -2.84911,-0.21406 -4.03783,2.13142 -3.51999,-2.45433 -5.48416,-3.27724 -0.87841,-0.36802 -1.97071,0.15395 -2.84912,-0.21407 -0.62112,-0.26022 -0.69639,-1.27136 -1.31752,-1.53158 -0.87841,-0.36802 -1.92406,0.0125 -2.84911,-0.21407 -1.90705,-0.46697 -3.7002,-1.32447 -5.5912,-1.85268 -0.91726,-0.25622 -1.89941,-0.14271 -2.84911,-0.21406 -1.39465,-0.10479 -8.68627,-0.39011 -9.97189,-0.74922 -1.02554,-0.28646 -1.73133,-1.3037 -2.74208,-1.63862 -0.90405,-0.29957 -1.89941,-0.14271 -2.84912,-0.21407 -2.37426,-0.17838 -4.74852,-0.35677 -7.12278,-0.53515 -0.47485,-0.0357 -1.01579,0.13724 -1.42455,-0.10703 -0.57808,-0.34546 -0.6964,-1.27136 -1.31753,-1.53159 -0.55315,-0.23175 -7.96577,-0.78868 -8.54733,-0.64219 -0.65304,0.16449 -0.87856,1.15303 -1.5316,1.31752 -0.92352,0.23263 -1.90385,-0.33035 -2.84911,-0.21406 -2.98916,0.36772 -5.79312,1.69744 -8.7614,2.20692 -1.51861,0.26066 -4.2933,-0.78201 -5.69822,-0.42813 -1.03255,0.26009 -1.97076,0.807 -2.95615,1.21049 -0.98538,0.4035 -2.05883,0.63724 -2.95614,1.2105 -1.13501,0.72513 -2.04212,1.7567 -3.06318,2.63505 -0.51052,0.43918 -1.18613,0.73944 -1.53158,1.31753 -0.24427,0.40876 -0.0714,0.9497 -0.10703,1.42455 -0.0714,0.9497 -0.4467,1.92558 -0.21407,2.84911 0.1645,0.65304 0.987,0.94484 1.31753,1.53159 0.15696,0.27865 2.33656,5.81415 2.42098,5.91229 0.69439,0.80721 1.82805,1.09241 2.74208,1.63862 0.91403,0.5462 1.82806,1.09241 2.74209,1.63862 0.91402,0.5462 1.82805,1.09241 2.74207,1.63861 0.91403,0.54621 1.73133,1.3037 2.74208,1.63863 0.90405,0.29956 1.94507,-0.0855 2.84912,0.21406 1.01075,0.33492 1.70784,1.38537 2.74208,1.63862 1.8501,0.45303 3.79881,0.28542 5.69822,0.42813 1.89942,0.14271 3.79882,0.28542 5.69823,0.42813 6.17308,0.4638 12.34615,0.9276 18.51923,1.39141 3.79881,0.28541 7.59764,0.57083 11.39645,0.85625 0.9497,0.0714 1.97071,-0.15395 2.84911,0.21406 8.75733,3.66896 -6.25253,-0.58296 8.33328,3.4913 2.2989,0.64216 6.40657,-0.0672 8.54733,0.64219 1.01075,0.33492 1.71655,1.35216 2.74208,1.63862 1.3759,0.38434 2.84912,0.21406 4.27368,0.3211 2.37425,0.17838 4.74851,0.35677 7.12277,0.53515 0.47485,0.0357 0.94971,0.0714 1.42457,0.10704 0.47485,0.0357 1.01578,-0.13725 1.42455,0.10703 0.57808,0.34545 0.73944,1.18613 1.31752,1.53158 0.40877,0.24428 0.94971,0.0714 1.42456,0.10703 0.9497,0.0714 1.97071,-0.15395 2.84911,0.21407 0.62113,0.26023 0.6964,1.27136 1.31752,1.53158 0.81261,0.34045 7.32461,0.55033 8.54734,0.64219 1.39465,0.10479 8.64704,0.91221 9.97189,0.74923 1.05684,-0.13001 1.92361,-0.95041 2.95616,-1.2105 0.46176,-0.11631 0.96278,0.22336 1.42455,0.10704 1.03254,-0.26009 1.9067,-1.03037 2.95614,-1.2105 0.93866,-0.16111 1.92559,0.4467 2.84911,0.21407 0.65304,-0.1645 0.87856,-1.15303 1.53159,-1.31753 0.92353,-0.23263 1.91046,0.37518 2.84912,0.21407 1.04944,-0.18013 1.90669,-1.03036 2.95614,-1.21049 1.2957,-0.2224 5.47382,0.41126 7.12278,0.53515 0.47485,0.0357 0.94971,0.0714 1.42456,0.10704 0.47485,0.0357 0.98387,0.28748 1.42455,0.10703 0.62321,-0.2552 0.90838,-1.06233 1.53159,-1.31753 1.37854,-0.56449 2.07835,1.4386 2.95614,-1.21049 0.44934,-1.35606 0.21406,-2.84912 0.3211,-4.27367 0.0713,-0.94971 0.1427,-1.89941 0.21406,-2.84911 0.0896,-1.19291 0.7246,-6.01911 0.53516,-7.12279 -0.36026,-2.09889 -1.9008,-3.8472 -2.42099,-5.91228 -0.55172,-2.19035 1.53159,-1.31753 0.3211,-4.27367 -0.18045,-0.44068 -1.46023,0.36782 -1.42456,-0.10703 0.0357,-0.47486 1.89941,0.1427 1.42456,0.10703 -2.84911,-0.21407 -5.69822,-0.42813 -8.54734,-0.64219 -6.17307,-0.46381 -12.34615,-0.92761 -18.51923,-1.39141 -1.09635,-0.0824 -6.63402,-0.7353 -7.12278,-0.53516 -0.44068,0.18045 0.25396,1.11401 -0.10703,1.42455 -0.361,0.31055 -0.9497,-0.0713 -1.42455,-0.10703 -0.47486,-0.0357 -0.94972,-0.0713 -1.42457,-0.10703 -4.27366,-0.3211 -8.54733,-0.64219 -12.821,-0.96329 -0.94971,-0.0714 -1.89941,-0.1427 -2.84911,-0.21406 -0.47485,-0.0357 -0.98536,0.077 -1.42456,-0.10703 -0.98209,-0.41146 -1.70223,-1.40948 -2.74208,-1.63862 -3.25524,-0.7173 -6.71665,-0.0319 -9.9719,-0.74922 -2.37122,-0.52251 -4.64452,-1.4372 -7.01574,-1.95971 -0.97657,-0.21519 -5.16964,-0.10478 -7.12279,-0.53516 -1.91738,-0.4225 -3.6738,-1.43018 -5.59119,-1.85268 -2.7902,-0.61484 -5.77218,0.0374 -8.54733,-0.64219 -1.46264,-0.35815 -2.73722,-1.27201 -4.16665,-1.74565 -0.90403,-0.29957 -1.8994,-0.14271 -2.8491,-0.21406 -2.37426,-0.17839 -4.79762,-0.0228 -7.12279,-0.53516 -1.91738,-0.42252 -3.7002,-1.32447 -5.59119,-1.85268 -1.52971,-0.4273 -10.84654,-0.81494 -11.39646,-0.85626 -0.9497,-0.0713 -1.94506,0.0855 -2.84911,-0.21406 -6.18055,-2.04798 -2.16704,-1.59542 -5.59118,-1.85269 -0.47485,-0.0357 -1.00967,-0.34075 -1.42457,-0.10703 -4.48773,2.52802 -1.5851,2.0298 -4.59476,3.95258 -12.21955,7.80666 4.80451,-4.09599 -10.50705,6.37356 -0.5559,0.38011 -0.90837,1.06233 -1.53159,1.31752 -0.44067,0.18045 -1.06356,-0.41758 -1.42455,-0.10703 -0.361,0.31054 -0.0714,0.9497 -0.10703,1.42456 -0.23141,3.08002 1.44781,5.44088 3.7385,7.44387 0.80158,0.7009 2.04769,0.8314 2.74208,1.63862 0.69441,0.80722 0.5161,2.14893 1.2105,2.95614 1.38879,1.61444 3.88101,1.87544 5.48416,3.27724 5.69868,6.62457 -0.39415,0.19492 5.37713,4.7018 0.53077,0.41448 0.6964,1.27136 1.31753,1.53159 0.8784,0.36801 1.94507,-0.0855 2.84911,0.21406 1.01075,0.33492 1.75999,1.22716 2.74208,1.63862 0.4392,0.184 1.01579,-0.13724 1.42456,0.10703 0.57807,0.34545 0.73944,1.18613 1.31752,1.53159 0.40876,0.24427 0.94971,0.0713 1.42456,0.10703 0.9497,0.0713 1.94507,-0.0855 2.84911,0.21406 1.01075,0.33492 1.73133,1.3037 2.74208,1.63862 1.09953,0.36434 7.06591,0.53089 8.54734,0.64219 3.32397,0.24974 6.64793,0.49948 9.97189,0.74922 0.9497,0.0714 1.89941,0.14271 2.84912,0.21406 0.47485,0.0357 1.01579,-0.13724 1.42455,0.10704 0.57809,0.34545 0.6964,1.27135 1.31753,1.53158 0.8784,0.36802 1.9707,-0.15395 2.84911,0.21407 0.62113,0.26022 0.87835,1.02105 1.31752,1.53159 1.86373,0.61756 3.7002,1.32447 5.5912,1.85268 0.45863,0.12813 0.9497,0.0714 1.42455,0.10704 1.42456,0.10703 2.84911,0.21406 4.27367,0.32109 2.37426,0.17839 4.74852,0.35677 7.12278,0.53516 6.64793,0.49948 13.29586,0.99896 19.94379,1.49844"
       id="path3811"
       style="fill:none;stroke:#8d1990;stroke-width:1px;stroke-linecap:butt;stroke-linejoin:miter;stroke-opacity:1" />
    <path
       d="m 130,686.6479 c 3.33333,0 6.66667,0 10,0 0.47619,0 1.00265,0.21296 1.42857,0 0.60234,-0.30117 0.7897,-1.21562 1.42857,-1.42857 0.90351,-0.30117 1.90476,0 2.85715,0 0.95238,0 1.90476,0 2.85714,0 5.23809,0 10.47619,0 15.71428,0 0.95239,0 1.90477,0 2.85715,0 0.47619,0 0.9666,-0.1155 1.42857,0 2.92177,0.73044 5.61822,2.2665 8.57143,2.85714 0.93388,0.18678 1.90476,0 2.85714,0 0.95238,0.47619 1.84699,1.09185 2.85714,1.42857 0.45176,0.15058 1.09186,-0.33672 1.42857,0 0.33672,0.33672 -0.42591,1.21561 0,1.42857 0.85184,0.42592 1.9332,-0.23099 2.85715,0 1.033,0.25825 1.84699,1.09185 2.85714,1.42857 0.45175,0.15059 0.97682,-0.15058 1.42857,0 10.34774,3.44925 -2.25229,-0.41186 4.28572,2.85715 0.42591,0.21295 1.00265,-0.21296 1.42857,0 0.60234,0.30116 0.78969,1.21561 1.42857,1.42857 0.90351,0.30117 1.9332,-0.23099 2.85714,0 1.033,0.25825 1.90476,0.95238 2.85714,1.42857 0.95239,0.47619 1.90477,0.95238 2.85715,1.42857 0.95238,0.47619 1.90476,0.95238 2.85714,1.42857 0.47619,0 0.97682,-0.15058 1.42857,0 3,1 5.57143,3.28572 8.57143,4.28572 0.90351,0.30116 2.18371,-0.67344 2.85714,0 0.33672,0.33671 -0.21296,1.00265 0,1.42857 2.97269,5.94537 -0.0986,-1.5272 2.85715,1.42857 0.33671,0.33672 -0.33672,1.09185 0,1.42857 0.33671,0.33672 1.00265,-0.21296 1.42857,0 5.94537,2.97269 -1.5272,-0.0986 1.42857,2.85714 1.90476,1.90476 1.42857,-2.38095 1.42857,1.42857 0,0.74703 0.18782,5.33866 0,5.71429 -0.30117,0.60234 -0.95238,0.95238 -1.42857,1.42857 -0.47619,0.47619 -0.82623,1.1274 -1.42857,1.42857 -0.42592,0.21296 -0.95238,0 -1.42857,0 -0.47619,0 -0.95239,0 -1.42858,0 -1.42857,0 -2.88488,0.28017 -4.28571,0 -3.85051,-0.7701 -7.57806,-2.08704 -11.42857,-2.85714 -0.46694,-0.0934 -0.95238,0 -1.42857,0 -1.90476,0 -3.80953,0 -5.71429,0 -0.47619,0 -1.09185,0.33672 -1.42857,0 -0.33672,-0.33672 0.33672,-1.09185 0,-1.42857 -0.33672,-0.33672 -1.00265,0.21296 -1.42857,0 -0.60234,-0.30117 -0.82623,-1.1274 -1.42857,-1.42857 -0.42592,-0.21296 -1.00266,0.21296 -1.42857,0 -0.60234,-0.30117 -0.7897,-1.21562 -1.42858,-1.42857 -0.6508,-0.21694 -9.03254,0 -10,0 -6.19047,0 -12.38095,0 -18.57142,0 -1.01258,0 -8.20207,0.18467 -8.57143,0 -0.60234,-0.30117 -0.82624,-1.12741 -1.42857,-1.42858 -1.34687,-0.67343 -2.82483,-1.06335 -4.28572,-1.42857 -0.46197,-0.11549 -1.00265,0.21296 -1.42857,0 -0.60234,-0.30117 -0.82623,-1.1274 -1.42857,-1.42857 -0.42592,-0.21296 -1.09186,0.33672 -1.42857,0 -0.33672,-0.33672 0.33671,-1.09185 0,-1.42857 -0.33672,-0.33672 -1.00266,0.21296 -1.42857,0 -0.60234,-0.30117 -0.86824,-1.05502 -1.42858,-1.42857 -3.38187,-2.25459 -3.60126,-0.74412 -7.14285,-4.28572 -0.75293,-0.75292 -0.67565,-2.10422 -1.42857,-2.85714 -0.75293,-0.75292 -1.97118,-0.83793 -2.85715,-1.42857 -0.56033,-0.37356 -0.78969,-1.21561 -1.42857,-1.42857 -0.90351,-0.30117 -2.00531,0.42592 -2.85714,0 -0.42592,-0.21296 0.21296,-1.00266 0,-1.42857 -0.56888,-1.13776 -3.04567,-2.29158 -2.85714,-2.85715 2.12139,-6.36419 6.2169,-9.13452 11.42857,-12.85714 0.86646,-0.6189 1.97118,-0.83793 2.85714,-1.42857 0.56033,-0.37356 0.86824,-1.05502 1.42857,-1.42857 0.88596,-0.59064 2.10422,-0.67565 2.85714,-1.42857 0.33672,-0.33672 -0.33671,-1.09186 0,-1.42857 0.33672,-0.33672 0.95239,0 1.42858,0 0.55858,0 9.38384,0.20538 10,0 0.63887,-0.21296 0.82623,-1.12741 1.42857,-1.42858 0.42592,-0.21296 0.95238,0 1.42857,0 0.47619,0 0.95238,0 1.42857,0 7.54064,0 1.12475,-0.34648 10,1.42858 0.93389,0.18677 2.00531,-0.42592 2.85714,0 0.60234,0.30116 0.82624,1.1274 1.42857,1.42857 1.34687,0.67343 2.93885,0.75513 4.28572,1.42857 0.60234,0.30117 0.82623,1.1274 1.42857,1.42857 0.42592,0.21296 1.00265,-0.21296 1.42857,0 0.60234,0.30117 0.82623,1.1274 1.42857,1.42857 0.42592,0.21296 1.00266,-0.21296 1.42857,0 0.60234,0.30117 0.86824,1.05502 1.42858,1.42857 0.88596,0.59064 1.97118,0.83793 2.85714,1.42857 2.61391,1.74261 0.14252,1.82135 4.28571,2.85715 0.92395,0.23098 1.9332,-0.23099 2.85715,0 2.58563,-0.86104 2.65689,2.3142 4.28571,2.85714 0.90351,0.30117 1.95364,-0.30117 2.85714,0 0.63888,0.21296 0.95238,0.95238 1.42857,1.42857 0.95239,0.47619 1.81303,1.21975 2.85715,1.42857 1.40083,0.28017 2.93045,-0.45175 4.28571,0 0.45176,0.15059 -0.33672,1.09186 0,1.42857 0.67344,0.67344 2.00531,-0.42591 2.85714,0 0.60234,0.30117 0.86824,1.05502 1.42858,1.42858 0.88596,0.59064 1.97118,0.83793 2.85714,1.42857 0.56033,0.37355 0.95238,0.95238 1.42857,1.42857 0.47619,0.47619 1.05502,0.86824 1.42857,1.42857 1.64153,2.46229 1.42857,2.15941 1.42857,4.28571 0,0.47619 -0.21296,1.00266 0,1.42858 0.30117,0.60233 1.12741,0.82623 1.42857,1.42857 0.18468,0.36935 0,7.55885 0,8.57143 0,0.34646 0.046,4.23977 0,4.28571 -0.33671,0.33672 -1.09185,-0.33672 -1.42857,0 -0.33671,0.33672 0.33672,1.09185 0,1.42857 -0.0459,0.0459 -3.93924,0 -4.28571,0 -4.69571,0 3.92194,0.21296 -4.28572,-1.42857 -1.86777,-0.37356 -3.80952,0 -5.71428,0 -3.80953,0 -7.61905,0 -11.42857,0 -4.28572,0 -8.57143,0 -12.85715,0 -2.85714,0 -5.71428,0 -8.57142,0 -0.93873,0 -3.47972,0.26867 -4.28572,0 -2.59461,-0.86487 -2.65121,-1.22264 -4.28571,-2.85714 -0.47619,-0.47619 -0.82624,-1.12741 -1.42857,-1.42857 -0.42592,-0.21296 -1.09186,0.33671 -1.42858,0 -0.33671,-0.33672 0.33672,-1.09186 0,-1.42858 -0.75292,-0.75292 -1.97118,-0.83793 -2.85714,-1.42857 -1.12066,-0.74711 -1.73648,-2.11003 -2.85714,-2.85714 -0.88596,-0.59064 -1.97118,-0.83793 -2.85714,-1.42857 -1.12067,-0.74711 -1.57939,-2.43123 -2.85715,-2.85714 -1.18317,-0.3944 -6.23436,0.45424 -7.14285,0 -0.60234,-0.30117 -0.82624,-1.12741 -1.42858,-1.42858 -0.85183,-0.42591 -2.1837,0.67344 -2.85714,0 -0.33672,-0.33671 0.33672,-1.09185 0,-1.42857 -0.33672,-0.33672 -1.00265,0.21296 -1.42857,0 -0.60234,-0.30117 -0.82623,-1.1274 -1.42857,-1.42857 -0.42592,-0.21296 -1.00265,0.21296 -1.42857,0 -1.20468,-0.60234 -1.57939,-2.43122 -2.85715,-2.85714 -0.9035,-0.30117 -1.95363,0.30117 -2.85714,0 -0.63887,-0.21296 -0.95238,-0.95238 -1.42857,-1.42857 -0.47619,-0.47619 -0.95238,-0.95238 -1.42857,-1.42857"
       id="path3813"
       style="fill:none;stroke:#8d1990;stroke-width:1px;stroke-linecap:butt;stroke-linejoin:miter;stroke-opacity:1" />
    <path
       d="m 80,885.21933 c 1.90476,0.47619 3.77064,1.1509 5.71429,1.42857 1.41421,0.20203 2.88488,-0.28017 4.28571,0 2.08823,0.41764 3.69398,2.1837 5.71429,2.85714 0.45175,0.15058 0.97681,-0.15059 1.42857,0 1.01015,0.33672 1.80683,1.25352 2.85714,1.42857 3.75769,0.62628 7.65734,-0.53875 11.42857,0 1.49071,0.21296 2.82483,1.06335 4.28572,1.42857 0.46197,0.1155 1.09185,-0.33672 1.42857,0 2.66666,2.66667 -3.14286,0.66667 1.42857,1.42857 2.39507,0.39918 4.78725,0.83967 7.14286,1.42858 1.46088,0.36522 2.80035,1.18101 4.28571,1.42857 1.40913,0.23485 2.87658,-0.23486 4.28571,0 1.48536,0.24756 2.80036,1.18101 4.28572,1.42857 1.40913,0.23485 2.85714,0 4.28571,0 1.42857,0 2.85715,0 4.28572,0 0.47619,0 0.9666,-0.1155 1.42857,0 1.46088,0.36522 2.80911,1.13325 4.28571,1.42857 0.93389,0.18678 1.90476,0 2.85715,0 2.20643,0 5.12341,-0.33657 7.14285,0 1.48536,0.24756 2.80911,1.13325 4.28572,1.42857 0.93388,0.18678 1.90476,0 2.85714,0 6.66667,0 13.33333,0 20,0 2.85714,0 5.71429,0 8.57143,0 2.38095,0 4.78029,0.29532 7.14286,0 1.49421,-0.18678 2.82482,-1.06335 4.28571,-1.42857 0.46197,-0.11549 0.95238,0 1.42857,0 2.12238,0 3.93797,-0.34775 5.71429,1.42857 0.33671,0.33672 -0.21296,1.00265 0,1.42857 0.60234,1.20468 2.11003,1.73648 2.85714,2.85715 0.59064,0.88596 0.67565,2.10421 1.42857,2.85714 0.75292,0.75292 2.10422,0.67565 2.85714,1.42857 0.75293,0.75292 0.83793,1.97118 1.42858,2.85714 2.17933,3.26901 1.13081,-0.89327 2.85714,4.28572 0.0613,0.18381 0.0591,4.1674 0,4.28571 -0.18965,0.3793 -3.90641,4.09606 -4.28572,4.28572 -1.34687,0.67343 -2.82482,1.06335 -4.28571,1.42857 -0.46197,0.11549 -1.00265,-0.21296 -1.42857,0 -0.60234,0.30117 -0.76822,1.2965 -1.42857,1.42857 -1.86778,0.37355 -3.82424,-0.23626 -5.71429,0 -2.91911,0.36489 -6.76767,2.23665 -10,1.42857 -1.033,-0.25825 -1.83332,-1.13605 -2.85714,-1.42857 -2.33468,-0.66705 -4.78725,-0.83967 -7.14286,-1.42857 -1.46088,-0.36522 -2.80035,-1.18102 -4.28571,-1.42857 -10.13247,0 -0.83684,1.01015 -5.71429,-1.42858 -0.42592,-0.21295 -0.95886,0.0783 -1.42857,0 -2.39507,-0.39917 -4.78725,-0.83967 -7.14286,-1.42857 -15.52723,-3.88181 11.42311,1.25986 -11.42857,-1.42857 -5.75343,-0.67687 -11.46225,-1.72102 -17.14286,-2.85714 -3.85051,-0.7701 -7.52129,-2.46642 -11.42857,-2.85714 -10.4242,-1.04242 -21.00994,1.09669 -31.42857,0 -4.36614,-0.4596 -8.51101,-2.23627 -12.85714,-2.85715 -2.35702,-0.33672 -4.76191,0 -7.14286,0 -0.47619,0 -1.09185,0.33672 -1.42857,0 -0.33672,-0.33672 0,-0.95238 0,-1.42857 0,-1.42857 0,-2.85714 0,-4.28571 0,-4.76191 0,-9.52381 0,-14.28572 0,-2.38095 -1.80775,-5.59335 0,-7.14285 2.55655,-2.19133 6.65342,-1.05673 10,-1.42858 0.43941,-0.0488 4.891,-0.20582 5.71429,0 1.46088,0.36523 2.80035,1.18102 4.28571,1.42858 1.40913,0.23485 2.85714,0 4.28571,0 1.42858,0.47619 2.82483,1.06335 4.28572,1.42857 1.11025,0.27756 3.29372,-0.3968 4.28571,0 1.97728,0.79091 3.66664,2.2721 5.71429,2.85714 1.3736,0.39246 2.87658,-0.23486 4.28571,0 1.48536,0.24756 2.80036,1.18101 4.28572,1.42857 2.12434,0.35406 6.15224,0 8.57143,0 0.95238,0 1.91772,-0.15657 2.85714,0 11.88005,1.98001 1.17455,0.39152 8.57143,2.85714 1.21185,0.40395 4.23399,-0.24671 5.71428,0 2.39507,0.39918 4.72961,1.16044 7.14286,1.42858 1.89311,0.21034 3.80952,0 5.71429,0 18.28571,0 10.28571,0 28.57142,0 8.09524,0 16.19048,0 24.28572,0 3.33333,0 6.68035,0.30178 10,0 1.95532,-0.17776 3.78903,-1.04352 5.71428,-1.42858 0.46695,-0.0934 1.09186,-0.33671 1.42858,0 0.33671,0.33672 -0.33672,1.09186 0,1.42858 2.95576,2.95576 -0.11555,-4.51681 2.85714,1.42857 0.18781,0.37563 0,4.96725 0,5.71428 0,0.74703 0.18781,5.33866 0,5.71429 -0.30117,0.60234 -1.02451,0.88982 -1.42857,1.42857 -1.03016,1.37354 -1.64309,3.07166 -2.85715,4.28571 -0.33671,0.33672 -1.00265,-0.21295 -1.42857,0 -0.60234,0.30117 -0.95238,0.95238 -1.42857,1.42858 -0.91491,0.91491 -4.37741,4.82303 -5.71428,5.71428 -0.88597,0.59064 -2.10422,0.67565 -2.85715,1.42857 -0.33671,0.33672 0.42592,1.21562 0,1.42857 -0.85183,0.42592 -1.90476,0 -2.85714,0 -2.85714,0 -5.71429,0 -8.57143,0 -4.28571,0 -8.57143,0 -12.85714,0 -0.95238,0 -1.90476,0 -2.85714,0 -0.47619,0 -1.00266,0.21296 -1.42858,0 -0.60233,-0.30117 -0.77524,-1.26524 -1.42857,-1.42857 -1.38591,-0.34648 -2.85714,0 -4.28571,0 -0.95238,0 -1.95364,0.30117 -2.85714,0 -0.63888,-0.21296 -0.7897,-1.21561 -1.42858,-1.42857 -0.9035,-0.30117 -1.92325,0.18678 -2.85714,0 -1.4766,-0.29532 -2.80911,-1.13325 -4.28571,-1.42857 -2.74726,-0.54945 -5.82418,0.54945 -8.57143,0 -0.66036,-0.13207 -0.82623,-1.1274 -1.42857,-1.42857 -0.42592,-0.21296 -0.95238,0 -1.42857,0 -0.95239,0 -1.95364,0.30117 -2.85715,0 -0.63887,-0.21296 -0.82623,-1.1274 -1.42857,-1.42857 -0.42592,-0.21296 -0.97682,0.15058 -1.42857,0 -3,-1 -5.57143,-3.28572 -8.57143,-4.28572 -0.90351,-0.30117 -2.18371,0.67344 -2.85714,0 -0.33672,-0.33672 0.33672,-1.09185 0,-1.42857 -0.39089,-0.39089 -4.9393,0.38749 -5.71429,0 -0.60234,-0.30117 -0.82623,-1.1274 -1.42857,-1.42857 -0.42592,-0.21296 -1.09185,0.33672 -1.42857,0 -0.33672,-0.33672 0.42592,-1.21561 0,-1.42857 -1.14286,-0.57143 -3.14286,0.57143 -4.28571,0 -4.35652,-2.17826 2.61277,-1.13252 -4.28572,-2.85714 -0.92394,-0.23099 -1.9332,0.23098 -2.85714,0 -1.033,-0.25826 -1.80057,-1.2965 -2.85714,-1.42858 -2.83508,-0.35438 -5.74301,0.40406 -8.57143,0 -0.66667,-0.0952 -0.77525,-1.26524 -1.42857,-1.42857 -1.38592,-0.34648 -2.85715,0 -4.28572,0 -0.95238,0 -1.90476,0 -2.85714,0 -0.47619,0 -0.97682,0.15059 -1.42857,0 -1.01016,-0.33672 -1.84699,-1.09185 -2.85715,-1.42857 -0.45175,-0.15058 -1.00265,0.21296 -1.42857,0 -0.60234,-0.30117 -1.90476,-0.95238 -1.42857,-1.42857 0.47619,-0.47619 1.90476,1.90476 1.42857,1.42857 -0.95238,-0.95238 -1.90476,-1.90476 -2.85714,-2.85714 -0.47619,-0.47619 -0.82623,-1.1274 -1.42857,-1.42857 -0.42592,-0.21296 -1.09186,0.33671 -1.42857,0 -0.67344,-0.67344 0.42591,-2.00531 0,-2.85715 -0.30117,-0.60233 -1.1274,-0.82623 -1.42857,-1.42857 -0.21296,-0.42592 0,-0.95238 0,-1.42857 0,-2.12238 -0.34775,-3.93796 1.42857,-5.71428 1.90476,-1.90477 1.42857,2.38095 1.42857,-1.42858"
       id="path3815"
       style="fill:none;stroke:#8d1990;stroke-width:1px;stroke-linecap:butt;stroke-linejoin:miter;stroke-opacity:1" />
    <path
       d="m 98.57143,948.07647 c 2.85714,0.47619 5.71428,0.95238 8.57143,1.42857 0.95238,0.47619 1.82414,1.17032 2.85714,1.42857 1.38592,0.34648 2.93045,-0.45175 4.28571,0 1.01016,0.33672 1.81303,1.21975 2.85715,1.42857 1.40083,0.28017 2.85714,0 4.28571,0 0.95238,0 1.95364,-0.30117 2.85714,0 0.63888,0.21296 0.82624,1.1274 1.42858,1.42857 0.85183,0.42592 1.91772,-0.15657 2.85714,0 2.39507,0.39918 4.78725,0.83967 7.14286,1.42858 1.46088,0.36522 2.82482,1.06335 4.28571,1.42857 0.46197,0.11549 0.9666,-0.1155 1.42857,0 1.46089,0.36522 2.80036,1.18101 4.28572,1.42857 1.40913,0.23485 2.89979,-0.34648 4.28571,0 0.65333,0.16333 0.95238,0.95238 1.42857,1.42857 1.42857,0.47619 2.80036,1.18101 4.28572,1.42857 1.40913,0.23486 2.85714,0 4.28571,0 1.90476,0.47619 3.78903,1.04352 5.71429,1.42857 0.93388,0.18678 2.0053,-0.42592 2.85714,0 0.60234,0.30117 0.82623,1.1274 1.42857,1.42857 0.42592,0.21296 1.09185,-0.33671 1.42857,0 0.33672,0.33672 -0.42592,1.21562 0,1.42858 1.42857,0.71428 2.85714,-0.35715 4.28572,0 11.0402,2.76005 -4.3679,0.22439 11.42857,2.85714 0.90228,0.15038 3.60316,-0.34128 4.28571,0 4.35652,2.17826 -2.61278,1.13252 4.28572,2.85714 1.38591,0.34648 2.93045,-0.45175 4.28571,0 1.01015,0.33672 1.82414,1.17032 2.85714,1.42857 0.92395,0.23099 1.95364,-0.30117 2.85715,0 0.63887,0.21296 0.86824,1.05502 1.42857,1.42857 0.88596,0.59065 1.97118,0.83793 2.85714,1.42858 0.56033,0.37355 0.86824,1.05501 1.42857,1.42857 0.88596,0.59064 2.10422,0.67564 2.85714,1.42857 0.33672,0.33672 -0.33671,1.09185 0,1.42857 0.33672,0.33672 1.09186,-0.33672 1.42858,0 0.33671,0.33672 -0.21296,1.00265 0,1.42857 0.30117,0.60234 1.1274,0.82623 1.42857,1.42857 0.21296,0.42592 0,0.95238 0,1.42857 0,0.47619 0,0.95238 0,1.42858 0,0.47619 0,0.95238 0,1.42857 0,0.47619 0.33671,1.09185 0,1.42857 -0.33672,0.33672 -0.95238,0 -1.42857,0 -0.47619,0 -0.95239,0 -1.42858,0 -8.12428,0 -0.94051,0.63887 -7.14285,-1.42857 -0.90351,-0.30117 -2.00531,0.42591 -2.85715,0 -0.60233,-0.30117 -0.86824,-1.05502 -1.42857,-1.42857 -1.77192,-1.18129 -4.01061,-1.57939 -5.71428,-2.85715 -7.22013,-5.4151 1.20154,-0.8278 -5.71429,-4.28571 -6.26682,-3.13341 -1.97418,-0.0909 -10,-1.42857 -1.05031,-0.17505 -1.82414,-1.17032 -2.85714,-1.42857 -0.92395,-0.23099 -1.92326,0.18677 -2.85714,0 -1.47661,-0.29533 -2.82483,-1.06335 -4.28572,-1.42858 -0.92394,-0.23098 -1.90476,0 -2.85714,0 -1.90476,0 -3.80953,0 -5.71429,0 -5.23809,0 -10.47619,0 -15.71428,0 -2.85715,0 -5.71429,0 -8.57143,0 -0.95238,0 -1.90476,0 -2.85714,0 -0.47619,0 -0.97682,0.15059 -1.42858,0 -1.01015,-0.33671 -1.90476,-0.95238 -2.85714,-1.42857 -1.42857,0 -2.88488,0.28017 -4.28571,0 -1.04412,-0.20882 -1.90476,-0.95238 -2.85715,-1.42857 -1.42857,-0.47619 -2.795,-1.21561 -4.28571,-1.42857 -14.23785,0 -1.59197,1.34687 -7.14286,-1.42857 -0.42591,-0.21296 -0.95238,0 -1.42857,0 -0.95238,0 -1.95363,0.30117 -2.85714,0 -1.27775,-0.42592 -1.73648,-2.11004 -2.85714,-2.85714 -0.88597,-0.59065 -1.97118,-0.83793 -2.85715,-1.42858 -1.12066,-0.74711 -1.57939,-2.43122 -2.85714,-2.85714 -0.90351,-0.30117 -1.95363,0.30117 -2.85714,0 -0.63888,-0.21296 -0.86824,-1.05502 -1.42857,-1.42857 -0.88597,-0.59064 -1.97118,-0.83793 -2.85715,-1.42857 -0.56033,-0.37356 -0.86824,-1.05502 -1.42857,-1.42857 -0.88596,-0.59064 -2.10422,-0.67565 -2.85714,-1.42857 -0.33672,-0.33672 0,-0.95239 0,-1.42858 0,-0.64336 -0.21738,-3.85095 0,-4.28571 0.30117,-0.60234 0.95238,-0.95238 1.42857,-1.42857 0.47619,-0.47619 0.82623,-1.1274 1.42857,-1.42857 0.42592,-0.21296 1.09186,0.33671 1.42857,0 0.33672,-0.33672 0,-0.95238 0,-1.42857 1.90476,0.95238 3.5847,2.85714 5.71429,2.85714 2.56436,0 4.67716,-2.15266 7.14286,-2.85714 0.005,-0.002 8.27371,-0.14886 8.57142,0 4.20402,2.102 -2.21755,1.42857 4.28572,1.42857 7.57539,0 1.05013,-0.45176 8.57143,1.42857 0.46197,0.11549 0.95238,0 1.42857,0 1.72955,0 7.60512,-0.3221 8.57143,0 0.45175,0.15058 -0.33672,1.09185 0,1.42857 0.33671,0.33672 1.00265,-0.21296 1.42857,0 0.60234,0.30117 0.78969,1.21561 1.42857,1.42857 0.90351,0.30117 1.90476,0 2.85714,0 1.90476,0.47619 3.89133,0.69939 5.71429,1.42857 0.62527,0.25011 0.82623,1.1274 1.42857,1.42857 0.42592,0.21296 0.9666,-0.11549 1.42857,0 15.53696,5.17899 -3.76461,-0.75292 7.14286,1.42858 1.4766,0.29532 2.80911,1.13325 4.28571,1.42857 0.93389,0.18677 1.91212,-0.11813 2.85715,0 2.87418,0.35927 5.69724,1.06929 8.57142,1.42857 1.11069,0.13883 7.88898,-0.34123 8.57143,0 0.60234,0.30117 0.82624,1.1274 1.42857,1.42857 0.42592,0.21296 1.00266,-0.21296 1.42858,0 0.60233,0.30117 0.82623,1.1274 1.42857,1.42857 1.34687,0.67344 2.99446,0.65382 4.28571,1.42857 1.15493,0.69296 1.65247,2.25481 2.85714,2.85715 1.14286,0.57142 3.14286,-0.57143 4.28572,0 0.60234,0.30116 0.95238,0.95238 1.42857,1.42857 0.84021,0.8402 5.05274,5.38351 5.71429,5.71428 0.42591,0.21296 1.09185,-0.33672 1.42857,0 0.33671,0.33672 -0.33672,1.09186 0,1.42857 0.33671,0.33672 1.09185,-0.33671 1.42857,0 0.33672,0.33672 -0.21296,1.00266 0,1.42858 0.30117,0.60233 0.95238,0.95238 1.42857,1.42857 4.73798,4.73797 -0.67343,-1.34687 1.42857,2.85714 0.30117,0.60234 1.1274,0.82623 1.42857,1.42857 0.21296,0.42592 0,0.95238 0,1.42857 0,0.47619 0,0.95238 0,1.42857 0,0.47619 0,0.95238 0,1.42858 0,0.47619 0.47619,1.42857 0,1.42857 -0.47619,0 0.47619,-1.42857 0,-1.42857 -0.67343,0 -0.82623,1.1274 -1.42857,1.42857 -0.15945,0.0797 -6.9834,0.0797 -7.14286,0 -3.62935,-1.81468 1.46303,-1.7074 -4.28571,-2.85715 -10.89805,0 1.12694,0.63888 -7.14286,-1.42857 -1.08638,-0.27159 -5.94658,0 -7.14285,0 -6.66667,0 -13.33334,0 -20,0 -1.90477,0 -3.80953,0 -5.71429,0 -0.95238,0 -1.90476,0 -2.85714,0 -0.47619,0 -0.9666,0.1155 -1.42857,0 -2.92178,-0.73044 -5.64966,-2.1267 -8.57143,-2.85714 -0.46198,-0.11549 -0.96163,0.0934 -1.42857,0 -1.92526,-0.38505 -3.77064,-1.15091 -5.71429,-1.42857 -1.41421,-0.20203 -2.85714,0 -4.28571,0 -2.38096,0 -4.76191,0 -7.14286,0 -0.95238,0 -1.90476,0 -2.85714,0 -0.47619,0 -1.00266,0.21296 -1.42858,0 -0.60233,-0.30117 -0.82623,-1.1274 -1.42857,-1.42857 -0.85183,-0.42592 -2.1837,0.67343 -2.85714,0 -0.33672,-0.33672 0.33672,-1.09186 0,-1.42857 -0.33672,-0.33672 -0.97682,0.15058 -1.42857,0 -1.01015,-0.33672 -1.97118,-0.83793 -2.85714,-1.42858 -0.56034,-0.37355 -0.7897,-1.21561 -1.42858,-1.42857 -6.18516,-2.06172 0.52507,2.731 -5.71428,-1.42857 -1.12066,-0.74711 -1.57939,-2.43122 -2.85714,-2.85714 -0.90351,-0.30117 -1.92326,0.18678 -2.85715,0 -7.43171,-1.48634 -1.42857,-0.95238 -7.14285,-2.85714 -0.45176,-0.15059 -1.00266,0.21295 -1.42858,0 -0.60233,-0.30117 -0.82623,-1.12741 -1.42857,-1.42858 -0.42591,-0.21295 -1.00265,0.21296 -1.42857,0 -0.60234,-0.30117 -0.82623,-1.1274 -1.42857,-1.42857 -0.42592,-0.21296 -1.09185,0.33672 -1.42857,0 -0.33672,-0.33672 0.33672,-1.09185 0,-1.42857 -0.33672,-0.33672 -1.09186,0.33672 -1.42857,0 -0.33672,-0.33672 0.21296,-1.00265 0,-1.42857 -0.30117,-0.60234 -1.1274,-0.82623 -1.42857,-1.42857 -0.42592,-0.85184 0.67343,-2.18371 0,-2.85714 -0.33672,-0.33672 -1.09186,0.33671 -1.42858,0 -0.33671,-0.33672 0,-0.95239 0,-1.42858 0,-0.47619 -0.47619,-1.42857 0,-1.42857 0.47619,0 0,1.90476 0,1.42857 0,-0.95238 -0.30116,-1.95363 0,-2.85714 0.0592,-0.17747 4.04063,-4.16317 4.28572,-4.28571 0.42592,-0.21296 1.00265,0.21296 1.42857,0 1.42481,-0.71241 0.99589,-2.17308 2.85714,-1.42857 1.97728,0.7909 3.80953,3.80952 5.71429,2.85714 2.29364,-1.14682 1.53779,-4.94393 2.85714,-7.14286 0.245,-0.40833 1.03236,0.26414 1.42857,0 1.12067,-0.74711 1.90476,-1.90476 2.85715,-2.85714"
       id="path3817"
       style="fill:none;stroke:#8d1990;stroke-width:1px;stroke-linecap:butt;stroke-linejoin:miter;stroke-opacity:1" />
    <path
       d="m 155.71429,650.93361 c 2.98878,-3.35101 -0.91491,-7.76895 0,-11.42857 0.36522,-1.46089 1.13325,-2.80911 1.42857,-4.28571 0.18677,-0.93389 -0.23099,-1.9332 0,-2.85715 0.25825,-1.033 1.09185,-1.84699 1.42857,-2.85714 0.42166,-1.26499 -0.35403,-5.72673 0,-7.14286 0.25825,-1.033 1.03312,-1.8685 1.42857,-2.85714 0.55926,-1.39814 1.06335,-2.82483 1.42857,-4.28571 0.11549,-0.46198 -0.21296,-1.00266 0,-1.42858 3.26901,-6.53801 -0.5921,6.06203 2.85714,-4.28571 0.15059,-0.45175 -0.11549,-0.9666 0,-1.42857 0.36523,-1.46089 1.13326,-2.80911 1.42858,-4.28572 0.18677,-0.93388 -0.30117,-1.95363 0,-2.85714 0.21295,-0.63888 1.26524,-0.77524 1.42857,-1.42857 0.34648,-1.38592 -0.45176,-2.93045 0,-4.28571 0.15058,-0.45176 1.27798,0.45175 1.42857,0 0.45175,-1.35527 -0.28017,-2.88489 0,-4.28572 0.20882,-1.04412 1.09185,-1.84699 1.42857,-2.85714 0.15058,-0.45176 -0.11549,-0.9666 0,-1.42857 0.36522,-1.46089 1.06335,-2.82483 1.42857,-4.28572 0.11549,-0.46197 -0.11549,-0.9666 0,-1.42857 0.36522,-1.46088 1.13325,-2.80911 1.42857,-4.28571 0.27473,-1.37363 -0.27472,-2.91209 0,-4.28572 1.65956,-8.29779 1.42857,-2.9459 1.42857,-8.57143 0,-1.41101 -0.2816,-6.57965 0,-7.14285 0.30117,-0.60234 1.21562,-0.7897 1.42858,-1.42857 0.71428,-2.14286 -0.71429,-5 0,-7.14286 0.21295,-0.63888 1.21561,-0.7897 1.42857,-1.42857 0.44115,-1.32345 -0.45629,-5.77399 0,-7.14286 0.33671,-1.01015 1.17032,-1.82414 1.42857,-2.85714 0.46197,-1.84789 -0.60234,-3.90727 0,-5.71429 0.21296,-0.63888 1.1274,-0.82623 1.42857,-1.42857 0.21296,-0.42592 0,-0.95238 0,-1.42857 0,-0.95238 -0.18678,-1.92326 0,-2.85714 1.48634,-7.43172 0.95238,-1.42858 2.85714,-7.14286 0.30117,-0.90351 -0.30117,-1.95364 0,-2.85714 0.33672,-1.01016 1.09186,-1.847 1.42857,-2.85715 0.40794,-1.22379 -0.31507,-4.45397 0,-5.71428 0.25826,-1.03301 1.21975,-1.81303 1.42858,-2.85715 0.28016,-1.40083 -0.28017,-2.88488 0,-4.28571 0.20882,-1.04412 1.09185,-1.84699 1.42857,-2.85714 0.15058,-0.45176 -0.1155,-0.9666 0,-1.42857 0.36522,-1.46089 1.13325,-2.80912 1.42857,-4.28572 0.27472,-1.37363 -0.27473,-2.91209 0,-4.28571 0.38505,-1.92526 1.04352,-3.78903 1.42857,-5.71429 0.0934,-0.46694 -0.47619,-1.42857 0,-1.42857 0.47619,0 0.0934,0.96163 0,1.42857 -0.38505,1.92526 -0.95238,3.80952 -1.42857,5.71429 -1.48736,5.94942 -1.42857,5.01004 -1.42857,10 0,3.23382 -1.89484,4.25594 -2.85715,7.14285 -0.15058,0.45176 0.15059,0.97682 0,1.42858 -0.33671,1.01015 -1.17032,1.82414 -1.42857,2.85714 -0.23098,0.92394 0.23099,1.9332 0,2.85714 -1.72462,6.89849 -0.67888,-0.0708 -2.85714,4.28572 -0.21296,0.42591 0.15058,0.97681 0,1.42857 -0.33672,1.01015 -1.17032,1.82414 -1.42857,2.85714 -0.23099,0.92394 0.42592,2.00531 0,2.85714 -0.21296,0.42592 -1.21561,-0.42592 -1.42857,0 -0.42592,0.85184 0.18677,1.92326 0,2.85715 -0.29532,1.4766 -0.86932,2.88757 -1.42857,4.28571 -0.79091,1.97727 -2.06624,3.73701 -2.85715,5.71429 -0.55925,1.39814 -0.86931,2.88757 -1.42857,4.28571 -0.39545,0.98864 -1.09185,1.84699 -1.42857,2.85714 -0.15058,0.45176 0.15058,0.97682 0,1.42857 -0.33672,1.01016 -1.09185,1.84699 -1.42857,2.85715 -0.15059,0.45175 0.0934,0.96162 0,1.42857 -0.38505,1.92525 -1.10579,3.77761 -1.42857,5.71428 -0.27189,1.63133 0.4889,5.67615 0,7.14286 -0.21296,0.63888 -1.21562,0.7897 -1.42857,1.42857 -0.26252,0.78754 0,7.35908 0,8.57143 0,5.71429 0,11.42857 0,17.14286 0,2.85714 0,5.71428 0,8.57143 0,0.95238 0,1.90476 0,2.85714 0,0.95238 0.23098,1.9332 0,2.85714 -0.25825,1.033 -1.09186,1.84699 -1.42858,2.85715 -0.15058,0.45175 0,0.95238 0,1.42857 0,0.95238 0,1.90476 0,2.85714 0,0.95238 0.23099,1.9332 0,2.85714 -0.25825,1.033 -1.09185,1.84699 -1.42857,2.85715 -0.15058,0.45175 0.21296,1.00265 0,1.42857 -0.30117,0.60234 -1.26524,0.77524 -1.42857,1.42857 -0.37587,1.50346 0,6.52084 0,8.57143 0,0.95238 0.30117,1.95363 0,2.85714 -0.21296,0.63888 -1.21561,0.78969 -1.42857,1.42857 -0.26251,0.78754 0,7.35908 0,8.57143 0,0.95238 0.3344,1.9654 0,2.85714 -1.12162,2.991 -2.85714,5.71429 -4.28571,8.57143 z"
       id="path3819"
       style="fill:none;stroke:#000000;stroke-width:1px;stroke-linecap:butt;stroke-linejoin:miter;stroke-opacity:1" />
    <path
       d="m 221.42857,666.6479 c 0,-1.90477 -0.31314,-3.83544 0,-5.71429 0.3501,-2.10061 2.18371,-3.69398 2.85714,-5.71428 0.15059,-0.45176 -0.15058,-0.97682 0,-1.42858 0.33672,-1.01015 1.17033,-1.82414 1.42858,-2.85714 0.34648,-1.38592 -0.34648,-2.8998 0,-4.28571 0.36522,-1.46089 1.06335,-2.82483 1.42857,-4.28572 0.11549,-0.46197 0,-0.95238 0,-1.42857 0,-0.20976 -0.28897,-5.98698 0,-7.14286 5.17898,-15.53696 -0.75293,3.76462 1.42857,-7.14285 0.29532,-1.47661 1.06335,-2.82483 1.42857,-4.28572 0.11549,-0.46197 0,-0.95238 0,-1.42857 0,-2.38095 -0.39143,-4.7943 0,-7.14286 0.17505,-1.0503 1.09185,-1.84699 1.42857,-2.85714 0.45816,-1.37446 -0.3737,-4.21947 0,-5.71428 0.36522,-1.46089 1.13325,-2.80912 1.42857,-4.28572 0.28017,-1.40083 -0.45175,-2.93045 0,-4.28571 0.33672,-1.01016 1.17032,-1.82414 1.42857,-2.85715 0.34648,-1.38591 -0.45175,-2.93045 0,-4.28571 0.33672,-1.01015 1.17033,-1.82414 1.42858,-2.85714 1.69775,-6.791 -0.97015,-0.40515 0,-4.28572 0.36522,-1.46088 0.75513,-2.93884 1.42857,-4.28571 2.17826,-4.35652 1.13252,2.61278 2.85714,-4.28572 0.33613,-1.34453 -0.33613,-2.94117 0,-4.28571 2.97269,-11.89074 -0.0986,1.72444 2.85714,-7.14286 0.15059,-0.45175 -0.15058,-0.97682 0,-1.42857 0.33672,-1.01015 1.09186,-1.84699 1.42857,-2.85714 0.15059,-0.45176 0,-0.95238 0,-1.42857 0.47619,-1.42857 0.75514,-2.93885 1.42858,-4.28572 0.30117,-0.60234 1.1274,-0.82623 1.42857,-1.42857 0.21296,-0.42592 -0.1155,-0.9666 0,-1.42857 0.36522,-1.46089 0.75513,-2.93884 1.42857,-4.28571 0.30117,-0.60234 1.21561,-0.7897 1.42857,-1.42858 0.30117,-0.9035 -0.23099,-1.93319 0,-2.85714 0.25825,-1.033 0.95238,-1.90476 1.42857,-2.85714 0,-1.42857 -0.28016,-2.88489 0,-4.28572 0.20882,-1.04411 1.17032,-1.82414 1.42857,-2.85714 0.46198,-1.84789 -0.37355,-3.84651 0,-5.71428 0.29532,-1.47661 1.06335,-2.82483 1.42857,-4.28572 0.1155,-0.46197 0,-0.95238 0,-1.42857 0,-0.95238 0,-1.90476 0,-2.85714 0,-3.80953 0,-7.61905 0,-11.42857 0,-1.90477 0,-3.80953 0,-5.71429 0,-0.47619 0,-0.95238 0,-1.42857 0,-0.47619 -0.47619,-1.42857 0,-1.42857 0.47619,0 0,0.95238 0,1.42857 0,1.90476 0,3.80952 0,5.71428 0,0.95238 0.23099,1.9332 0,2.85715 -0.5165,2.066 -2.1837,3.69398 -2.85714,5.71428 -0.15058,0.45176 0.15059,0.97682 0,1.42857 -0.33672,1.01016 -1.09185,1.84699 -1.42857,2.85715 -0.30117,0.9035 0.30117,1.95363 0,2.85714 -0.33672,1.01015 -1.09185,1.84699 -1.42857,2.85714 -0.30117,0.90351 0.30117,1.95364 0,2.85715 -1.06911,3.20733 -2.65564,3.88269 -4.28572,7.14285 -0.21295,0.42592 0.15059,0.97682 0,1.42857 -0.33671,1.01016 -0.95238,1.90477 -1.42857,2.85715 -0.47619,0.95238 -0.83793,1.97118 -1.42857,2.85714 -0.37355,0.56033 -1.05502,0.86824 -1.42857,1.42857 -0.59064,0.88596 -0.95238,1.90476 -1.42857,2.85714 -0.95238,1.90477 -2.06623,3.73702 -2.85714,5.71429 -0.17686,0.44213 0.15058,0.97682 0,1.42857 -1.72633,5.17899 -0.67781,1.01671 -2.85715,4.28572 -2.70632,-0.16269 -0.95238,3.33333 -1.42857,4.28571 -0.30117,0.60234 -1.1274,0.82623 -1.42857,1.42857 -0.21296,0.42592 0,0.95238 0,1.42857 0,0.95238 0,1.90476 0,2.85715 0,2 0,5.14285 0,7.14285 0,6.19048 0,12.38095 0,18.57143 0,1.19627 0.2716,6.05648 0,7.14286 -0.25825,1.033 -1.09185,1.84699 -1.42857,2.85714 -0.36235,1.08705 0.21822,4.6232 0,5.71429 -0.29532,1.4766 -1.06335,2.82483 -1.42857,4.28571 -0.1155,0.46197 0,0.95238 0,1.42857 0,1.42857 0.28016,2.88489 0,4.28572 -0.20883,1.04411 -1.09186,1.84699 -1.42857,2.85714 -0.30117,0.90351 0.30117,1.95363 0,2.85714 -4.04692,8.09384 0.53239,-2.12959 -1.42858,5.71429 -0.25825,1.033 -1.09185,1.84699 -1.42857,2.85714 -0.45175,1.35526 0.34648,2.8998 0,4.28572 -0.25825,1.033 -1.03311,1.8685 -1.42857,2.85714 -5.75215,14.38039 1.11543,-3.03314 -1.42857,7.14286 -0.25825,1.033 -1.09185,1.84699 -1.42857,2.85714 -0.30117,0.90351 0,1.90476 0,2.85714 0,1.47578 -0.31735,7.46072 0,8.57143 0.70448,2.4657 1.90476,4.7619 2.85714,7.14286 z"
       id="path3821"
       style="fill:none;stroke:#000000;stroke-width:1px;stroke-linecap:butt;stroke-linejoin:miter;stroke-opacity:1" />
    <path
       d="m 161.42857,476.6479 c 1.90476,0 3.83544,-0.31314 5.71429,0 10.3375,1.72291 -2.24583,0.67996 4.28571,2.85714 0.90351,0.30117 1.92326,-0.18678 2.85714,0 2.95321,0.59064 5.61823,2.2665 8.57143,2.85714 0.93389,0.18678 1.92326,-0.18678 2.85715,0 1.4766,0.29532 2.78907,1.26228 4.28571,1.42857 30.64971,3.40553 -8.02305,-3.03318 14.28571,1.42858 1.45001,0.29 4.4892,-0.40837 5.71429,0 1.01015,0.33671 1.86851,1.03311 2.85714,1.42857 2.79629,1.11851 5.71429,1.90476 8.57143,2.85714 1.42857,0.47619 2.82483,1.06335 4.28572,1.42857 2.3556,0.5889 4.83935,0.66074 7.14285,1.42857 0.63888,0.21296 0.82624,1.1274 1.42857,1.42857 0.42592,0.21296 0.9666,-0.11549 1.42858,0 1.46088,0.36523 2.8378,1.01489 4.28571,1.42858 1.88784,0.53938 3.89133,0.69938 5.71429,1.42857 0.62526,0.2501 0.82623,1.1274 1.42857,1.42857 0.85183,0.42592 2.0053,-0.42592 2.85714,0 0.60234,0.30117 0.7897,1.21561 1.42857,1.42857 0.90351,0.30117 1.92326,-0.18678 2.85714,0 1.47661,0.29532 2.82483,1.06335 4.28572,1.42857 0.46197,0.11549 0.95238,0 1.42857,0 1.42857,0 2.85714,0 4.28571,0 2.85715,0 5.71429,0 8.57143,0 0.47619,0 1.00266,0.21296 1.42857,0 2.19791,-1.09895 1.42858,-3.77149 1.42858,-5.71428 0,-0.4762 0.15058,-0.97682 0,-1.42858 -0.33672,-1.01015 -1.17032,-1.82414 -1.42858,-2.85714 -0.58406,-2.33627 1.08644,-3.02821 -1.42857,-4.28571 -0.42591,-0.21296 -0.95238,0 -1.42857,0 -0.47619,0 -0.95238,0 -1.42857,0 -1.90476,0 -3.80952,0 -5.71429,0 -4.28571,0 -8.57142,0 -12.85714,0 -0.93872,0 -3.47971,0.26866 -4.28571,0 -2.02031,-0.67344 -3.69398,-2.18371 -5.71429,-2.85715 -0.45175,-0.15058 -1.00265,0.21296 -1.42857,0 -0.60234,-0.30117 -0.82623,-1.1274 -1.42857,-1.42857 -0.42592,-0.21296 -0.96163,0.0934 -1.42857,0 -1.92526,-0.38505 -3.77064,-1.1509 -5.71429,-1.42857 -1.10328,-0.15761 -5.64703,0.37396 -7.14286,0 -11.89074,-2.97269 1.72444,0.0986 -7.14285,-2.85714 -0.45176,-0.15059 -0.97682,0.15058 -1.42857,0 -1.01016,-0.33672 -1.82414,-1.17032 -2.85715,-1.42857 -0.92394,-0.23099 -1.93319,0.23098 -2.85714,0 -1.033,-0.25825 -1.80684,-1.25352 -2.85714,-1.42857 -10.8584,0 -1.73021,0.85183 -8.57143,-1.42858 -1.28572,-0.42857 -3,0.42858 -4.28572,0 -1.01015,-0.33671 -1.90476,-0.95238 -2.85714,-1.42857 -1.90476,0 -3.83544,0.31314 -5.71428,0 -1.05031,-0.17505 -1.84699,-1.09185 -2.85715,-1.42857 -0.45175,-0.15058 -0.96163,0.0934 -1.42857,0 -7.72032,-1.54406 -3.37641,-1.42857 -7.14286,-1.42857 -8.89805,0 3.55816,0.42592 -5.71428,-1.42857 -0.0414,-0.008 -6.62895,0.25695 -7.14286,0 -6.53801,-3.26901 6.06203,0.5921 -4.28571,-2.85714 -0.45176,-0.15059 -0.95238,0 -1.42857,0 -0.95239,0 -2.18371,-0.67344 -2.85715,0 -0.67343,0.67343 0,1.90476 0,2.85714 0,1.60482 -0.60068,6.12823 1.42857,7.14286 2.17177,1.08588 5.27754,-0.12587 7.14286,1.42857 1.50831,1.25692 0.69939,3.89133 1.42857,5.71428 0.10102,0.25255 3.9974,4.14156 4.28572,4.28572 0.42592,0.21296 1.00265,-0.21296 1.42857,0 5.13224,2.56612 -5.11101,1.05292 5.71428,2.85714 1.40914,0.23486 2.85715,0 4.28572,0 1.90476,0 3.80952,0 5.71428,0 6.19048,0 12.38096,0 18.57143,0 0.26039,0 9.35091,-0.32455 10,0 0.60234,0.30117 0.82624,1.1274 1.42857,1.42857 0.85184,0.42592 2.18371,-0.67343 2.85715,0 0.33671,0.33672 -0.33672,1.09185 0,1.42857 0.33671,0.33672 1.00265,-0.21296 1.42857,0 0.60234,0.30117 0.88982,1.02451 1.42857,1.42857 1.37354,1.03016 2.81346,1.97379 4.28571,2.85715 1.82611,1.09566 3.94237,1.67586 5.71429,2.85714 0.56033,0.37355 0.82623,1.1274 1.42857,1.42857 0.42592,0.21296 0.97682,-0.15058 1.42857,0 1.01016,0.33672 1.84699,1.09185 2.85715,1.42857 0.45175,0.15059 0.95238,0 1.42857,0 1.42857,0.47619 2.93884,0.75514 4.28571,1.42857 0.60234,0.30117 0.86824,1.05502 1.42857,1.42858 0.88597,0.59064 1.90476,0.95238 2.85715,1.42857 0.95238,0.47619 1.84699,1.09185 2.85714,1.42857 0.90351,0.30117 1.95363,-0.30117 2.85714,0 1.01015,0.33672 1.84699,1.09185 2.85714,1.42857 0.45176,0.15058 0.95239,0 1.42858,0 0.95238,0 1.90476,0 2.85714,0 1.52711,0 8.45295,-0.30941 10,0 1.4766,0.29532 2.82483,1.06335 4.28571,1.42857 0.92395,0.23099 1.90476,0 2.85715,0 1.66739,0 7.45689,-0.27863 8.57142,0 1.03301,0.25825 1.84699,1.09185 2.85715,1.42857 0.45175,0.15059 1.42857,-0.47619 1.42857,0 0,0.47619 -1.76529,0.33672 -1.42857,0 0.75292,-0.75292 2.10422,-0.67565 2.85714,-1.42857 0.33672,-0.33672 0,-0.95238 0,-1.42857 0,-1.42857 0,-2.85714 0,-4.28571 0,-0.95239 0,-1.90477 0,-2.85715 0,-0.47619 0.33672,-1.09185 0,-1.42857 -0.33672,-0.33672 -1.09185,0.33672 -1.42857,0 -0.33672,-0.33672 0.33672,-1.09185 0,-1.42857 -0.33672,-0.33672 -1.09186,0.33672 -1.42857,0 -0.33672,-0.33672 0.39621,-1.16443 0,-1.42857 -5.17694,-3.4513 -2.78764,-0.33977 -7.14286,-1.42857 -1.033,-0.25825 -1.82414,-1.17032 -2.85714,-1.42857 -1.05271,-0.26318 -6.3059,0.41848 -7.14286,0 -0.60234,-0.30117 -0.7643,-1.31786 -1.42857,-1.42858 -2.34856,-0.39142 -4.76191,0 -7.14286,0 -1.42857,0 -2.85714,0 -4.28571,0 -0.95238,0 -1.92326,0.18678 -2.85715,0 -1.4766,-0.29532 -2.82482,-1.06335 -4.28571,-1.42857 -0.92395,-0.23098 -1.92326,0.18678 -2.85714,0 -1.92526,-0.38505 -3.77762,-1.10579 -5.71429,-1.42857 -0.93942,-0.15657 -1.90476,0 -2.85714,0 -1.42857,-0.47619 -2.82483,-1.06335 -4.28572,-1.42857 -0.46197,-0.11549 -1.00265,0.21296 -1.42857,0 -0.60234,-0.30117 -0.82623,-1.1274 -1.42857,-1.42857 -0.85183,-0.42592 -1.95363,0.30117 -2.85714,0 -1.01015,-0.33672 -1.86851,-1.03312 -2.85714,-1.42857 -0.74346,-3.34097 -4.04289,-0.87144 -5.71429,-1.42857 -1.01015,-0.33672 -1.82414,-1.17033 -2.85714,-1.42858 -1.38592,-0.34648 -2.93046,0.45176 -4.28572,0 -1.01015,-0.33671 -1.82414,-1.17032 -2.85714,-1.42857 -1.84789,-0.46197 -3.8664,0.46197 -5.71429,0 -1.033,-0.25825 -1.84699,-1.09185 -2.85714,-1.42857 -0.45175,-0.15058 -0.95238,0 -1.42857,0 -2.20342,0 -6.90106,0.33407 -8.57143,0 -1.04412,-0.20882 -1.80683,-1.25352 -2.85714,-1.42857 -1.87885,-0.31314 -3.80953,0 -5.71429,0 -1.90476,0 -3.80952,0 -5.71428,0 -0.95238,0 -1.90476,0 -2.85715,0 -0.47619,0 -1.00265,0.21296 -1.42857,0 -0.60234,-0.30117 -0.78969,-1.21561 -1.42857,-1.42857 -6.13535,-2.04512 0.24409,5.40082 -10,-1.42857 -2.53701,-1.69134 -3.55824,-4.98682 -5.71428,-7.14286 -0.33672,-0.33672 -1.09186,0.33672 -1.42858,0 -0.33671,-0.33672 -0.33671,-1.09185 0,-1.42857 0.33672,-0.33672 0.95239,0 1.42858,0 0.95238,0 1.90476,0 2.85714,0 3.80952,0 7.61905,0 11.42857,0 1.90476,0 3.84651,-0.37356 5.71429,0 1.04411,0.20882 1.84699,1.09185 2.85714,1.42857 1.16769,0.38923 4.32508,-0.27784 5.71428,0 1.92526,0.38505 3.78903,1.04352 5.71429,1.42857 0.93389,0.18678 2.00531,-0.42592 2.85714,0 1.20468,0.60234 1.65247,2.25481 2.85715,2.85714 0.42591,0.21296 0.97681,-0.15058 1.42857,0 2.0203,0.67344 3.64828,2.34065 5.71428,2.85715 0.92395,0.23098 1.9332,-0.23099 2.85715,0 2.066,0.5165 3.61367,2.50704 5.71428,2.85714 19.01703,0 -2.8306,-0.85184 8.57143,1.42857 1.40083,0.28017 2.85714,0 4.28571,0 0.47619,0 0.9666,-0.11549 1.42858,0 2.92177,0.73044 5.61822,2.2665 8.57142,2.85714 0.93389,0.18678 1.92326,-0.18677 2.85715,0 1.4766,0.29532 2.80911,1.13325 4.28571,1.42858 0.93389,0.18677 1.90476,0 2.85714,0 2.38096,0 4.76191,0 7.14286,0 0.95238,0 1.95364,-0.30117 2.85714,0 1.01016,0.33671 1.84699,1.09185 2.85715,1.42857 1.86263,0.62087 3.85165,0.80769 5.71428,1.42857 8.8673,2.95576 -4.74788,-0.11555 7.14286,2.85714 1.02485,0.25621 5.37009,-0.3442 5.71429,0 2.95576,2.95577 -4.5168,-0.11554 1.42857,2.85714 0.42592,0.21296 1.00265,-0.21296 1.42857,0 0.60234,0.30117 0.82623,1.12741 1.42857,1.42858 0.42592,0.21295 1.09185,-0.33672 1.42857,0 0.33672,0.33671 0,0.95238 0,1.42857 0.47619,0.47619 0.86824,1.05501 1.42857,1.42857 0.88597,0.59064 2.10422,0.67565 2.85715,1.42857 0.75292,0.75292 0.83793,1.97118 1.42857,2.85714 0.37355,0.56033 1.1274,0.82624 1.42857,1.42857 0.21296,0.42592 0.47619,1.42858 0,1.42858 -0.47619,0 0.47619,-1.42858 0,-1.42858 -1.0648,0 -1.81303,1.21975 -2.85714,1.42858 -1.87526,0.37505 -6.30016,0 -8.57143,0 -0.56474,0 -6.53274,0.30505 -7.14286,0 -0.60234,-0.30117 -0.78969,-1.21562 -1.42857,-1.42858 -1.32109,-0.44036 -7.63024,0.4706 -8.57143,0 -0.60234,-0.30117 -0.82623,-1.1274 -1.42857,-1.42857 -0.42592,-0.21296 -0.95238,0 -1.42857,0 -0.95238,0 -1.95364,0.30117 -2.85715,0 -0.63887,-0.21296 -0.78969,-1.21561 -1.42857,-1.42857 -0.9035,-0.30117 -1.92325,0.18678 -2.85714,0 -2.95321,-0.59064 -5.61822,-2.2665 -8.57143,-2.85714 -1.40083,-0.28017 -2.85714,0 -4.28571,0 -0.95238,0 -1.92326,0.18678 -2.85715,0 -3.85051,-0.7701 -7.54127,-2.30182 -11.42857,-2.85714 -1.32182,-0.18884 -9.34188,0.32905 -10,0 -0.60234,-0.30117 -0.78969,-1.21562 -1.42857,-1.42858 -0.90351,-0.30117 -1.95363,0.30117 -2.85714,0 -0.63888,-0.21296 -0.95238,-0.95238 -1.42857,-1.42857 -1.63451,-1.6345 -1.69111,-1.99227 -4.28572,-2.85714 -1.86263,-0.62088 -3.80952,-0.95238 -5.71428,-1.42857 -1.90476,-0.47619 -3.78903,-1.04352 -5.71429,-1.42857 -0.46694,-0.0934 -0.96163,0.0934 -1.42857,0 -1.92526,-0.38505 -3.78903,-1.04352 -5.71429,-1.42857 -1.31328,-0.26266 -3.01996,0.42191 -4.28571,0 -2.0203,-0.67344 -3.80952,-1.90477 -5.71429,-2.85715 -0.95238,-0.47619 -1.82414,-1.17032 -2.85714,-1.42857 -0.92394,-0.23099 -1.90476,0 -2.85714,0"
       id="path3823"
       style="fill:none;stroke:#000000;stroke-width:1px;stroke-linecap:butt;stroke-linejoin:miter;stroke-opacity:1" />
    <path
       d="m 67.14286,996.6479 c 0,3.8095 0,7.619 0,11.4286 0,0.9523 -0.30117,1.9536 0,2.8571 0.67343,2.0203 2.34064,3.6483 2.85714,5.7143 0,8.0952 -0.95238,0.4762 1.42857,2.8571 0.33672,0.3368 -0.33672,1.0919 0,1.4286 0.67344,0.6734 1.95364,-0.3012 2.85714,0 1.01016,0.3367 1.82415,1.1703 2.85715,1.4286 0.92394,0.231 1.95363,-0.3012 2.85714,0 0.63888,0.2129 0.82623,1.1274 1.42857,1.4285 0.42592,0.213 0.95238,0 1.42857,0 0.47619,0 1.00266,0.213 1.42857,0 1.20468,-0.6023 1.73648,-2.11 2.85715,-2.8571 0.88596,-0.5906 2.10422,-0.6756 2.85714,-1.4286 0.75292,-0.7529 0.83793,-1.9711 1.42857,-2.8571 0.37356,-0.5603 1.1274,-0.8262 1.42857,-1.4286 0.21296,-0.4259 -0.21296,-1.0026 0,-1.4286 0.76784,-1.5356 2.08931,-2.75 2.85715,-4.2857 0.21295,-0.4259 -0.21296,-1.0026 0,-1.4285 0.30117,-0.6024 1.1274,-0.8263 1.42857,-1.4286 0.67343,-1.3469 0.75513,-2.9389 1.42857,-4.2857 0.30117,-0.6024 1.1274,-0.8263 1.42857,-1.4286 0.21296,-0.4259 0,-0.95237 0,-1.42856 0,-0.47619 0.47619,-1.42857 0,-1.42857 -1.06479,0 -1.86851,1.03311 -2.85714,1.42857 -1.39815,0.55926 -2.88757,0.86926 -4.28572,1.42856 -0.98863,0.3955 -1.84699,1.0919 -2.85714,1.4286 -1.24865,0.4162 -7.71098,-0.4302 -8.57143,0 -0.60234,0.3011 -0.86824,1.055 -1.42857,1.4285 -1.30498,0.87 -3.46684,1.2195 -4.28571,2.8572 -0.21296,0.4259 0.21295,1.0026 0,1.4286 -0.5808,1.1616 -2.26614,1.182 -1.42858,2.8571 1.57933,3.1587 0.88664,0.4433 2.85715,1.4286 0.60234,0.3011 0.82623,1.1274 1.42857,1.4285 0.42592,0.213 0.95238,0 1.42857,0 0.56473,0 6.53274,0.3051 7.14286,0 1.24472,-0.6223 2.60857,-3.2914 2.85714,-4.2857 0.23099,-0.9239 -0.30117,-1.9536 0,-2.8571 1.76529,-5.2959 1.42857,1.7414 1.42857,-2.8572 0,-1.9601 0.74997,-4.62496 -1.42857,-5.71423 -0.42592,-0.21296 -1.03236,-0.26414 -1.42857,0 -1.12066,0.74711 -1.80542,2.01573 -2.85714,2.85713 -1.3407,1.0726 -3.07167,1.6431 -4.28572,2.8571 -0.75292,0.753 -0.67565,2.1043 -1.42857,2.8572 -0.75292,0.7529 -1.97118,0.8379 -2.85714,1.4286 -1.96529,1.3102 -1.46926,2.2038 -2.85715,4.2857 -0.66376,0.9956 -2.20746,1.2993 -1.42857,2.8571 0.60234,1.2047 2.25481,1.6525 2.85715,2.8572 0.21295,0.4259 -0.33672,1.0918 0,1.4285 0.33671,0.3368 1.00265,-0.2129 1.42857,0 4.73797,4.738 -1.34687,-0.6734 2.85714,1.4286 0.60234,0.3012 0.82623,1.1274 1.42857,1.4286 0.42592,0.2129 0.95238,0 1.42857,0 0.47619,0 1.09186,0.3367 1.42857,0 0.33672,-0.3367 -0.33671,-1.0919 0,-1.4286 0.33672,-0.3367 1.09186,0.3367 1.42858,0 0.33671,-0.3367 -0.21296,-1.0026 0,-1.4286 4.73797,-4.7379 -0.67344,1.3469 1.42857,-2.8571 0.30117,-0.6023 1.1274,-0.8262 1.42857,-1.4286 0.21296,-0.4259 -0.15059,-0.9768 0,-1.4286 0.33672,-1.0101 1.17032,-1.8241 1.42857,-2.8571 0.36996,-1.4798 0,-4.0762 0,-5.7143 0,-1.7438 0.55434,-3.2942 -1.42857,-4.2857 -0.37563,-0.1878 -4.96726,0 -5.71429,0 -0.74703,0 -5.33865,-0.1878 -5.71428,0 -0.82317,0.4116 -1.42132,2.3858 -2.85715,1.4286 -2.53701,-1.6914 -4.98681,-7.87035 -7.14285,-5.7143 -7.5147,7.5147 4.77765,7.1428 7.14285,7.1428"
       id="path3825"
       style="fill:none;stroke:#000000;stroke-width:1px;stroke-linecap:butt;stroke-linejoin:miter;stroke-opacity:1" />
    <path
       d="m 191.42857,1013.7907 c 0,1.9048 0,3.8096 0,5.7143 0,2.8572 0,5.7143 0,8.5715 0,0.4762 0,0.9523 0,1.4285 0,0.4762 -0.21296,1.0027 0,1.4286 0.30117,0.6023 1.1274,0.8262 1.42857,1.4286 0.21296,0.4259 -0.33671,1.0918 0,1.4285 0.75293,0.753 2.10422,0.6757 2.85715,1.4286 0.75292,0.7529 0.67564,2.1042 1.42857,2.8572 0.33671,0.3367 1.00265,-0.213 1.42857,0 0.60234,0.3011 0.82623,1.1274 1.42857,1.4285 0.42592,0.213 0.97682,-0.1505 1.42857,0 1.01015,0.3368 1.84699,1.0919 2.85714,1.4286 0.18382,0.061 4.16741,0.059 4.28572,0 0.60234,-0.3012 0.82623,-1.1274 1.42857,-1.4286 0.42592,-0.2129 1.09185,0.3368 1.42857,0 0.33672,-0.3367 -0.33672,-1.0918 0,-1.4285 0.33672,-0.3368 1.09186,0.3367 1.42857,0 0.67344,-0.6735 -0.42591,-2.0053 0,-2.8572 0.30117,-0.6023 1.26524,-0.7752 1.42857,-1.4286 0.34648,-1.3859 0,-2.8571 0,-4.2857 0,-3.3333 0,-6.6666 0,-10 0,-0.9523 0,-1.9047 0,-2.8571 0,-0.4762 0.33672,-1.0919 0,-1.4286 -0.33671,-0.3367 -0.95238,0 -1.42857,0 -0.47619,0 -0.95238,0 -1.42857,0 -1.90476,0 -3.90727,-0.6023 -5.71428,0 -1.62883,0.543 -2.79501,2.0053 -4.28572,2.8572 -1.849,1.0565 -3.80952,1.9047 -5.71428,2.8571 -4.76191,2.381 -9.39222,5.0456 -14.28572,7.1429 -0.43769,0.1875 -1.21561,-0.426 -1.42857,0 -0.42592,0.8518 0,1.9047 0,2.8571 0,0.4762 -0.33672,1.0919 0,1.4286 0.33672,0.3367 1.09185,-0.3367 1.42857,0 0.33672,0.3367 -0.33672,1.0918 0,1.4285 1.24825,1.2483 6.02708,2.2993 7.14286,2.8572 0.60234,0.3012 0.78969,1.2156 1.42857,1.4286 0.90351,0.3011 1.9332,-0.231 2.85714,0 2.58563,-0.8611 2.6569,2.3142 4.28572,2.8571 0.90351,0.3012 1.95363,-0.3012 2.85714,0 0.63888,0.213 0.82623,1.1274 1.42857,1.4286 0.42592,0.2129 0.95238,0 1.42857,0 0.95238,0 1.90476,0 2.85715,0 0.47619,0 0.95238,0 1.42857,0 0.47619,0 1.09185,0.3367 1.42857,0 0.33672,-0.3367 -0.33672,-1.0919 0,-1.4286 0.33672,-0.3367 0.95238,0 1.42857,0 0.95238,-0.9524 2.04902,-1.7796 2.85714,-2.8571 0.63888,-0.8519 0.83793,-1.9712 1.42857,-2.8572 0.37356,-0.5603 1.21562,-0.7897 1.42858,-1.4286 0.30117,-0.9035 -0.23099,-1.9331 0,-2.8571 0.25825,-1.033 1.09185,-1.847 1.42857,-2.8571 0.15058,-0.4518 0,-0.9524 0,-1.4286 0,-1.4286 0,-2.8572 0,-4.2857 0,-1.4286 0,-2.8572 0,-4.2857 0,-0.4762 0.42592,-1.2156 0,-1.4286 -0.85184,-0.4259 -2.85715,0.9524 -2.85715,0 0,-0.9524 3.70898,-0.4259 2.85715,0 -1.75611,0.878 -3.82645,0.8892 -5.71429,1.4286 -1.44791,0.4137 -2.82483,1.0633 -4.28571,1.4285 -0.46198,0.1155 -1.09186,-0.3367 -1.42857,0 -0.33672,0.3368 0.33671,1.0919 0,1.4286 -0.75293,0.7529 -2.00531,0.7897 -2.85715,1.4286 -1.07749,0.8081 -1.77964,2.049 -2.85714,2.8571 -0.85184,0.6389 -2.10422,0.6757 -2.85714,1.4286 -0.20147,0.2015 -0.14652,3.9927 0,4.2857 1.57932,3.1587 0.88663,0.4433 2.85714,1.4286 0.60234,0.3011 0.82623,1.1274 1.42857,1.4285 0.42592,0.213 0.95238,0 1.42857,0 0.47619,0 1.00266,0.213 1.42857,0 0.60234,-0.3011 0.82624,-1.1274 1.42858,-1.4285 0.42591,-0.213 1.00265,0.2129 1.42857,0 0.60234,-0.3012 0.82623,-1.1274 1.42857,-1.4286 0.42592,-0.213 1.09185,0.3367 1.42857,0 0.33672,-0.3367 0,-0.9524 0,-1.4286 0,-1.2095 0.256,-4.9462 0,-5.7143 -0.21296,-0.6388 -0.95238,-0.9523 -1.42857,-1.4285 -0.47619,-0.4762 -0.95238,-0.9524 -1.42857,-1.4286"
       id="path3827"
       style="fill:none;stroke:#000000;stroke-width:1px;stroke-linecap:butt;stroke-linejoin:miter;stroke-opacity:1" />
  </g>
</svg>
