<?xml version="1.0" encoding="UTF-8" standalone="no"?>
<!-- Created with Inkscape (http://www.inkscape.org/) -->

<svg
   xmlns:dc="http://purl.org/dc/elements/1.1/"
   xmlns:cc="http://creativecommons.org/ns#"
   xmlns:rdf="http://www.w3.org/1999/02/22-rdf-syntax-ns#"
   xmlns:svg="http://www.w3.org/2000/svg"
   xmlns="http://www.w3.org/2000/svg"
   xmlns:sodipodi="http://sodipodi.sourceforge.net/DTD/sodipodi-0.dtd"
   xmlns:inkscape="http://www.inkscape.org/namespaces/inkscape"
   width="1200"
   height="300"
   id="svg2"
   version="1.1"
   inkscape:version="0.48.4 r9939"
   sodipodi:docname="suitcase.svg">
  <defs
     id="defs4">
    <clipPath
       clipPathUnits="userSpaceOnUse"
       id="face">
      <rect
         style="color:#000000;fill:#1a1a1a;fill-opacity:1;fill-rule:nonzero;stroke:none;marker:none;visibility:visible;display:inline;overflow:visible;enable-background:accumulate"
         id="rect3064"
         width="82.857437"
         height="114.97308"
         x="578.37451"
         y="-48.180813"
         transform="matrix(0.98634588,0.16468701,-0.27264631,0.96211433,0,0)"
         ry="11.291387"
         rx="7.0414329"
         clip-path="none" />
    </clipPath>
    <clipPath
       clipPathUnits="userSpaceOnUse"
       id="mark">
      <path
         transform="matrix(0.81052513,0.12505443,-0.0750432,0.53365858,686.40965,45.755203)"
         d="m -66.071432,79.10714 a 13.571428,6.25 0 1 1 -27.142857,0 13.571428,6.25 0 1 1 27.142857,0 z"
         sodipodi:ry="6.25"
         sodipodi:rx="13.571428"
         sodipodi:cy="79.10714"
         sodipodi:cx="-79.64286"
         id="path3071"
         style="color:#000000;fill:#999999;fill-opacity:1;fill-rule:nonzero;stroke:none;marker:none;visibility:visible;display:inline;overflow:visible;enable-background:accumulate"
         sodipodi:type="arc" />
    </clipPath>
    <clipPath
       clipPathUnits="userSpaceOnUse"
       id="label">
      <path
         inkscape:connector-curvature="0"
         id="path3078"
         d="m 654.60872,58.577708 -5.80409,2.669998 -6.49751,13.010074 7.74857,3.467831 6.52071,-13.723977 z"
         style="fill:#4d4d4d;fill-opacity:1;stroke:none" />
    </clipPath>
    <clipPath
       clipPathUnits="userSpaceOnUse"
       id="sticks">
      <rect
         transform="matrix(0.97715459,0.21252976,-0.21252976,0.97715459,0,0)"
         ry="2.2222223"
         rx="3.5730338"
         y="-121.41247"
         x="616.62103"
         height="55.357143"
         width="2.5"
         id="rect3037"
         style="color:#000000;fill:#cccccc;fill-opacity:1;fill-rule:nonzero;stroke:none;marker:none;visibility:visible;display:inline;overflow:visible;enable-background:accumulate" />
      <rect
         transform="matrix(0.97715459,0.21252976,-0.21252976,0.97715459,0,0)"
         ry="2.2222223"
         rx="3.5730338"
         y="-120.87675"
         x="655.37103"
         height="55.357143"
         width="2.5"
         id="rect3039"
         style="color:#000000;fill:#cccccc;fill-opacity:1;fill-rule:nonzero;stroke:none;marker:none;visibility:visible;display:inline;overflow:visible;enable-background:accumulate" />
    </clipPath>
    <clipPath
       clipPathUnits="userSpaceOnUse"
       id="corner">
      <path
         inkscape:connector-curvature="0"
         id="path3038"
         d="m 578.35714,66.214284 2.75736,-9.241164 c 0,0 3.54516,-9.241165 13.78676,-7.140899 10.2416,2.100264 10.2416,2.100264 10.2416,2.100264 z"
         style="fill:#808080;fill-opacity:1;stroke:none" />
      <path
         inkscape:connector-curvature="0"
         id="path3040"
         d="m 661.21428,79.071428 2.5,-9.642857 c 0,0 2.14286,-7.142857 -7.14286,-8.928571 -9.28571,-1.785714 -14.28571,-2.142857 -14.28571,-2.142857 z"
         style="fill:#808080;fill-opacity:1;stroke:none" />
    </clipPath>
    <clipPath
       clipPathUnits="userSpaceOnUse"
       id="clipPath3021">
      <rect
         transform="matrix(0.97715459,0.21252976,-0.21252976,0.97715459,0,0)"
         ry="2.2222223"
         rx="3.5730338"
         y="-124.80531"
         x="608.9425"
         height="5.3571434"
         width="56.785717"
         id="rect3023"
         style="color:#000000;fill:#4d4d4d;fill-opacity:1;fill-rule:nonzero;stroke:none;marker:none;visibility:visible;display:inline;overflow:visible;enable-background:accumulate" />
    </clipPath>
    <clipPath
       clipPathUnits="userSpaceOnUse"
       id="clipPath3030">
      <g
         id="g3032"
         transform="matrix(0.65149203,0,0,0.65149203,205.83343,68.63118)">
        <path
           transform="matrix(1.2575296,0,0,1.3172269,515.47248,-67.73996)"
           d="m 38.571428,180.71428 c 0,4.14213 -2.87817,7.5 -6.428571,7.5 -3.550402,0 -6.428572,-3.35787 -6.428572,-7.5 0,-4.14214 2.87817,-7.5 6.428572,-7.5 3.550401,0 6.428571,3.35786 6.428571,7.5 z"
           sodipodi:ry="7.5"
           sodipodi:rx="6.4285712"
           sodipodi:cy="180.71428"
           sodipodi:cx="32.142857"
           id="path3034"
           style="color:#000000;fill:#4d4d4d;fill-opacity:1;fill-rule:nonzero;stroke:none;marker:none;visibility:visible;display:inline;overflow:visible;enable-background:accumulate"
           sodipodi:type="arc" />
        <path
           transform="matrix(1.2575296,0,0,1.3172269,518.6163,-68.68083)"
           d="m 38.571428,180.71428 c 0,4.14213 -2.87817,7.5 -6.428571,7.5 -3.550402,0 -6.428572,-3.35787 -6.428572,-7.5 0,-4.14214 2.87817,-7.5 6.428572,-7.5 3.550401,0 6.428571,3.35786 6.428571,7.5 z"
           sodipodi:ry="7.5"
           sodipodi:rx="6.4285712"
           sodipodi:cy="180.71428"
           sodipodi:cx="32.142857"
           id="path3036"
           style="color:#000000;fill:#4d4d4d;fill-opacity:1;fill-rule:nonzero;stroke:none;marker:none;visibility:visible;display:inline;overflow:visible;enable-background:accumulate"
           sodipodi:type="arc" />
        <path
           transform="matrix(1.2575296,0,0,1.3172269,618.45517,-50.992355)"
           d="m 38.571428,180.71428 c 0,4.14213 -2.87817,7.5 -6.428571,7.5 -3.550402,0 -6.428572,-3.35787 -6.428572,-7.5 0,-4.14214 2.87817,-7.5 6.428572,-7.5 3.550401,0 6.428571,3.35786 6.428571,7.5 z"
           sodipodi:ry="7.5"
           sodipodi:rx="6.4285712"
           sodipodi:cy="180.71428"
           sodipodi:cx="32.142857"
           id="path3039"
           style="color:#000000;fill:#4d4d4d;fill-opacity:1;fill-rule:nonzero;stroke:none;marker:none;visibility:visible;display:inline;overflow:visible;enable-background:accumulate"
           sodipodi:type="arc" />
        <path
           transform="matrix(1.2575296,0,0,1.3172269,621.599,-51.933225)"
           d="m 38.571428,180.71428 c 0,4.14213 -2.87817,7.5 -6.428571,7.5 -3.550402,0 -6.428572,-3.35787 -6.428572,-7.5 0,-4.14214 2.87817,-7.5 6.428572,-7.5 3.550401,0 6.428571,3.35786 6.428571,7.5 z"
           sodipodi:ry="7.5"
           sodipodi:rx="6.4285712"
           sodipodi:cy="180.71428"
           sodipodi:cx="32.142857"
           id="path3041"
           style="color:#000000;fill:#4d4d4d;fill-opacity:1;fill-rule:nonzero;stroke:none;marker:none;visibility:visible;display:inline;overflow:visible;enable-background:accumulate"
           sodipodi:type="arc" />
      </g>
    </clipPath>
    <clipPath
       clipPathUnits="userSpaceOnUse"
       id="clipPath3051">
      <g
         id="g3053"
         transform="matrix(0.65149203,0,0,0.65149203,205.83343,68.63118)">
        <rect
           style="color:#000000;fill:#999999;fill-opacity:1;fill-rule:nonzero;stroke:none;marker:none;visibility:visible;display:inline;overflow:visible;enable-background:accumulate"
           id="rect3055"
           width="127.18105"
           height="176.47658"
           x="574.0603"
           y="-106.09325"
           transform="matrix(0.98634588,0.16468701,-0.27264631,0.96211433,0,0)"
           ry="17.331581"
           rx="10.808165"
           clip-path="none" />
        <rect
           transform="matrix(0.60992012,0.7924629,-0.79596199,0.6053466,0,0)"
           y="-557.40588"
           x="413.10513"
           height="20.429197"
           width="32.059956"
           id="rect3057"
           style="color:#000000;fill:#999999;fill-opacity:1;fill-rule:nonzero;stroke:none;marker:none;visibility:visible;display:inline;overflow:visible;enable-background:accumulate" />
        <rect
           transform="matrix(0.52110627,0.8534918,-0.85838651,0.51300351,0,0)"
           y="-408.36215"
           x="390.70291"
           height="20.333292"
           width="32.212074"
           id="rect3059"
           style="color:#000000;fill:#999999;fill-opacity:1;fill-rule:nonzero;stroke:none;marker:none;visibility:visible;display:inline;overflow:visible;enable-background:accumulate" />
      </g>
    </clipPath>
  </defs>
  <sodipodi:namedview
     id="base"
     pagecolor="#ffffff"
     bordercolor="#666666"
     borderopacity="1.0"
     inkscape:pageopacity="0.0"
     inkscape:pageshadow="2"
     inkscape:zoom="2.8"
     inkscape:cx="715.47806"
     inkscape:cy="119.78075"
     inkscape:document-units="px"
     inkscape:current-layer="layer2"
     showgrid="false"
     inkscape:window-width="1920"
     inkscape:window-height="1056"
     inkscape:window-x="0"
     inkscape:window-y="24"
     inkscape:window-maximized="1" />
  <metadata
     id="metadata7">
    <rdf:RDF>
      <cc:Work
         rdf:about="">
        <dc:format>image/svg+xml</dc:format>
        <dc:type
           rdf:resource="http://purl.org/dc/dcmitype/StillImage" />
        <dc:title />
      </cc:Work>
    </rdf:RDF>
  </metadata>
  <g
     inkscape:groupmode="layer"
     id="layer4"
     inkscape:label="wheels"
     style="display:inline"
     transform="translate(0,100)">
    <rect
       style="color:#000000;fill:#333333;fill-opacity:1;fill-rule:nonzero;stroke:none;marker:none;visibility:visible;display:inline;overflow:visible;enable-background:accumulate"
       id="rect3101"
       width="169.64285"
       height="77.5"
       x="507.5"
       y="145"
       rx="5"
       ry="5"
       clip-path="url(#clipPath3030)"
       transform="matrix(1.5349382,0,0,1.5349382,-315.94159,-105.34462)" />
  </g>
  <g
     inkscape:groupmode="layer"
     id="layer6"
     inkscape:label="sticks"
     style="display:inline"
     transform="translate(0,100)">
    <rect
       style="color:#000000;fill:#ececec;fill-opacity:1;fill-rule:nonzero;stroke:none;marker:none;visibility:visible;display:inline;overflow:visible;enable-background:accumulate"
       id="rect3027"
       width="93.214287"
       height="94.64286"
       x="606.42859"
       y="-1.4285713"
       rx="5"
       ry="5"
       clip-path="url(#sticks)"
       transform="matrix(1.5349382,0,0,1.5349382,-315.94159,-105.34462)" />
  </g>
  <g
     inkscape:groupmode="layer"
     id="layer5"
     inkscape:label="handle"
     style="display:inline"
     transform="translate(0,100)">
    <rect
       style="color:#000000;fill:#1a1a1a;fill-opacity:1;fill-rule:nonzero;stroke:none;marker:none;visibility:visible;display:inline;overflow:visible;enable-background:accumulate"
       id="rect3025"
       width="121.60714"
       height="59.82143"
       x="584.10712"
       y="-14.464286"
       rx="5"
       ry="5"
       clip-path="url(#clipPath3021)"
       transform="matrix(1.5349382,0,0,1.5349382,-315.94159,-105.34462)" />
  </g>
  <g
     inkscape:groupmode="layer"
     id="layer2"
     inkscape:label="body"
     style="display:inline"
     transform="translate(0,100)">
    <rect
       style="color:#000000;fill:#cccccc;fill-opacity:1;fill-rule:nonzero;stroke:none;marker:none;visibility:visible;display:inline;overflow:visible;enable-background:accumulate"
       id="rect3084"
       width="194.28572"
       height="206.07143"
       x="523.57141"
       y="4.2857146"
       rx="5"
       ry="5"
       clip-path="url(#clipPath3051)"
       transform="matrix(1.5349382,0,0,1.5349382,-315.94159,-105.34462)" />
  </g>
  <g
     inkscape:label="face"
     inkscape:groupmode="layer"
     id="layer1"
     style="display:inline"
     transform="translate(0,100)">
    <rect
       style="color:#000000;fill:#333333;fill-opacity:1;fill-rule:nonzero;stroke:none;marker:none;visibility:visible;display:inline;overflow:visible;enable-background:accumulate"
       id="rect3060"
       width="170.35715"
       height="173.92857"
       x="526.42859"
       y="20.714285"
       rx="5"
       ry="5"
       clip-path="url(#face)"
       transform="matrix(1.5349382,0,0,1.5349382,-315.94159,-105.34462)" />
  </g>
  <g
     inkscape:groupmode="layer"
     id="layer3"
     inkscape:label="mark"
     style="display:inline"
     transform="translate(0,100)">
    <rect
       style="color:#000000;fill:#e6e6e6;fill-opacity:1;fill-rule:nonzero;stroke:none;marker:none;visibility:visible;display:inline;overflow:visible;enable-background:accumulate"
       id="rect3067"
       width="97.5"
       height="54.285713"
       x="567.85712"
       y="46.785713"
       rx="5"
       ry="5"
       clip-path="url(#mark)"
       transform="matrix(1.5349382,0,0,1.5349382,-315.94159,-105.34462)" />
  </g>
  <g
     inkscape:groupmode="layer"
     id="layer7"
     inkscape:label="corner"
     style="display:inline"
     transform="translate(0,100)">
    <rect
       style="color:#000000;fill:#b3b3b3;fill-opacity:1;fill-rule:nonzero;stroke:none;marker:none;visibility:visible;display:inline;overflow:visible;enable-background:accumulate"
       id="rect3040"
       width="163.57143"
       height="95.714287"
       x="551.42859"
       y="21.071428"
       rx="5"
       ry="5"
       clip-path="url(#corner)"
       transform="matrix(1.5349382,0,0,1.5349382,-315.94159,-105.34462)" />
  </g>
  <g
     inkscape:groupmode="layer"
     id="layer8"
     inkscape:label="label"
     style="display:inline"
     transform="translate(0,100)">
    <rect
       style="color:#000000;fill:#666666;fill-opacity:1;fill-rule:nonzero;stroke:none;marker:none;visibility:visible;display:inline;overflow:visible;enable-background:accumulate"
       id="rect3074"
       width="63.57143"
       height="70.35714"
       x="625.35712"
       y="33.57143"
       rx="5"
       ry="5"
       clip-path="url(#label)"
       transform="matrix(1.5349382,0,0,1.5349382,-315.94159,-105.34462)" />
  </g>
</svg>
