<?xml version="1.0" encoding="UTF-8" standalone="no"?>
<!-- Created with Inkscape (http://www.inkscape.org/) -->

<svg
   xmlns:dc="http://purl.org/dc/elements/1.1/"
   xmlns:cc="http://creativecommons.org/ns#"
   xmlns:rdf="http://www.w3.org/1999/02/22-rdf-syntax-ns#"
   xmlns:svg="http://www.w3.org/2000/svg"
   xmlns="http://www.w3.org/2000/svg"
   xmlns:sodipodi="http://sodipodi.sourceforge.net/DTD/sodipodi-0.dtd"
   xmlns:inkscape="http://www.inkscape.org/namespaces/inkscape"
   width="1200"
   height="300"
   id="svg2"
   version="1.1"
   inkscape:version="0.48.4 r9939"
   sodipodi:docname="suitcase-me.svg">
  <defs
     id="defs4">
    <clipPath
       clipPathUnits="userSpaceOnUse"
       id="clipPath3026">
      <rect
         transform="matrix(0.97715459,0.21252976,-0.21252976,0.97715459,0,0)"
         ry="3.410974"
         rx="5.484386"
         y="-96.489342"
         x="472.39334"
         height="8.2228842"
         width="87.162567"
         id="rect3029"
         style="color:#000000;fill:#4d4d4d;fill-opacity:1;fill-rule:nonzero;stroke:none;marker:none;visibility:visible;display:inline;overflow:visible;enable-background:accumulate" />
    </clipPath>
    <clipPath
       clipPathUnits="userSpaceOnUse"
       id="clipPath3040">
      <g
         id="g3042">
        <rect
           transform="matrix(0.97715459,0.21252976,-0.21252976,0.97715459,0,0)"
           ry="3.410974"
           rx="5.484386"
           y="-93.23584"
           x="483.75436"
           height="84.969795"
           width="3.8373456"
           id="rect3044"
           style="color:#000000;fill:#cccccc;fill-opacity:1;fill-rule:nonzero;stroke:none;marker:none;visibility:visible;display:inline;overflow:visible;enable-background:accumulate" />
        <rect
           transform="matrix(0.97715459,0.21252976,-0.21252976,0.97715459,0,0)"
           ry="3.410974"
           rx="5.484386"
           y="-92.413536"
           x="543.23322"
           height="84.969795"
           width="3.8373456"
           id="rect3046"
           style="color:#000000;fill:#cccccc;fill-opacity:1;fill-rule:nonzero;stroke:none;marker:none;visibility:visible;display:inline;overflow:visible;enable-background:accumulate" />
      </g>
    </clipPath>
    <clipPath
       clipPathUnits="userSpaceOnUse"
       id="clipPath3062">
      <g
         id="g3064"
         transform="translate(156,0)">
        <path
           style="fill:#808080;fill-opacity:1;stroke:none"
           d="m 415.80088,94.290214 4.23237,-14.184616 c 0,0 5.44161,-14.184617 21.16183,-10.960838 15.72022,3.223775 15.72022,3.223775 15.72022,3.223775 z"
           id="path3066"
           inkscape:connector-curvature="0" />
        <path
           style="fill:#808080;fill-opacity:1;stroke:none"
           d="m 542.98147,114.02514 3.83734,-14.801194 c 0,0 3.28916,-10.963844 -10.96385,-13.704805 -14.25299,-2.740961 -21.92768,-3.289153 -21.92768,-3.289153 z"
           id="path3068"
           inkscape:connector-curvature="0" />
      </g>
    </clipPath>
    <clipPath
       clipPathUnits="userSpaceOnUse"
       id="clipPath3071">
      <path
         transform="matrix(1.244106,0.19195082,-0.11518667,0.81913294,581.6548,62.886789)"
         d="m -66.071432,79.10714 a 13.571428,6.25 0 1 1 -27.142857,0 13.571428,6.25 0 1 1 27.142857,0 z"
         sodipodi:ry="6.25"
         sodipodi:rx="13.571428"
         sodipodi:cy="79.10714"
         sodipodi:cx="-79.64286"
         id="path3073"
         style="color:#000000;fill:#999999;fill-opacity:1;fill-rule:nonzero;stroke:none;marker:none;visibility:visible;display:inline;overflow:visible;enable-background:accumulate"
         sodipodi:type="arc" />
    </clipPath>
    <clipPath
       clipPathUnits="userSpaceOnUse"
       id="clipPath3076">
      <rect
         style="color:#000000;fill:#1a1a1a;fill-opacity:1;fill-rule:nonzero;stroke:none;marker:none;visibility:visible;display:inline;overflow:visible;enable-background:accumulate"
         id="rect3078"
         width="127.18106"
         height="176.47658"
         x="428.89606"
         y="-3.0421875"
         transform="matrix(0.98634588,0.16468701,-0.27264631,0.96211433,0,0)"
         ry="17.331581"
         rx="10.808165"
         clip-path="none" />
    </clipPath>
    <clipPath
       clipPathUnits="userSpaceOnUse"
       id="clipPath3112">
      <g
         id="g3114"
         transform="translate(156,0)">
        <path
           transform="matrix(1.2575296,0,0,1.3172269,359.47248,30.26004)"
           d="m 38.571428,180.71428 c 0,4.14213 -2.87817,7.5 -6.428571,7.5 -3.550402,0 -6.428572,-3.35787 -6.428572,-7.5 0,-4.14214 2.87817,-7.5 6.428572,-7.5 3.550401,0 6.428571,3.35786 6.428571,7.5 z"
           sodipodi:ry="7.5"
           sodipodi:rx="6.4285712"
           sodipodi:cy="180.71428"
           sodipodi:cx="32.142857"
           id="path3116"
           style="color:#000000;fill:#4d4d4d;fill-opacity:1;fill-rule:nonzero;stroke:none;marker:none;visibility:visible;display:inline;overflow:visible;enable-background:accumulate"
           sodipodi:type="arc" />
        <path
           transform="matrix(1.2575296,0,0,1.3172269,362.6163,29.31917)"
           d="m 38.571428,180.71428 c 0,4.14213 -2.87817,7.5 -6.428571,7.5 -3.550402,0 -6.428572,-3.35787 -6.428572,-7.5 0,-4.14214 2.87817,-7.5 6.428572,-7.5 3.550401,0 6.428571,3.35786 6.428571,7.5 z"
           sodipodi:ry="7.5"
           sodipodi:rx="6.4285712"
           sodipodi:cy="180.71428"
           sodipodi:cx="32.142857"
           id="path3118"
           style="color:#000000;fill:#4d4d4d;fill-opacity:1;fill-rule:nonzero;stroke:none;marker:none;visibility:visible;display:inline;overflow:visible;enable-background:accumulate"
           sodipodi:type="arc" />
        <path
           transform="matrix(1.2575296,0,0,1.3172269,462.45517,47.007645)"
           d="m 38.571428,180.71428 c 0,4.14213 -2.87817,7.5 -6.428571,7.5 -3.550402,0 -6.428572,-3.35787 -6.428572,-7.5 0,-4.14214 2.87817,-7.5 6.428572,-7.5 3.550401,0 6.428571,3.35786 6.428571,7.5 z"
           sodipodi:ry="7.5"
           sodipodi:rx="6.4285712"
           sodipodi:cy="180.71428"
           sodipodi:cx="32.142857"
           id="path3120"
           style="color:#000000;fill:#4d4d4d;fill-opacity:1;fill-rule:nonzero;stroke:none;marker:none;visibility:visible;display:inline;overflow:visible;enable-background:accumulate"
           sodipodi:type="arc" />
        <path
           transform="matrix(1.2575296,0,0,1.3172269,465.599,46.066775)"
           d="m 38.571428,180.71428 c 0,4.14213 -2.87817,7.5 -6.428571,7.5 -3.550402,0 -6.428572,-3.35787 -6.428572,-7.5 0,-4.14214 2.87817,-7.5 6.428572,-7.5 3.550401,0 6.428571,3.35786 6.428571,7.5 z"
           sodipodi:ry="7.5"
           sodipodi:rx="6.4285712"
           sodipodi:cy="180.71428"
           sodipodi:cx="32.142857"
           id="path3122"
           style="color:#000000;fill:#4d4d4d;fill-opacity:1;fill-rule:nonzero;stroke:none;marker:none;visibility:visible;display:inline;overflow:visible;enable-background:accumulate"
           sodipodi:type="arc" />
      </g>
    </clipPath>
    <clipPath
       clipPathUnits="userSpaceOnUse"
       id="clipPath3032">
      <path
         inkscape:connector-curvature="0"
         id="path3034"
         d="m 443.94891,67.416254 -8.90892,4.098282 -9.97328,19.969656 11.89358,5.322913 10.00889,-21.06546 z"
         style="fill:#4d4d4d;fill-opacity:1;stroke:none" />
    </clipPath>
    <clipPath
       clipPathUnits="userSpaceOnUse"
       id="clipPath3041">
      <g
         id="g3043">
        <rect
           clip-path="none"
           rx="10.808165"
           ry="17.331581"
           transform="matrix(0.98634588,0.16468701,-0.27264631,0.96211433,0,0)"
           y="17.013382"
           x="449.92999"
           height="176.47658"
           width="127.18105"
           id="rect3045"
           style="color:#000000;fill:#666666;fill-opacity:1;fill-rule:nonzero;stroke:none;marker:none;visibility:visible;display:inline;overflow:visible;enable-background:accumulate" />
        <rect
           style="color:#000000;fill:#666666;fill-opacity:1;fill-rule:nonzero;stroke:none;marker:none;visibility:visible;display:inline;overflow:visible;enable-background:accumulate"
           id="rect3047"
           width="32.059956"
           height="20.429197"
           x="396.67508"
           y="-374.00647"
           transform="matrix(0.60992012,0.7924629,-0.79596199,0.6053466,0,0)" />
        <rect
           style="color:#000000;fill:#666666;fill-opacity:1;fill-rule:nonzero;stroke:none;marker:none;visibility:visible;display:inline;overflow:visible;enable-background:accumulate"
           id="rect3049"
           width="32.212074"
           height="20.333292"
           x="394.79642"
           y="-224.14076"
           transform="matrix(0.52110627,0.8534918,-0.85838651,0.51300351,0,0)" />
        <rect
           clip-path="none"
           rx="10.808165"
           ry="17.331581"
           transform="matrix(0.98634588,0.16468701,-0.27264631,0.96211433,0,0)"
           y="-3.0421817"
           x="428.89606"
           height="176.47658"
           width="127.18106"
           id="rect3054"
           style="color:#000000;fill:#666666;fill-opacity:1;fill-rule:nonzero;stroke:none;marker:none;visibility:visible;display:inline;overflow:visible;enable-background:accumulate" />
      </g>
    </clipPath>
  </defs>
  <sodipodi:namedview
     id="base"
     pagecolor="#ffffff"
     bordercolor="#666666"
     borderopacity="1.0"
     inkscape:pageopacity="0.0"
     inkscape:pageshadow="2"
     inkscape:zoom="1.979899"
     inkscape:cx="409.78992"
     inkscape:cy="97.832246"
     inkscape:document-units="px"
     inkscape:current-layer="layer2"
     showgrid="false"
     inkscape:window-width="1360"
     inkscape:window-height="744"
     inkscape:window-x="0"
     inkscape:window-y="24"
     inkscape:window-maximized="1" />
  <metadata
     id="metadata7">
    <rdf:RDF>
      <cc:Work
         rdf:about="">
        <dc:format>image/svg+xml</dc:format>
        <dc:type
           rdf:resource="http://purl.org/dc/dcmitype/StillImage" />
        <dc:title />
      </cc:Work>
    </rdf:RDF>
  </metadata>
  <g
     inkscape:groupmode="layer"
     id="layer4"
     inkscape:label="wheels"
     style="display:inline">
    <rect
       style="fill:#bdc3c7;fill-opacity:1;stroke:none"
       id="rect3051"
       width="279.28571"
       height="82.14286"
       x="454.28571"
       y="233.57143"
       rx="7.6746912"
       ry="7.6746912"
       clip-path="url(#clipPath3112)"
       transform="translate(-156,0)" />
  </g>
  <g
     inkscape:groupmode="layer"
     id="layer6"
     inkscape:label="sticks"
     style="display:inline">
    <rect
       style="fill:#bdc3c7;fill-opacity:1;stroke:none"
       id="rect3053"
       width="147.14285"
       height="132.5"
       x="446.42859"
       y="-2.5000002"
       rx="7.6746912"
       ry="7.6746912"
       clip-path="url(#clipPath3040)" />
  </g>
  <g
     inkscape:groupmode="layer"
     id="layer5"
     inkscape:label="handle"
     style="display:inline">
    <rect
       style="fill:#7f8c8d;fill-opacity:1;stroke:none"
       id="rect3042"
       width="161.78572"
       height="84.285713"
       x="441.61203"
       y="-25.367657"
       rx="7.6746912"
       ry="7.6746912"
       clip-path="url(#clipPath3026)" />
  </g>
  <g
     inkscape:groupmode="layer"
     id="layer2"
     inkscape:label="body"
     style="display:inline">
    <rect
       style="fill:#f39c12;fill-opacity:1;stroke:none"
       id="rect3035"
       width="328.57144"
       height="304.28571"
       x="310.86801"
       y="5.8876004"
       rx="7.6746912"
       ry="7.6746912"
       clip-path="url(#clipPath3041)" />
  </g>
  <g
     inkscape:label="face"
     inkscape:groupmode="layer"
     id="layer1"
     style="display:inline">
    <rect
       style="fill:#f1c40f;fill-opacity:1;stroke:none"
       id="rect3025"
       width="282.85715"
       height="279.28571"
       x="319.12256"
       y="20.938362"
       rx="7.6746912"
       ry="7.6746912"
       clip-path="url(#clipPath3076)" />
  </g>
  <g
     inkscape:groupmode="layer"
     id="layer3"
     inkscape:label="mark"
     style="display:inline">
    <rect
       style="fill:#9b59b6;fill-opacity:1;stroke:none"
       id="rect3052"
       width="190.71428"
       height="112.85714"
       x="374.59171"
       y="52.092094"
       rx="7.6746912"
       ry="7.6746912"
       clip-path="url(#clipPath3071)" />
  </g>
  <g
     inkscape:groupmode="layer"
     id="layer7"
     inkscape:label="corner"
     style="display:inline">
    <rect
       style="fill:#95a5a6;fill-opacity:1;stroke:none"
       id="rect3033"
       width="236.07143"
       height="108.92857"
       x="531.78571"
       y="37.857143"
       rx="7.6746912"
       ry="7.6746912"
       clip-path="url(#clipPath3062)"
       transform="translate(-156,0)" />
  </g>
  <g
     inkscape:groupmode="layer"
     id="layer8"
     inkscape:label="label"
     style="display:inline">
    <rect
       style="fill:#8e44ad;fill-opacity:1;stroke:none"
       id="rect3074"
       width="98.571426"
       height="99.285713"
       x="376.78024"
       y="24.205214"
       rx="7.6746912"
       ry="7.6746912"
       clip-path="url(#clipPath3032)" />
  </g>
</svg>
